<?xml version="1.0" encoding="UTF-8" standalone="no"?>
<svg
   viewBox="0 0 250 100"
   version="1.1"
   id="svg114"
   sodipodi:docname="Cut.svg"
   width="250"
   height="100"
   inkscape:version="1.3.2 (091e20e, 2023-11-25, custom)"
   xmlns:inkscape="http://www.inkscape.org/namespaces/inkscape"
   xmlns:sodipodi="http://sodipodi.sourceforge.net/DTD/sodipodi-0.dtd"
   xmlns:xlink="http://www.w3.org/1999/xlink"
   xmlns="http://www.w3.org/2000/svg"
   xmlns:svg="http://www.w3.org/2000/svg">
  <sodipodi:namedview
     id="namedview114"
     pagecolor="#505050"
     bordercolor="#eeeeee"
     borderopacity="1"
     inkscape:showpageshadow="0"
     inkscape:pageopacity="0"
     inkscape:pagecheckerboard="0"
     inkscape:deskcolor="#505050"
     inkscape:zoom="4.4688138"
     inkscape:cx="151.83"
     inkscape:cy="61.649469"
     inkscape:window-width="1920"
     inkscape:window-height="991"
     inkscape:window-x="-9"
     inkscape:window-y="-9"
     inkscape:window-maximized="1"
     inkscape:current-layer="svg114" />
  <defs
     id="defs41">
    <style
       id="style1">
      .cls-1 {
        stroke: url(#radial-gradient-2);
        stroke-width: 1.77px;
      }

      .cls-1, .cls-2, .cls-3, .cls-4, .cls-5 {
        fill: none;
      }

      .cls-1, .cls-2, .cls-4, .cls-5 {
        stroke-miterlimit: 10;
      }

      .cls-6 {
        fill: url(#linear-gradient-2);
      }

      .cls-6, .cls-7, .cls-8, .cls-9, .cls-10 {
        mix-blend-mode: overlay;
      }

      .cls-11 {
        fill: #fff;
      }

      .cls-2 {
        stroke: url(#radial-gradient-3);
      }

      .cls-2, .cls-4, .cls-5 {
        stroke-width: 1.79px;
      }

      .cls-7 {
        fill: url(#linear-gradient);
      }

      .cls-12 {
        clip-path: url(#clippath-1);
      }

      .cls-4 {
        stroke: url(#radial-gradient-4);
      }

      .cls-13 {
        isolation: isolate;
      }

      .cls-8 {
        fill: url(#linear-gradient-3);
        opacity: .4;
      }

      .cls-14 {
        fill: #9d9d9c;
      }

      .cls-5 {
        stroke: url(#radial-gradient);
      }

      .cls-15 {
        fill: url(#linear-gradient-5);
      }

      .cls-15, .cls-16, .cls-17, .cls-18 {
        mix-blend-mode: multiply;
      }

      .cls-19, .cls-16 {
        fill: #ededed;
      }

      .cls-10 {
        fill: url(#linear-gradient-4);
        opacity: .5;
      }

      .cls-20 {
        clip-path: url(#clippath);
      }

      .cls-17 {
        fill: url(#linear-gradient-6);
      }

      .cls-18 {
        fill: url(#linear-gradient-7);
      }
    </style>
    <radialGradient
       id="radial-gradient"
       cx="506.25"
       cy="-621.87"
       fx="506.25"
       fy="-621.87"
       r="31.860001"
       gradientTransform="matrix(0.97,0,0,0.98,-442.53,675)"
       gradientUnits="userSpaceOnUse">
      <stop
         offset=".32"
         stop-color="#fff"
         id="stop1" />
      <stop
         offset=".5"
         stop-color="#fff"
         stop-opacity=".99"
         id="stop2" />
      <stop
         offset=".59"
         stop-color="#fff"
         stop-opacity=".96"
         id="stop3" />
      <stop
         offset=".67"
         stop-color="#fff"
         stop-opacity=".91"
         id="stop4" />
      <stop
         offset=".73"
         stop-color="#fff"
         stop-opacity=".83"
         id="stop5" />
      <stop
         offset=".79"
         stop-color="#fff"
         stop-opacity=".74"
         id="stop6" />
      <stop
         offset=".84"
         stop-color="#fff"
         stop-opacity=".62"
         id="stop7" />
      <stop
         offset=".89"
         stop-color="#fff"
         stop-opacity=".47"
         id="stop8" />
      <stop
         offset=".93"
         stop-color="#fff"
         stop-opacity=".31"
         id="stop9" />
      <stop
         offset=".97"
         stop-color="#fff"
         stop-opacity=".13"
         id="stop10" />
      <stop
         offset="1"
         stop-color="#fff"
         stop-opacity="0"
         id="stop11" />
    </radialGradient>
    <clipPath
       id="clippath">
      <path
         class="cls-3"
         d="M 252.04,44.34 V 21.03 h -75.46 c 28.82,3.69 51.12,28.27 51.21,58.08 V 44.34 Z"
         id="path11" />
    </clipPath>
    <radialGradient
       id="radial-gradient-2"
       cx="686.85999"
       cy="-625.94"
       fx="686.85999"
       fy="-625.94"
       r="19.85"
       gradientTransform="translate(-472.61,694.26)"
       gradientUnits="userSpaceOnUse">
      <stop
         offset=".07"
         stop-color="#fff"
         id="stop12" />
      <stop
         offset=".16"
         stop-color="#fff"
         stop-opacity=".98"
         id="stop13" />
      <stop
         offset=".27"
         stop-color="#fff"
         stop-opacity=".91"
         id="stop14" />
      <stop
         offset=".4"
         stop-color="#fff"
         stop-opacity=".8"
         id="stop15" />
      <stop
         offset=".55"
         stop-color="#fff"
         stop-opacity=".65"
         id="stop16" />
      <stop
         offset=".71"
         stop-color="#fff"
         stop-opacity=".45"
         id="stop17" />
      <stop
         offset=".87"
         stop-color="#fff"
         stop-opacity=".22"
         id="stop18" />
      <stop
         offset="1"
         stop-color="#fff"
         stop-opacity="0"
         id="stop19" />
    </radialGradient>
    <clipPath
       id="clippath-1">
      <path
         class="cls-3"
         d="m 84.12,19.6 v 40.05 c 0,23.19 18.78,41.99 41.98,41.99 V 61.58 C 126.1,38.4 107.3,19.6 84.12,19.6 Z"
         id="path19" />
    </clipPath>
    <radialGradient
       id="radial-gradient-3"
       cx="568.28998"
       cy="-655.60999"
       fx="568.28998"
       fy="-655.60999"
       r="16.379999"
       gradientTransform="translate(-472.61,694.26)"
       gradientUnits="userSpaceOnUse">
      <stop
         offset="0"
         stop-color="#fff"
         id="stop20" />
      <stop
         offset="1"
         stop-color="#fff"
         stop-opacity="0"
         id="stop21" />
    </radialGradient>
    <linearGradient
       id="linear-gradient"
       x1="620"
       y1="-638.57001"
       x2="620.45001"
       y2="-638.95001"
       gradientTransform="translate(-472.61,694.26)"
       gradientUnits="userSpaceOnUse">
      <stop
         offset="0"
         stop-color="#b2b2b2"
         id="stop22" />
      <stop
         offset=".11"
         stop-color="#b5b5b5"
         stop-opacity=".96"
         id="stop23" />
      <stop
         offset=".28"
         stop-color="#bdbdbd"
         stop-opacity=".85"
         id="stop24" />
      <stop
         offset=".47"
         stop-color="#cbcbcb"
         stop-opacity=".67"
         id="stop25" />
      <stop
         offset=".69"
         stop-color="#dedede"
         stop-opacity=".42"
         id="stop26" />
      <stop
         offset=".93"
         stop-color="#f7f7f7"
         stop-opacity=".1"
         id="stop27" />
      <stop
         offset="1"
         stop-color="#fff"
         stop-opacity="0"
         id="stop28" />
    </linearGradient>
    <linearGradient
       id="linear-gradient-2"
       x1="537.71002"
       y1="-562.59998"
       x2="711.90002"
       y2="-711.46002"
       xlink:href="#linear-gradient" />
    <linearGradient
       id="linear-gradient-3"
       x1="607.97998"
       y1="-593.91998"
       x2="628.42999"
       y2="-610.62"
       gradientTransform="translate(-472.61,694.26)"
       gradientUnits="userSpaceOnUse">
      <stop
         offset="0"
         stop-color="#999"
         id="stop29" />
      <stop
         offset=".11"
         stop-color="#afafaf"
         stop-opacity=".78"
         id="stop30" />
      <stop
         offset=".29"
         stop-color="#d1d1d1"
         stop-opacity=".44"
         id="stop31" />
      <stop
         offset=".44"
         stop-color="#eaeaea"
         stop-opacity=".2"
         id="stop32" />
      <stop
         offset=".57"
         stop-color="#f9f9f9"
         stop-opacity=".05"
         id="stop33" />
      <stop
         offset=".65"
         stop-color="#fff"
         stop-opacity="0"
         id="stop34" />
    </linearGradient>
    <linearGradient
       id="linear-gradient-4"
       x1="613.53998"
       y1="-618"
       x2="631.79999"
       y2="-632.90997"
       xlink:href="#linear-gradient-3" />
    <linearGradient
       id="linear-gradient-5"
       x1="606.59003"
       y1="-603.35999"
       x2="601.71002"
       y2="-630.40997"
       gradientTransform="translate(-472.61,694.26)"
       gradientUnits="userSpaceOnUse">
      <stop
         offset="0"
         stop-color="#dadada"
         id="stop35" />
      <stop
         offset=".08"
         stop-color="#dbdbdb"
         stop-opacity=".96"
         id="stop36" />
      <stop
         offset=".2"
         stop-color="#dedede"
         stop-opacity=".87"
         id="stop37" />
      <stop
         offset=".35"
         stop-color="#e4e4e4"
         stop-opacity=".71"
         id="stop38" />
      <stop
         offset=".51"
         stop-color="#ececec"
         stop-opacity=".49"
         id="stop39" />
      <stop
         offset=".7"
         stop-color="#f7f7f7"
         stop-opacity=".21"
         id="stop40" />
      <stop
         offset=".82"
         stop-color="#fff"
         stop-opacity="0"
         id="stop41" />
    </linearGradient>
    <linearGradient
       id="linear-gradient-6"
       x1="614.35999"
       y1="-617.85999"
       x2="608.88"
       y2="-648.27002"
       xlink:href="#linear-gradient-5" />
    <linearGradient
       id="linear-gradient-7"
       x1="619.56"
       y1="-637.28003"
       x2="615.37"
       y2="-660.51001"
       xlink:href="#linear-gradient-5" />
    <radialGradient
       id="radial-gradient-4"
       cx="611.02002"
       cy="-613.83002"
       fx="611.02002"
       fy="-613.83002"
       r="17.18"
       xlink:href="#radial-gradient-3" />
    <radialGradient
       inkscape:collect="always"
       xlink:href="#radial-gradient-3"
       id="radialGradient118"
       gradientUnits="userSpaceOnUse"
       gradientTransform="translate(-472.61,694.26)"
       cx="568.28998"
       cy="-655.60999"
       fx="568.28998"
       fy="-655.60999"
       r="16.379999" />
    <linearGradient
       inkscape:collect="always"
       xlink:href="#linear-gradient"
       id="linearGradient118"
       gradientUnits="userSpaceOnUse"
       gradientTransform="translate(-472.61,694.26)"
       x1="620"
       y1="-638.57001"
       x2="620.45001"
       y2="-638.95001" />
    <linearGradient
       inkscape:collect="always"
       xlink:href="#linear-gradient-3"
       id="linearGradient119"
       gradientUnits="userSpaceOnUse"
       gradientTransform="translate(-472.61,694.26)"
       x1="607.97998"
       y1="-593.91998"
       x2="628.42999"
       y2="-610.62" />
    <linearGradient
       inkscape:collect="always"
       xlink:href="#linear-gradient-5"
       id="linearGradient120"
       gradientUnits="userSpaceOnUse"
       gradientTransform="translate(-472.61,694.26)"
       x1="606.59003"
       y1="-603.35999"
       x2="601.71002"
       y2="-630.40997" />
  </defs>
  <g
     class="cls-13"
     id="g114"
     transform="matrix(0.98845844,0,0,0.91268611,0.44743065,-13.637681)">
    <g
       id="Capa_1">
      <g
         id="g113">
        <path
           class="cls-3"
           d="m 78.08,84.75 c -0.14,0.18 -0.27,0.35 -0.41,0.54 0.14,-0.19 0.27,-0.37 0.41,-0.54 z"
           id="path41" />
        <path
           d="m 78.08,84.75 c 0.7,-0.94 1.36,-1.89 2,-2.86 l -0.12,-0.08 c -0.59,1.05 -1.22,2.03 -1.88,2.94 z"
           id="path42" />
        <g
           id="g45">
          <path
             class="cls-19"
             d="m 42.73,101.47 c -5.72,0 -11.16,-1.03 -16.3,-3.07 C 21.28,96.36 16.75,93.46 12.83,89.69 8.91,85.92 5.78,81.41 3.46,76.15 1.15,70.89 -0.01,65.09 -0.01,58.73 v -0.24 c 0,-6.13 1.12,-11.81 3.35,-17.08 2.24,-5.26 5.34,-9.81 9.31,-13.65 3.96,-3.85 8.61,-6.86 13.94,-9 5.34,-2.16 11.07,-3.24 17.2,-3.24 4.55,0 8.73,0.53 12.54,1.58 3.81,1.06 7.26,2.55 10.36,4.43 3.11,1.88 5.85,4.13 8.25,6.76 2.39,2.64 4.46,5.52 6.18,8.66 l -22.73,13.3 c -1.57,-2.98 -3.51,-5.39 -5.83,-7.24 -2.32,-1.84 -5.35,-2.77 -9.12,-2.77 -2.36,0 -4.48,0.47 -6.36,1.41 -1.89,0.94 -3.5,2.23 -4.83,3.89 -1.34,1.65 -2.38,3.57 -3.12,5.76 -0.75,2.21 -1.12,4.52 -1.12,6.96 v 0.24 c 0,2.66 0.37,5.12 1.12,7.36 0.74,2.23 1.81,4.15 3.18,5.76 1.37,1.6 3,2.87 4.88,3.76 1.89,0.91 3.96,1.36 6.24,1.36 3.93,0 7.07,-0.96 9.42,-2.88 2.36,-1.92 4.4,-4.41 6.12,-7.48 l 22.72,12.84 c -1.73,3.06 -3.77,5.94 -6.13,8.64 -2.36,2.71 -5.12,5.07 -8.3,7.07 -3.19,2 -6.78,3.59 -10.83,4.77 -4.04,1.17 -8.61,1.77 -13.72,1.77 z"
             id="path43" />
          <path
             class="cls-19"
             d="m 43.44,40.24 c 3.77,0 6.8,0.93 9.12,2.77 2.32,1.84 4.26,4.25 5.83,7.24 l 22.73,-13.3 c -0.83,-1.49 -1.73,-2.92 -2.7,-4.3 -3.93,-1.08 -8.08,-1.67 -12.36,-1.67 -12.04,0 -22.97,4.56 -31.08,11.99 0.66,-0.48 1.36,-0.93 2.11,-1.3 1.88,-0.94 4,-1.41 6.36,-1.41 z m 15.55,26.14 c -1.73,3.07 -3.77,5.56 -6.12,7.48 -2.35,1.93 -5.49,2.88 -9.42,2.88 -2.28,0 -4.35,-0.45 -6.24,-1.36 -1.89,-0.89 -3.51,-2.15 -4.88,-3.76 -1.37,-1.61 -2.44,-3.53 -3.18,-5.76 -0.75,-2.24 -1.12,-4.7 -1.12,-7.36 v -0.24 c 0,-2.43 0.37,-4.75 1.12,-6.96 0.64,-1.87 1.5,-3.53 2.57,-5.01 -6.8,7.67 -10.93,17.65 -10.93,28.57 0,8.96 2.77,17.29 7.52,24.24 4.58,1.57 9.39,2.37 14.42,2.37 5.03,0 9.68,-0.6 13.72,-1.77 4.05,-1.18 7.65,-2.77 10.83,-4.77 3.18,-2 5.94,-4.36 8.3,-7.07 2.35,-2.7 4.39,-5.59 6.13,-8.64 z"
             id="path44" />
          <path
             class="cls-5"
             d="M 24.99,98.69 C 21.44,92.16 20.1,84.8 19.87,76.82 19.21,52.72 37.12,30.98 64.28,31.05 c 3.1,0.01 6.12,0.32 9.04,0.92"
             id="path45"
             style="stroke:url(#radial-gradient)" />
        </g>
        <g
           id="g61">
          <path
             class="cls-19"
             d="M 200.23,44.34 H 175.98 V 21.03 h 76.06 v 23.31 h -24.25 v 59.11 H 200.24 V 44.34 Z"
             id="path46" />
          <path
             class="cls-19"
             d="m 200.23,91.61 c 0,0 23.17,-11.27 27.55,-47.27 h 24.25 V 21.03 h -76.06 v 23.31 h 24.25 v 47.27 z"
             id="path47" />
          <g
             class="cls-20"
             clip-path="url(#clippath)"
             id="g60">
            <g
               class="cls-9"
               id="g59">
              <path
                 class="cls-11"
                 d="m 228.38,30.3 c 0.47,0 0.87,0.31 0.99,0.76 h 13.22 l 3.02,3.25 h 4.18 l 4.38,-3.15 h 18.27 l 5.2,-5.2 h 15.07 c 0.12,-0.43 0.52,-0.76 0.99,-0.76 0.27,0 0.53,0.1 0.72,0.29 0.19,0.21 0.3,0.46 0.3,0.74 0,0.56 -0.46,1.02 -1.02,1.02 v 0 c -0.47,0 -0.87,-0.33 -0.99,-0.75 h -14.85 l -5.2,5.2 H 254.4 l -4.39,3.16 h -4.63 l -3.02,-3.26 h -12.99 c -0.12,0.43 -0.52,0.74 -0.99,0.74 -0.27,0 -0.53,-0.09 -0.72,-0.29 -0.19,-0.2 -0.3,-0.45 -0.3,-0.74 0,-0.26 0.11,-0.53 0.3,-0.71 0.19,-0.2 0.45,-0.3 0.72,-0.3 z"
                 id="path48" />
              <path
                 class="cls-11"
                 d="m 252.66,16.87 c 0.57,0 1.02,0.46 1.02,1.03 0,0.57 -0.45,1.02 -1.02,1.02 v 0 c -0.19,0 -0.36,-0.04 -0.51,-0.13 l -3.16,3.16 h -6.13 l -3.6,3.61 h -4.57 c -0.11,0.44 -0.51,0.76 -0.98,0.76 v 0 c -0.28,0 -0.54,-0.11 -0.74,-0.3 -0.19,-0.19 -0.3,-0.45 -0.3,-0.72 0,-0.27 0.11,-0.53 0.3,-0.73 0.2,-0.2 0.45,-0.31 0.74,-0.31 0.47,0 0.87,0.33 0.98,0.76 h 4.34 l 3.61,-3.62 h 6.13 l 3,-3 c -0.08,-0.15 -0.13,-0.32 -0.13,-0.5 0,-0.57 0.46,-1.03 1.03,-1.03 z"
                 id="path49" />
              <path
                 class="cls-11"
                 d="m 239.79,32.6 c 0.56,0 1.03,0.47 1.03,1.02 0,0.55 -0.47,1.03 -1.03,1.03 v 0 c -0.18,0 -0.36,-0.04 -0.51,-0.13 l -3.16,3.16 h -6.13 l -3.62,3.62 h -4.56 c -0.12,0.43 -0.52,0.76 -0.99,0.76 v 0 c -0.28,0 -0.53,-0.11 -0.73,-0.31 -0.19,-0.19 -0.3,-0.45 -0.3,-0.73 0,-0.26 0.11,-0.52 0.3,-0.71 0.19,-0.2 0.45,-0.31 0.73,-0.31 0.47,0.02 0.87,0.33 0.99,0.76 h 4.34 l 3.62,-3.61 h 6.11 l 3.01,-3.01 c -0.08,-0.15 -0.13,-0.32 -0.13,-0.51 0,-0.55 0.46,-1.02 1.03,-1.02 z"
                 id="path50" />
              <path
                 class="cls-11"
                 d="m 289.73,11.98 c 0.57,0 1.03,0.46 1.03,1.02 0,0.56 -0.46,1.03 -1.03,1.03 v 0 c -0.17,0 -0.35,-0.04 -0.5,-0.13 l -1.88,1.87 h -6.13 l -3.62,3.61 h -4.55 c -0.13,0.44 -0.52,0.75 -0.99,0.75 v 0 c -0.27,0 -0.53,-0.1 -0.73,-0.29 -0.19,-0.2 -0.3,-0.46 -0.3,-0.74 0,-0.28 0.11,-0.52 0.3,-0.72 0.2,-0.19 0.46,-0.3 0.73,-0.3 0.48,0 0.87,0.31 0.99,0.75 h 4.33 l 3.61,-3.61 h 6.13 l 1.72,-1.71 c -0.09,-0.15 -0.15,-0.32 -0.15,-0.51 0,-0.56 0.47,-1.02 1.02,-1.02 z"
                 id="path51" />
              <path
                 class="cls-11"
                 d="m 270.11,14.1 c 0,-0.28 -0.11,-0.53 -0.3,-0.74 -0.19,-0.19 -0.44,-0.29 -0.72,-0.29 -0.28,0 -0.53,0.1 -0.72,0.29 -0.13,0.13 -0.22,0.29 -0.27,0.46 h -1.7 l -0.04,-0.03 -0.02,0.03 h -4.32 c -0.12,-0.44 -0.51,-0.75 -0.99,-0.75 -0.28,0 -0.54,0.1 -0.73,0.29 -0.19,0.21 -0.29,0.46 -0.29,0.74 0,0.56 0.45,1.02 1.02,1.02 v 0 c 0.47,0 0.87,-0.32 0.99,-0.75 h 3.89 l -2.04,2.55 c -0.09,-0.04 -0.2,-0.05 -0.32,-0.05 -0.26,0 -0.53,0.11 -0.72,0.3 -0.19,0.19 -0.3,0.45 -0.3,0.73 0,0.28 0.11,0.53 0.3,0.72 0.19,0.2 0.46,0.3 0.72,0.3 0.57,0 1.03,-0.46 1.03,-1.02 0,-0.26 -0.09,-0.49 -0.25,-0.67 l 2.28,-2.86 h 1.5 c 0.05,0.17 0.14,0.33 0.27,0.45 0.19,0.19 0.44,0.3 0.72,0.3 v 0 c 0.57,0 1.02,-0.46 1.02,-1.02 z m -9.08,0.86 z"
                 id="path52" />
              <path
                 class="cls-11"
                 d="m 250.27,28.07 c -0.47,0 -0.87,-0.31 -0.98,-0.76 h -1.06 c -0.04,0.18 -0.13,0.32 -0.26,0.46 -0.19,0.19 -0.45,0.3 -0.73,0.3 v 0 c -0.27,0 -0.52,-0.11 -0.72,-0.3 -0.2,-0.2 -0.3,-0.46 -0.3,-0.73 0,-0.57 0.46,-1.03 1.02,-1.03 0.28,0 0.54,0.11 0.73,0.3 0.13,0.13 0.22,0.28 0.26,0.46 h 1.06 c 0.11,-0.43 0.51,-0.76 0.98,-0.76 0.57,0 1.03,0.47 1.03,1.03 0,0.56 -0.46,1.02 -1.03,1.02 v 0 z"
                 id="path53" />
              <path
                 class="cls-11"
                 d="m 271.47,16.79 v 0 c -0.17,0 -0.31,-0.04 -0.47,-0.12 l -4.04,4.05 h -8.5 c -0.04,0.17 -0.13,0.33 -0.26,0.45 -0.19,0.2 -0.45,0.3 -0.73,0.3 v -0.17 0.17 c -0.56,0 -1.03,-0.46 -1.03,-1.03 0,-0.57 0.47,-1.02 1.03,-1.02 0.47,0 0.86,0.32 0.98,0.75 h 8.27 l 3.87,-3.87 c -0.1,-0.15 -0.16,-0.34 -0.16,-0.53 0,-0.57 0.47,-1.03 1.02,-1.03 0.28,0 0.54,0.11 0.74,0.3 0.19,0.2 0.3,0.45 0.3,0.74 0,0.56 -0.46,1.02 -1.03,1.02 z"
                 id="path54" />
              <path
                 class="cls-11"
                 d="m 302.63,9.05 v 0 c -0.17,0 -0.33,-0.04 -0.47,-0.11 l -9.86,9.73 h -8.49 c -0.04,0.18 -0.12,0.33 -0.26,0.46 -0.19,0.19 -0.45,0.3 -0.73,0.3 v -0.17 0.17 c -0.56,0 -1.02,-0.47 -1.02,-1.02 0,-0.55 0.46,-1.03 1.02,-1.03 0.48,0 0.87,0.32 0.99,0.76 h 8.27 l 9.68,-9.56 c -0.09,-0.16 -0.16,-0.35 -0.16,-0.54 0,-0.57 0.47,-1.03 1.03,-1.03 0.27,0 0.53,0.1 0.72,0.3 0.2,0.19 0.3,0.45 0.3,0.74 0,0.56 -0.46,1.02 -1.02,1.02 z"
                 id="path55" />
              <path
                 class="cls-11"
                 d="m 242.82,37.37 v 0 c -0.17,0 -0.33,-0.05 -0.47,-0.12 l -4.05,4.05 h -8.49 c -0.05,0.17 -0.15,0.33 -0.27,0.45 -0.19,0.2 -0.45,0.31 -0.72,0.31 v -0.17 0.17 c -0.57,0 -1.02,-0.47 -1.02,-1.04 0,-0.57 0.45,-1.01 1.02,-1.01 0.47,0 0.88,0.31 0.99,0.75 h 8.27 l 3.86,-3.86 c -0.09,-0.17 -0.15,-0.36 -0.15,-0.55 0,-0.56 0.46,-1.03 1.03,-1.03 0.27,0 0.53,0.11 0.72,0.29 0.2,0.2 0.3,0.45 0.3,0.74 0,0.56 -0.46,1.03 -1.02,1.03 z"
                 id="path56" />
              <path
                 class="cls-11"
                 d="m 290.95,21.22 h -18.48 l -3.06,3.05 h -12.54 c -0.16,0.37 -0.51,0.61 -0.94,0.61 -0.27,0 -0.53,-0.1 -0.72,-0.29 -0.19,-0.2 -0.3,-0.45 -0.3,-0.73 0,-0.28 0.11,-0.53 0.3,-0.73 0.19,-0.19 0.46,-0.3 0.72,-0.3 0.53,0 0.95,0.39 1.02,0.9 h 12.23 l 3.06,-3.06 h 18.71 c 0.05,-0.17 0.14,-0.33 0.26,-0.45 0.2,-0.21 0.45,-0.3 0.73,-0.3 0.28,0 0.53,0.1 0.72,0.3 0.19,0.19 0.3,0.44 0.3,0.72 0,0.28 -0.11,0.53 -0.3,0.72 -0.2,0.2 -0.44,0.31 -0.72,0.31 v -0.17 0.17 c -0.48,0 -0.87,-0.33 -0.99,-0.76 z"
                 id="path57" />
              <path
                 class="cls-11"
                 d="m 293.54,23.79 h -18.63 l -3.99,3.99 h -17.44 l -3.07,3.08 h -3.15 l -2.27,-2.28 h -12.66 c -0.13,0.44 -0.52,0.76 -0.98,0.76 -0.28,0 -0.54,-0.12 -0.73,-0.31 -0.2,-0.19 -0.3,-0.46 -0.3,-0.72 0,-0.28 0.1,-0.54 0.3,-0.74 0.19,-0.19 0.45,-0.3 0.73,-0.3 0.47,0 0.86,0.33 0.98,0.76 h 9.44 c -0.44,-0.13 -0.75,-0.52 -0.75,-0.99 0,-0.57 0.46,-1.03 1.02,-1.03 0.19,0 0.36,0.05 0.51,0.14 l 2.57,-2.57 h 5.44 l 7.01,-7.02 c 0,0 -0.01,-0.09 -0.01,-0.14 0,-0.56 0.47,-1.03 1.03,-1.03 0.56,0 1.03,0.47 1.03,1.03 0,0.56 -0.47,1.02 -1.03,1.02 v 0 c -0.31,0 -0.59,-0.14 -0.77,-0.35 l -7.04,7.04 h -5.43 l -2.41,2.4 c 0.09,0.15 0.13,0.33 0.13,0.51 0,0.47 -0.31,0.86 -0.75,0.99 h 2.91 l 2.27,2.27 h 2.7 l 3.08,-3.08 h 17.42 l 3.99,-3.99 h 18.86 c 0.12,-0.43 0.51,-0.75 0.99,-0.75 0.56,0 1.03,0.45 1.03,1.02 0,0.57 -0.47,1.03 -1.03,1.03 -0.48,0 -0.87,-0.32 -0.99,-0.75 z"
                 id="path58" />
              <path
                 class="cls-11"
                 d="m 273.09,1.02 v 0 c 0,0.18 -0.05,0.33 -0.12,0.48 l 4.04,4.05 v 8.49 c 0.17,0.04 0.33,0.14 0.46,0.27 0.19,0.19 0.29,0.45 0.29,0.73 h -0.17 0.17 c 0,0.56 -0.45,1.02 -1.03,1.02 -0.58,0 -1.02,-0.46 -1.02,-1.02 0,-0.48 0.33,-0.88 0.75,-0.99 V 5.78 L 272.58,1.9 c -0.15,0.1 -0.33,0.15 -0.54,0.15 -0.56,0 -1.02,-0.45 -1.02,-1.03 0,-0.26 0.11,-0.53 0.3,-0.71 0.2,-0.19 0.46,-0.31 0.73,-0.31 0.56,0 1.03,0.45 1.03,1.02 z"
                 id="path59" />
            </g>
          </g>
          <path
             class="cls-1"
             d="m 200.23,91.61 c 0,0 23.17,-11.27 27.55,-47.27"
             id="path60"
             style="stroke:url(#radial-gradient-2)" />
        </g>
        <g
           id="g87">
          <path
             class="cls-14"
             d="m 5.3,123.14 c -0.67,0 -1.27,-0.11 -1.85,-0.35 -0.56,-0.24 -1.05,-0.57 -1.46,-0.99 -0.4,-0.41 -0.73,-0.91 -0.96,-1.48 -0.23,-0.56 -0.34,-1.16 -0.34,-1.81 v -0.02 c 0,-0.65 0.12,-1.25 0.34,-1.81 0.24,-0.56 0.56,-1.06 0.96,-1.49 0.41,-0.41 0.9,-0.76 1.48,-0.99 0.57,-0.25 1.21,-0.38 1.91,-0.38 0.42,0 0.8,0.04 1.14,0.11 0.35,0.07 0.66,0.17 0.95,0.28 0.28,0.14 0.54,0.28 0.78,0.45 0.24,0.17 0.46,0.36 0.66,0.57 l -1.25,1.44 c -0.36,-0.31 -0.71,-0.56 -1.08,-0.74 -0.37,-0.18 -0.77,-0.27 -1.23,-0.27 -0.37,0 -0.72,0.08 -1.04,0.22 -0.32,0.15 -0.61,0.35 -0.83,0.6 -0.23,0.26 -0.41,0.55 -0.53,0.9 -0.14,0.34 -0.2,0.7 -0.2,1.08 v 0.03 c 0,0.38 0.06,0.74 0.2,1.09 0.12,0.33 0.3,0.64 0.52,0.89 0.23,0.26 0.51,0.46 0.83,0.62 0.32,0.14 0.67,0.22 1.05,0.22 0.52,0 0.96,-0.09 1.31,-0.29 0.36,-0.17 0.71,-0.44 1.05,-0.76 l 1.27,1.28 c -0.24,0.25 -0.47,0.47 -0.73,0.66 -0.24,0.2 -0.52,0.37 -0.82,0.51 -0.29,0.14 -0.62,0.26 -0.97,0.32 -0.35,0.08 -0.74,0.11 -1.18,0.11 z"
             id="path61" />
          <path
             class="cls-14"
             d="m 10.56,113.99 h 6.78 v 1.76 h -4.82 v 1.83 h 4.24 v 1.76 h -4.24 v 1.89 h 4.89 v 1.76 h -6.85 z"
             id="path62" />
          <path
             class="cls-14"
             d="M 19.17,113.99 H 21 l 4.22,5.54 v -5.54 h 1.95 v 9 H 25.5 l -4.36,-5.72 v 5.72 h -1.96 v -9 z"
             id="path63" />
          <path
             class="cls-14"
             d="M 31.43,115.81 H 28.7 v -1.82 h 7.44 v 1.82 h -2.73 v 7.18 h -1.98 z"
             id="path64" />
          <path
             class="cls-14"
             d="m 37.66,113.99 h 4.12 c 1.14,0 2.02,0.3 2.62,0.92 0.52,0.51 0.78,1.2 0.78,2.05 v 0.03 c 0,0.74 -0.18,1.32 -0.53,1.78 -0.37,0.46 -0.83,0.8 -1.4,1.01 l 2.21,3.21 h -2.32 l -1.92,-2.88 h -1.56 v 2.88 h -1.98 v -9 z m 3.99,4.38 c 0.49,0 0.86,-0.11 1.12,-0.35 0.26,-0.23 0.39,-0.53 0.39,-0.92 v -0.03 c 0,-0.42 -0.14,-0.74 -0.41,-0.96 -0.27,-0.22 -0.65,-0.33 -1.14,-0.33 h -1.96 v 2.6 h 2.01 z"
             id="path65" />
          <path
             class="cls-14"
             d="m 51.33,123.14 c -0.7,0 -1.33,-0.12 -1.91,-0.36 -0.59,-0.25 -1.09,-0.58 -1.51,-0.99 -0.43,-0.42 -0.76,-0.91 -1,-1.47 -0.24,-0.56 -0.35,-1.16 -0.35,-1.81 v -0.02 c 0,-0.65 0.12,-1.25 0.36,-1.81 0.24,-0.56 0.57,-1.06 0.99,-1.49 0.42,-0.41 0.94,-0.76 1.52,-0.99 0.59,-0.25 1.23,-0.38 1.92,-0.38 0.69,0 1.34,0.13 1.92,0.38 0.58,0.24 1.09,0.56 1.51,0.98 0.42,0.42 0.75,0.91 0.99,1.47 0.23,0.56 0.36,1.16 0.36,1.8 v 0.03 c 0,0.64 -0.13,1.25 -0.36,1.8 -0.24,0.56 -0.57,1.05 -0.99,1.48 -0.43,0.43 -0.93,0.76 -1.52,1.01 -0.59,0.24 -1.22,0.36 -1.92,0.36 z m 0.02,-1.82 c 0.39,0 0.76,-0.07 1.09,-0.22 0.34,-0.14 0.61,-0.34 0.86,-0.6 0.24,-0.26 0.42,-0.56 0.55,-0.9 0.13,-0.34 0.21,-0.7 0.21,-1.08 v -0.02 c 0,-0.39 -0.07,-0.76 -0.21,-1.1 -0.13,-0.35 -0.33,-0.65 -0.56,-0.9 -0.25,-0.25 -0.55,-0.46 -0.87,-0.61 -0.33,-0.15 -0.7,-0.23 -1.09,-0.23 -0.39,0 -0.77,0.08 -1.11,0.22 -0.33,0.15 -0.61,0.35 -0.85,0.6 -0.23,0.26 -0.42,0.55 -0.55,0.9 -0.13,0.34 -0.19,0.7 -0.19,1.08 v 0.03 c 0,0.38 0.06,0.74 0.19,1.09 0.13,0.33 0.33,0.64 0.58,0.89 0.24,0.26 0.53,0.46 0.85,0.62 0.33,0.14 0.71,0.22 1.1,0.22 z"
             id="path66" />
          <path
             class="cls-14"
             d="m 65.5,123.14 c -1.21,0 -2.15,-0.34 -2.85,-1 -0.7,-0.67 -1.05,-1.66 -1.05,-3 V 114 h 1.99 v 5.09 c 0,0.74 0.17,1.3 0.51,1.68 0.34,0.37 0.82,0.55 1.43,0.55 0.61,0 1.08,-0.17 1.43,-0.53 0.35,-0.37 0.51,-0.9 0.51,-1.62 v -5.16 h 1.98 v 5.08 c 0,0.69 -0.09,1.28 -0.28,1.78 -0.19,0.52 -0.45,0.94 -0.79,1.28 -0.35,0.33 -0.76,0.58 -1.24,0.76 -0.5,0.16 -1.04,0.25 -1.64,0.25 z"
             id="path67" />
          <path
             class="cls-14"
             d="m 71.46,113.99 h 1.83 l 4.22,5.54 v -5.54 h 1.95 v 9 h -1.69 l -4.35,-5.72 v 5.72 h -1.96 z"
             id="path68" />
          <path
             class="cls-14"
             d="m 81.71,113.99 h 1.97 v 9 h -1.97 z"
             id="path69" />
          <path
             class="cls-14"
             d="m 85.16,113.99 h 2.19 l 2.34,6.33 2.35,-6.33 h 2.14 l -3.63,9.07 H 88.8 Z"
             id="path70" />
          <path
             class="cls-14"
             d="m 95.58,113.99 h 6.77 v 1.76 h -4.82 v 1.83 h 4.24 v 1.76 h -4.24 v 1.89 h 4.89 v 1.76 h -6.84 z"
             id="path71" />
          <path
             class="cls-14"
             d="m 104.19,113.99 h 4.11 c 1.14,0 2.01,0.3 2.62,0.92 0.52,0.51 0.77,1.2 0.77,2.05 v 0.03 c 0,0.74 -0.17,1.32 -0.53,1.78 -0.36,0.46 -0.83,0.8 -1.39,1.01 l 2.2,3.21 h -2.32 l -1.93,-2.88 h -1.55 v 2.88 h -1.98 z m 3.99,4.38 c 0.49,0 0.87,-0.11 1.12,-0.35 0.27,-0.23 0.4,-0.53 0.4,-0.92 v -0.03 c 0,-0.42 -0.15,-0.74 -0.42,-0.96 -0.27,-0.22 -0.65,-0.33 -1.14,-0.33 h -1.97 v 2.6 h 2.01 z"
             id="path72" />
          <path
             class="cls-14"
             d="m 116.7,123.12 c -0.68,0 -1.35,-0.12 -2.01,-0.35 -0.66,-0.23 -1.26,-0.59 -1.81,-1.09 l 1.17,-1.4 c 0.42,0.33 0.84,0.6 1.28,0.79 0.43,0.2 0.9,0.3 1.41,0.3 0.41,0 0.73,-0.08 0.96,-0.23 0.22,-0.14 0.34,-0.35 0.34,-0.62 v -0.02 c 0,-0.13 -0.02,-0.25 -0.06,-0.35 -0.06,-0.1 -0.14,-0.18 -0.27,-0.28 -0.14,-0.08 -0.32,-0.17 -0.56,-0.25 -0.24,-0.08 -0.54,-0.17 -0.92,-0.26 -0.45,-0.12 -0.86,-0.24 -1.24,-0.38 -0.37,-0.13 -0.68,-0.3 -0.94,-0.51 -0.26,-0.2 -0.47,-0.45 -0.6,-0.74 -0.15,-0.31 -0.22,-0.68 -0.22,-1.13 v -0.02 c 0,-0.41 0.08,-0.79 0.24,-1.11 0.15,-0.32 0.36,-0.62 0.64,-0.86 0.28,-0.24 0.61,-0.42 0.99,-0.55 0.39,-0.12 0.81,-0.2 1.27,-0.2 0.66,0 1.26,0.1 1.82,0.3 0.55,0.2 1.06,0.48 1.52,0.85 l -1.02,1.49 c -0.41,-0.28 -0.8,-0.49 -1.19,-0.65 -0.38,-0.16 -0.77,-0.24 -1.15,-0.24 -0.38,0 -0.68,0.07 -0.87,0.23 -0.19,0.15 -0.29,0.33 -0.29,0.57 v 0.02 c 0,0.14 0.03,0.27 0.08,0.37 0.06,0.11 0.16,0.2 0.31,0.29 0.14,0.08 0.34,0.16 0.59,0.24 0.26,0.08 0.58,0.16 0.96,0.26 0.46,0.12 0.87,0.26 1.22,0.4 0.37,0.15 0.66,0.33 0.91,0.54 0.23,0.21 0.42,0.45 0.55,0.74 0.12,0.28 0.19,0.62 0.19,1.02 v 0 c 0,0.46 -0.08,0.87 -0.25,1.21 -0.16,0.35 -0.39,0.64 -0.68,0.88 -0.29,0.24 -0.63,0.41 -1.03,0.54 -0.4,0.12 -0.85,0.18 -1.34,0.18 z"
             id="path73" />
          <path
             class="cls-14"
             d="m 121.8,113.99 h 1.98 v 9 h -1.98 z"
             id="path74" />
          <path
             class="cls-14"
             d="m 128.13,115.81 h -2.74 v -1.82 h 7.46 v 1.82 h -2.74 v 7.18 h -1.98 z"
             id="path75" />
          <path
             class="cls-14"
             d="m 137.45,113.94 h 1.83 l 3.85,9.05 h -2.06 l -0.82,-2.01 h -3.81 l -0.82,2.01 h -2.01 l 3.85,-9.05 z m 2.08,5.29 -1.19,-2.92 -1.2,2.92 h 2.4 z"
             id="path76" />
          <path
             class="cls-14"
             d="m 144.52,113.99 h 4.11 c 1.14,0 2.01,0.3 2.62,0.92 0.52,0.51 0.78,1.2 0.78,2.05 v 0.03 c 0,0.74 -0.18,1.32 -0.53,1.78 -0.36,0.46 -0.82,0.8 -1.4,1.01 l 2.19,3.21 h -2.3 l -1.94,-2.88 h -1.55 v 2.88 h -1.98 z m 3.99,4.38 c 0.49,0 0.86,-0.11 1.12,-0.35 0.26,-0.23 0.39,-0.53 0.39,-0.92 v -0.03 c 0,-0.42 -0.14,-0.74 -0.42,-0.96 -0.28,-0.22 -0.65,-0.33 -1.14,-0.33 h -1.97 v 2.6 h 2.01 z"
             id="path77" />
          <path
             class="cls-14"
             d="m 153.9,113.99 h 1.98 v 9 h -1.98 z"
             id="path78" />
          <path
             class="cls-14"
             d="m 162.51,123.14 c -0.7,0 -1.34,-0.12 -1.92,-0.36 -0.58,-0.25 -1.08,-0.58 -1.51,-0.99 -0.42,-0.42 -0.76,-0.91 -0.98,-1.47 -0.24,-0.56 -0.36,-1.16 -0.36,-1.81 v -0.02 c 0,-0.65 0.12,-1.25 0.36,-1.81 0.24,-0.56 0.57,-1.06 1,-1.49 0.42,-0.41 0.93,-0.76 1.51,-0.99 0.59,-0.25 1.23,-0.38 1.92,-0.38 0.69,0 1.32,0.13 1.91,0.38 0.59,0.24 1.09,0.56 1.51,0.98 0.42,0.42 0.76,0.91 0.99,1.47 0.23,0.56 0.35,1.16 0.35,1.8 v 0.03 c 0,0.64 -0.12,1.25 -0.36,1.8 -0.24,0.56 -0.57,1.05 -1,1.48 -0.42,0.43 -0.92,0.76 -1.51,1.01 -0.59,0.24 -1.23,0.36 -1.92,0.36 z m 0.02,-1.82 c 0.39,0 0.76,-0.07 1.08,-0.22 0.33,-0.14 0.62,-0.34 0.86,-0.6 0.23,-0.26 0.41,-0.56 0.56,-0.9 0.12,-0.34 0.2,-0.7 0.2,-1.08 v -0.02 c 0,-0.39 -0.07,-0.76 -0.2,-1.1 -0.15,-0.35 -0.33,-0.65 -0.58,-0.9 -0.24,-0.25 -0.53,-0.46 -0.86,-0.61 -0.35,-0.15 -0.7,-0.23 -1.1,-0.23 -0.4,0 -0.76,0.08 -1.1,0.22 -0.33,0.15 -0.62,0.35 -0.85,0.6 -0.24,0.26 -0.42,0.55 -0.55,0.9 -0.13,0.34 -0.2,0.7 -0.2,1.08 v 0.03 c 0,0.38 0.07,0.74 0.2,1.09 0.13,0.33 0.31,0.64 0.56,0.89 0.25,0.26 0.54,0.46 0.87,0.62 0.32,0.14 0.7,0.22 1.1,0.22 z"
             id="path79" />
          <path
             class="cls-14"
             d="m 172.91,113.99 h 3.51 c 0.71,0 1.35,0.12 1.94,0.34 0.59,0.24 1.09,0.55 1.51,0.95 0.43,0.41 0.76,0.88 0.99,1.43 0.23,0.54 0.35,1.13 0.35,1.76 v 0.03 c 0,0.63 -0.11,1.23 -0.35,1.76 -0.23,0.56 -0.56,1.03 -0.99,1.43 -0.42,0.4 -0.92,0.72 -1.51,0.95 -0.59,0.23 -1.24,0.35 -1.94,0.35 h -3.51 z m 3.51,7.22 c 0.41,0 0.78,-0.06 1.11,-0.19 0.34,-0.14 0.63,-0.32 0.86,-0.56 0.24,-0.23 0.42,-0.52 0.55,-0.84 0.13,-0.33 0.2,-0.69 0.2,-1.1 v -0.02 c 0,-0.4 -0.07,-0.76 -0.2,-1.1 -0.13,-0.34 -0.31,-0.62 -0.55,-0.86 -0.23,-0.24 -0.52,-0.44 -0.86,-0.57 -0.33,-0.12 -0.7,-0.2 -1.11,-0.2 h -1.53 v 5.44 z"
             id="path80" />
          <path
             class="cls-14"
             d="m 182.96,113.99 h 6.79 v 1.76 h -4.84 v 1.83 h 4.26 v 1.76 h -4.26 v 1.89 h 4.89 v 1.76 h -6.84 z"
             id="path81" />
          <path
             class="cls-14"
             d="m 197.53,115.81 h -2.73 v -1.82 h 7.45 v 1.82 h -2.74 v 7.18 h -1.98 z"
             id="path82" />
          <path
             class="cls-14"
             d="m 208.14,123.14 c -0.7,0 -1.34,-0.12 -1.92,-0.36 -0.59,-0.25 -1.09,-0.58 -1.51,-0.99 -0.42,-0.42 -0.75,-0.91 -0.99,-1.47 -0.24,-0.56 -0.35,-1.16 -0.35,-1.81 v -0.02 c 0,-0.65 0.11,-1.25 0.35,-1.81 0.25,-0.56 0.57,-1.06 1,-1.49 0.42,-0.41 0.92,-0.76 1.52,-0.99 0.58,-0.25 1.22,-0.38 1.91,-0.38 0.69,0 1.34,0.13 1.93,0.38 0.58,0.24 1.08,0.56 1.51,0.98 0.43,0.42 0.75,0.91 0.99,1.47 0.24,0.56 0.35,1.16 0.35,1.8 v 0.03 c 0,0.64 -0.12,1.25 -0.35,1.8 -0.24,0.56 -0.57,1.05 -0.99,1.48 -0.42,0.43 -0.93,0.76 -1.51,1.01 -0.6,0.24 -1.24,0.36 -1.92,0.36 z m 0.02,-1.82 c 0.4,0 0.77,-0.07 1.1,-0.22 0.34,-0.14 0.62,-0.34 0.86,-0.6 0.23,-0.26 0.42,-0.56 0.55,-0.9 0.13,-0.34 0.2,-0.7 0.2,-1.08 v -0.02 c 0,-0.39 -0.07,-0.76 -0.2,-1.1 -0.13,-0.35 -0.32,-0.65 -0.56,-0.9 -0.24,-0.25 -0.54,-0.46 -0.87,-0.61 -0.33,-0.15 -0.7,-0.23 -1.08,-0.23 -0.38,0 -0.78,0.08 -1.11,0.22 -0.33,0.15 -0.61,0.35 -0.85,0.6 -0.23,0.26 -0.42,0.55 -0.56,0.9 -0.13,0.34 -0.2,0.7 -0.2,1.08 v 0.03 c 0,0.38 0.08,0.74 0.2,1.09 0.14,0.33 0.32,0.64 0.57,0.89 0.25,0.26 0.54,0.46 0.87,0.62 0.32,0.14 0.69,0.22 1.09,0.22 z"
             id="path83" />
          <path
             class="cls-14"
             d="m 214.69,113.99 h 1.83 l 4.21,5.54 v -5.54 h 1.96 v 9 H 221 l -4.35,-5.72 v 5.72 h -1.96 z"
             id="path84" />
          <path
             class="cls-14"
             d="m 227.94,113.94 h 1.82 l 3.86,9.05 h -2.07 l -0.82,-2.01 h -3.81 l -0.82,2.01 h -2.02 l 3.87,-9.05 z m 2.09,5.29 -1.2,-2.92 -1.2,2.92 z"
             id="path85" />
          <path
             class="cls-14"
             d="m 235,113.99 h 1.98 v 7.22 h 4.49 v 1.78 H 235 Z"
             id="path86" />
          <path
             class="cls-14"
             d="m 246.05,113.94 h 1.83 l 3.86,9.05 h -2.07 l -0.82,-2.01 h -3.81 l -0.82,2.01 h -2.02 l 3.86,-9.05 z m 2.07,5.29 -1.19,-2.92 -1.2,2.92 h 2.38 z m -0.53,-8.22 1.69,0.73 -1.65,1.54 h -1.49 l 1.46,-2.27 z"
             id="path87" />
        </g>
        <g
           id="g112">
          <path
             class="cls-19"
             d="m 170.47,19.6 v 40.05 c 0,23.19 -18.8,41.99 -41.98,41.99 V 61.58 c 0,-23.18 18.79,-41.98 41.98,-41.98 z"
             id="path88" />
          <g
             class="cls-12"
             clip-path="url(#clippath-1)"
             id="g103">
            <path
               class="cls-19"
               d="m 84.12,19.6 v 40.05 c 0,23.19 18.78,41.99 41.98,41.99 V 61.58 C 126.1,38.4 107.3,19.6 84.12,19.6 Z"
               id="path89" />
            <path
               class="cls-19"
               d="m 84.12,19.6 c 0,0 21.3,7.48 22.53,38.91 1.23,31.43 19.45,43.13 19.45,43.13 V 61.58 C 126.1,38.4 107.3,19.6 84.12,19.6 Z"
               id="path90" />
            <g
               class="cls-9"
               id="g102">
              <path
                 class="cls-11"
                 d="m 103.22,103.26 c 0,-0.47 0.33,-0.86 0.76,-0.99 V 89.05 l 3.26,-3.01 v -4.18 l -3.15,-4.39 V 59.21 l -5.2,-5.2 V 38.94 c -0.43,-0.12 -0.75,-0.53 -0.75,-1 0,-0.27 0.11,-0.53 0.3,-0.72 0.2,-0.19 0.45,-0.3 0.72,-0.3 0.57,0 1.03,0.47 1.03,1.03 v 0 c 0,0.47 -0.32,0.87 -0.75,1 v 14.84 l 5.21,5.21 v 18.26 l 3.14,4.37 v 4.65 l -3.25,3.01 v 12.99 c 0.44,0.12 0.75,0.52 0.75,1 0,0.26 -0.1,0.53 -0.29,0.72 -0.2,0.2 -0.45,0.3 -0.72,0.3 -0.28,0 -0.54,-0.11 -0.74,-0.3 -0.19,-0.19 -0.3,-0.46 -0.3,-0.73 z"
                 id="path91" />
              <path
                 class="cls-11"
                 d="m 89.8,78.98 c 0,-0.57 0.47,-1.03 1.03,-1.02 0.56,0 1.02,0.46 1.02,1.02 v 0 c 0,0.19 -0.05,0.36 -0.13,0.51 l 3.16,3.16 v 6.13 l 3.62,3.61 v 4.57 c 0.43,0.11 0.75,0.51 0.75,0.98 v 0 c 0,0.28 -0.11,0.53 -0.31,0.73 -0.19,0.19 -0.45,0.3 -0.72,0.3 -0.27,0 -0.54,-0.11 -0.73,-0.3 -0.19,-0.2 -0.3,-0.45 -0.3,-0.73 0,-0.47 0.31,-0.87 0.75,-0.98 V 92.62 L 94.32,89 v -6.12 l -3,-3 C 91.17,79.96 91,80 90.82,80 90.25,80 89.79,79.55 89.79,78.98 Z"
                 id="path92" />
              <path
                 class="cls-11"
                 d="m 105.54,91.86 c 0,-0.57 0.46,-1.03 1.02,-1.03 0.56,0 1.02,0.46 1.02,1.03 v 0 c 0,0.18 -0.05,0.35 -0.13,0.5 l 3.16,3.16 v 6.12 l 3.62,3.62 v 4.56 c 0.43,0.12 0.75,0.52 0.75,0.99 v 0 c 0,0.27 -0.11,0.53 -0.3,0.73 -0.19,0.19 -0.45,0.3 -0.73,0.3 -0.28,0 -0.53,-0.11 -0.72,-0.3 -0.2,-0.2 -0.3,-0.46 -0.3,-0.73 0,-0.47 0.32,-0.87 0.75,-0.99 v -4.33 l -3.62,-3.62 v -6.13 l -3,-3 c -0.15,0.09 -0.33,0.14 -0.51,0.14 -0.56,0 -1.02,-0.47 -1.02,-1.03 z"
                 id="path93" />
              <path
                 class="cls-11"
                 d="m 84.91,41.9 c 0,-0.56 0.46,-1.02 1.03,-1.02 0.57,0 1.03,0.46 1.03,1.02 v 0 c 0,0.18 -0.05,0.36 -0.14,0.5 l 1.86,1.89 v 6.12 l 3.61,3.63 v 4.56 c 0.44,0.11 0.76,0.51 0.76,0.98 v 0 c 0,0.27 -0.11,0.53 -0.3,0.73 -0.19,0.19 -0.45,0.3 -0.72,0.3 -0.27,0 -0.53,-0.11 -0.73,-0.3 C 91.1,60.11 91,59.85 91,59.58 91,59.11 91.33,58.7 91.76,58.6 v -4.34 l -3.62,-3.62 v -6.12 l -1.7,-1.72 c -0.15,0.08 -0.32,0.13 -0.51,0.13 -0.57,0 -1.03,-0.46 -1.03,-1.03 z"
                 id="path94" />
              <path
                 class="cls-11"
                 d="m 87.03,61.54 c -0.27,0 -0.53,0.1 -0.72,0.29 -0.19,0.2 -0.3,0.45 -0.3,0.73 0,0.28 0.11,0.52 0.3,0.72 0.13,0.14 0.28,0.22 0.45,0.26 v 1.71 l -0.03,0.03 0.03,0.02 v 4.32 c -0.44,0.12 -0.75,0.52 -0.75,0.98 0,0.28 0.11,0.54 0.3,0.73 0.19,0.2 0.45,0.3 0.72,0.3 0.57,0 1.03,-0.46 1.03,-1.03 v 0 c 0,-0.46 -0.32,-0.86 -0.76,-0.98 v -3.87 l 2.55,2.03 c -0.03,0.1 -0.06,0.2 -0.06,0.32 0,0.27 0.11,0.53 0.3,0.72 0.2,0.19 0.46,0.31 0.73,0.31 0.27,0 0.53,-0.12 0.72,-0.31 0.19,-0.19 0.3,-0.45 0.3,-0.72 0,-0.57 -0.46,-1.03 -1.02,-1.03 -0.26,0 -0.49,0.1 -0.67,0.26 L 87.3,65.05 v -1.5 c 0.17,-0.04 0.32,-0.13 0.46,-0.26 0.19,-0.2 0.3,-0.44 0.3,-0.72 v 0 c 0,-0.57 -0.46,-1.02 -1.03,-1.02 z m 0.86,9.07 z"
                 id="path95" />
              <path
                 class="cls-11"
                 d="m 101,81.37 c 0,0.47 -0.31,0.86 -0.74,0.99 v 1.05 c 0.17,0.05 0.33,0.13 0.44,0.26 0.2,0.19 0.3,0.45 0.3,0.72 v 0 c 0,0.28 -0.09,0.53 -0.3,0.73 -0.19,0.19 -0.44,0.29 -0.72,0.29 -0.57,0 -1.03,-0.46 -1.03,-1.03 0,-0.27 0.11,-0.53 0.3,-0.72 0.12,-0.13 0.28,-0.21 0.45,-0.26 v -1.05 c -0.44,-0.13 -0.76,-0.52 -0.76,-0.99 0,-0.57 0.46,-1.03 1.03,-1.03 0.57,0 1.01,0.46 1.01,1.03 v 0 z"
                 id="path96" />
              <path
                 class="cls-11"
                 d="m 89.72,60.17 v 0 c 0,0.17 -0.04,0.33 -0.11,0.46 l 4.05,4.05 v 8.49 c 0.17,0.04 0.32,0.13 0.45,0.26 0.2,0.19 0.3,0.45 0.3,0.72 h -0.17 0.17 c 0,0.57 -0.46,1.03 -1.03,1.03 -0.57,0 -1.03,-0.46 -1.03,-1.03 0,-0.47 0.32,-0.87 0.76,-0.98 V 64.9 l -3.88,-3.87 c -0.15,0.09 -0.33,0.16 -0.53,0.16 -0.57,0 -1.03,-0.46 -1.03,-1.03 0,-0.28 0.11,-0.54 0.3,-0.73 0.19,-0.2 0.45,-0.3 0.73,-0.3 0.57,0 1.02,0.45 1.02,1.03 z"
                 id="path97" />
              <path
                 class="cls-11"
                 d="m 81.99,29.02 v 0 c 0,0.17 -0.05,0.33 -0.13,0.46 l 9.74,9.86 v 8.49 c 0.17,0.05 0.33,0.13 0.45,0.27 0.2,0.18 0.3,0.45 0.3,0.72 h -0.16 0.16 c 0,0.57 -0.45,1.03 -1.01,1.03 -0.56,0 -1.04,-0.46 -1.04,-1.03 0,-0.48 0.32,-0.87 0.76,-0.99 V 39.57 L 81.5,29.88 c -0.16,0.1 -0.34,0.16 -0.54,0.16 -0.56,0 -1.02,-0.46 -1.02,-1.03 0,-0.28 0.1,-0.53 0.29,-0.73 0.19,-0.19 0.45,-0.3 0.73,-0.3 0.57,0 1.03,0.46 1.03,1.03 z"
                 id="path98" />
              <path
                 class="cls-11"
                 d="m 110.31,88.82 v 0 c 0,0.17 -0.05,0.33 -0.12,0.48 l 4.05,4.04 v 8.49 c 0.17,0.04 0.32,0.13 0.45,0.27 0.19,0.19 0.3,0.44 0.3,0.72 h -0.17 0.17 c 0,0.56 -0.46,1.02 -1.03,1.02 -0.57,0 -1.02,-0.47 -1.02,-1.02 0,-0.47 0.32,-0.87 0.75,-0.99 v -8.27 l -3.87,-3.87 c -0.15,0.09 -0.35,0.16 -0.54,0.16 -0.57,0 -1.03,-0.46 -1.03,-1.03 0,-0.28 0.11,-0.53 0.31,-0.72 0.19,-0.19 0.45,-0.3 0.73,-0.3 0.57,0 1.03,0.45 1.03,1.02 z"
                 id="path99" />
              <path
                 class="cls-11"
                 d="m 94.15,40.69 v 18.49 l 3.06,3.06 v 12.53 c 0.36,0.15 0.61,0.51 0.61,0.94 0,0.27 -0.11,0.53 -0.3,0.72 -0.2,0.2 -0.45,0.31 -0.72,0.31 -0.27,0 -0.53,-0.11 -0.73,-0.31 -0.19,-0.2 -0.3,-0.45 -0.3,-0.72 0,-0.52 0.39,-0.96 0.9,-1.01 V 62.47 L 93.61,59.4 V 40.69 c -0.17,-0.05 -0.32,-0.13 -0.46,-0.27 -0.2,-0.19 -0.3,-0.44 -0.3,-0.72 0,-0.28 0.11,-0.54 0.3,-0.73 0.2,-0.19 0.46,-0.3 0.72,-0.3 0.26,0 0.54,0.11 0.73,0.3 0.2,0.19 0.3,0.45 0.3,0.73 h -0.16 0.16 c 0,0.48 -0.32,0.86 -0.75,0.99 z"
                 id="path100" />
              <path
                 class="cls-11"
                 d="m 96.71,38.11 v 18.63 l 3.99,3.99 v 17.43 l 3.08,3.08 v 3.14 l -2.26,2.27 v 12.67 c 0.43,0.12 0.74,0.51 0.74,0.98 0,0.28 -0.1,0.55 -0.3,0.73 -0.19,0.2 -0.44,0.3 -0.72,0.3 -0.28,0 -0.53,-0.11 -0.73,-0.3 -0.2,-0.19 -0.3,-0.45 -0.3,-0.73 0,-0.47 0.33,-0.86 0.76,-0.98 v -9.44 c -0.12,0.43 -0.52,0.75 -0.99,0.75 -0.57,0 -1.03,-0.47 -1.03,-1.03 0,-0.18 0.05,-0.36 0.13,-0.5 L 96.51,86.53 V 81.09 L 89.5,74.07 c 0,0 -0.1,0.01 -0.14,0.01 -0.56,0 -1.02,-0.46 -1.02,-1.03 0,-0.57 0.46,-1.03 1.02,-1.03 0.56,0 1.03,0.46 1.03,1.03 v 0 c 0,0.32 -0.13,0.59 -0.35,0.78 l 7.03,7.03 v 5.44 l 2.41,2.41 c 0.16,-0.09 0.33,-0.14 0.51,-0.14 0.47,0 0.87,0.32 0.99,0.75 v -2.9 l 2.27,-2.28 v -2.69 l -3.08,-3.08 V 60.94 L 96.18,56.95 V 38.09 c -0.44,-0.12 -0.75,-0.52 -0.75,-0.99 0,-0.56 0.45,-1.02 1.02,-1.02 0.57,0 1.03,0.46 1.03,1.02 0,0.47 -0.32,0.87 -0.76,0.99 z"
                 id="path101" />
              <path
                 class="cls-11"
                 d="m 73.97,58.56 v 0 c 0.17,0 0.32,0.04 0.47,0.12 l 4.05,-4.04 h 8.49 c 0.05,-0.18 0.13,-0.33 0.26,-0.46 0.19,-0.19 0.45,-0.3 0.72,-0.3 v 0.17 -0.17 c 0.57,0 1.04,0.46 1.04,1.03 0,0.57 -0.47,1.03 -1.04,1.03 -0.47,0 -0.87,-0.31 -0.98,-0.74 h -8.27 l -3.88,3.86 c 0.1,0.16 0.16,0.35 0.16,0.55 0,0.56 -0.47,1.03 -1.03,1.03 -0.28,0 -0.54,-0.11 -0.73,-0.3 -0.19,-0.2 -0.31,-0.46 -0.31,-0.73 0,-0.57 0.47,-1.03 1.03,-1.03 z"
                 id="path102" />
            </g>
          </g>
          <path
             class="cls-2"
             d="m 84.12,19.6 c 0,0 21.3,7.48 22.53,38.91"
             id="path103"
             style="stroke:url(#radialGradient118)" />
          <path
             class="cls-16"
             d="m 129.39,99.49 c 0.33,-0.29 0.7,-0.6 1.12,-0.96 0.4,-0.38 0.84,-0.8 1.33,-1.25 0.47,-0.47 0.97,-1 1.5,-1.56 0.52,-0.57 1.04,-1.21 1.61,-1.87 0.56,-0.67 1.08,-1.43 1.66,-2.19 1.11,-1.56 2.24,-3.29 3.29,-5.23 0,-0.02 0.02,-0.03 0.03,-0.05 -9.47,-13.54 -6.49,-26.94 -6.49,-26.94 -0.48,14.46 6.25,23.91 7.34,25.33 0.21,-0.44 0.42,-0.89 0.65,-1.35 0.24,-0.53 0.36,-0.64 0.59,-1.2 0.05,-0.11 0.1,-0.25 0.15,-0.38 0.35,-0.81 0.66,-1.67 0.66,-1.67 0.22,-0.56 0.44,-1.11 0.66,-1.69 0.22,-0.57 0.38,-1.17 0.58,-1.75 0.18,-0.6 0.37,-1.19 0.56,-1.79 l 0.28,-0.89 c 0.09,-0.31 0.15,-0.61 0.23,-0.92 0.29,-1.23 0.59,-2.48 0.88,-3.73 0.23,-1.26 0.4,-2.53 0.62,-3.79 0.03,-0.12 0.05,-0.24 0.06,-0.37 -13.96,-9.3 -6.26,-22.43 -6.26,-22.43 -4.9,13.15 4.48,19.58 6.49,20.77 0.05,-0.62 0.11,-1.21 0.15,-1.82 0.12,-1.3 0.23,-2.57 0.33,-3.84 0.04,-0.54 0.07,-1.08 0.11,-1.61 v 0.04 -0.07 0.03 l 0.06,-0.68 v 0.02 -0.27 c 0,0 0,0.25 0,0.25 0.05,-0.52 0.09,-1.03 0.17,-1.53 0.12,-1.26 0.34,-2.5 0.54,-3.71 0.46,-2.41 0.99,-4.74 1.71,-6.87 0.08,-0.26 0.19,-0.57 0.29,-0.87 -3.85,-7.02 0.6,-10.79 0.6,-10.79 -3.55,4 -0.29,9.91 -0.29,9.91 0.17,-0.44 0.28,-0.76 0.28,-0.76 l 0.35,-0.86 c 0,0 0.7,-1.69 1.12,-2.52 0.2,-0.45 0.42,-0.88 0.65,-1.29 0.22,-0.42 0.44,-0.83 0.65,-1.21 0.46,-0.76 0.87,-1.51 1.32,-2.16 0.22,-0.34 0.43,-0.65 0.64,-0.98 0.21,-0.29 0.43,-0.59 0.63,-0.87 0.39,-0.56 0.81,-1.04 1.16,-1.5 0.73,-0.88 1.31,-1.56 1.74,-2 0.43,-0.44 0.65,-0.68 0.65,-0.68 l 0.09,0.09 c 5.4,-5.6 10.58,-7.44 10.58,-7.44 -23.18,0 -41.98,18.8 -41.98,41.98 v 38.61 c 0,0 0.03,-0.03 0.05,-0.03 0.24,-0.19 0.52,-0.4 0.85,-0.66 z"
             id="path104" />
          <g
             id="g106">
            <path
               class="cls-7"
               d="M 147.59,55.65 V 55.38 Z"
               id="path105"
               style="fill:url(#linearGradient118)" />
            <path
               class="cls-6"
               d="m 162.21,70.63 c -9.48,15.28 -18.76,14.69 -19.63,14.61 0.16,-0.35 0.32,-0.7 0.48,-1.07 0.24,-0.54 0.51,-1.08 0.72,-1.64 0.2,-0.57 0.42,-1.16 0.63,-1.72 0.22,-0.59 0.43,-1.17 0.65,-1.77 0.2,-0.59 0.36,-1.2 0.55,-1.82 0.17,-0.61 0.34,-1.22 0.52,-1.84 l 0.27,-0.93 c 0.08,-0.3 0.13,-0.63 0.21,-0.94 0.27,-1.27 0.53,-2.55 0.8,-3.82 0.02,-0.1 0.03,-0.2 0.05,-0.3 v 0 l 0.26,-1.79 c 0.07,-0.61 0.15,-1.22 0.24,-1.83 14.79,-8.3 12.2,-20.58 12.2,-20.58 0.1,13.31 -11.97,18.62 -11.97,18.62 0.04,-0.65 0.08,-1.3 0.11,-1.94 0.08,-1.3 0.15,-2.59 0.24,-3.88 0.06,-1.26 0.1,-2.53 0.23,-3.77 0.09,-1.25 0.28,-2.46 0.45,-3.66 0.21,-1.25 0.64,-3.34 0.64,-3.34 l 0.17,-0.76 c 0.21,-0.92 0.44,-1.84 0.71,-2.71 0.11,-0.37 0.23,-0.72 0.34,-1.08 6.88,-2.03 8.82,-7.79 8.82,-7.79 -3.46,5.73 -8.47,6.89 -8.52,6.91 0.47,-1.38 0.98,-2.69 1.54,-3.89 0.18,-0.46 0.38,-0.88 0.6,-1.28 0.21,-0.42 0.42,-0.83 0.62,-1.22 0.44,-0.76 0.82,-1.52 1.25,-2.18 0.21,-0.33 0.41,-0.66 0.61,-0.97 0.21,-0.31 0.41,-0.59 0.6,-0.87 0.38,-0.57 0.78,-1.06 1.11,-1.52 0.69,-0.89 1.27,-1.57 1.68,-2.02 0.41,-0.45 0.63,-0.7 0.63,-0.7 l -0.19,-0.17 c 0,0 -0.22,0.24 -0.65,0.68 -0.42,0.43 -1.01,1.12 -1.74,2 -0.35,0.46 -0.77,0.94 -1.16,1.5 -0.2,0.28 -0.42,0.57 -0.63,0.87 -0.21,0.32 -0.42,0.64 -0.64,0.98 -0.45,0.66 -0.86,1.4 -1.32,2.16 -0.22,0.39 -0.44,0.8 -0.65,1.21 -0.24,0.4 -0.45,0.84 -0.65,1.29 -0.41,0.83 -1.12,2.52 -1.12,2.52 l -0.35,0.86 c 0,0 -0.12,0.33 -0.28,0.76 0,0 -3.25,-5.92 0.29,-9.91 0,0 -4.45,3.77 -0.6,10.79 v 0 c -0.1,0.3 -0.21,0.61 -0.29,0.87 -0.71,2.14 -1.25,4.46 -1.71,6.87 -0.2,1.21 -0.42,2.45 -0.54,3.71 -0.07,0.51 -0.12,1.01 -0.17,1.53 l -0.06,0.68 c -0.04,0.53 -0.07,1.07 -0.11,1.61 -0.11,1.28 -0.22,2.55 -0.33,3.84 -0.05,0.61 -0.1,1.21 -0.15,1.82 -2.01,-1.19 -11.39,-7.62 -6.49,-20.77 0,0 -7.7,13.13 6.26,22.43 -0.01,0.12 -0.03,0.25 -0.06,0.37 -0.21,1.26 -0.39,2.53 -0.62,3.79 -0.29,1.25 -0.59,2.5 -0.88,3.73 -0.08,0.31 -0.14,0.61 -0.23,0.92 l -0.28,0.89 c -0.19,0.6 -0.38,1.19 -0.56,1.79 -0.19,0.58 -0.35,1.18 -0.58,1.75 -0.22,0.57 -0.45,1.13 -0.66,1.69 0,0 -0.3,0.86 -0.66,1.67 -0.05,0.13 -0.1,0.26 -0.15,0.38 -0.23,0.56 -0.35,0.68 -0.59,1.2 -0.23,0.46 -0.44,0.91 -0.65,1.35 -1.09,-1.42 -7.81,-10.86 -7.34,-25.33 0,0 -2.98,13.41 6.49,26.94 0,0.02 -0.02,0.04 -0.03,0.05 -1.05,1.93 -2.18,3.66 -3.29,5.23 -0.59,0.75 -1.11,1.52 -1.66,2.19 -0.57,0.65 -1.09,1.3 -1.61,1.87 -0.54,0.56 -1.03,1.08 -1.5,1.56 -0.49,0.45 -0.93,0.87 -1.33,1.25 -0.42,0.35 -0.78,0.67 -1.12,0.96 -0.33,0.26 -0.62,0.47 -0.85,0.66 -0.02,0 -0.03,0.02 -0.05,0.03 v 1.45 c 0.68,0 1.34,-0.03 2,-0.06 0.12,-0.1 0.24,-0.19 0.38,-0.31 0.34,-0.29 0.73,-0.65 1.17,-1.05 0.42,-0.41 0.88,-0.86 1.38,-1.36 0.48,-0.5 0.99,-1.08 1.54,-1.68 0.53,-0.62 1.06,-1.3 1.64,-2 0.56,-0.72 1.09,-1.5 1.67,-2.32 1.09,-1.62 2.18,-3.41 3.21,-5.37 15.33,-1.49 20.72,-16.85 20.72,-16.85 z"
               id="path106"
               style="fill:url(#linear-gradient-2)" />
          </g>
          <path
             class="cls-8"
             d="m 133.9,100.18 c 0,0 6.62,-5.92 8.32,-11.83 0,0 11.68,0.07 21.43,-16.93 0,0 0,24.17 -29.75,28.75 z"
             id="path107"
             style="fill:url(#linearGradient119)" />
          <path
             class="cls-10"
             d="m 145.28,83.05 c 0,0 3.77,-10.31 4.09,-16.42 0,0 13.37,-7.57 12.98,-20.87 0,0 4.73,8.31 4.54,14.12 -0.2,5.81 -13.93,23.16 -21.61,23.16 z"
             id="path108"
             style="fill:url(#linear-gradient-4)" />
          <path
             class="cls-15"
             d="m 129.71,96.79 c 0,0 5.7,-4.15 8.81,-10.36 0,0 -7.17,-10.71 -6.57,-22.53 h -2.66 l 0.43,32.89 z"
             id="path109"
             style="fill:url(#linearGradient120)" />
          <path
             class="cls-17"
             d="m 140.84,82.33 c 0,0 3.69,-9.16 4.5,-16.66 0,0 -10.03,-4.64 -7.26,-19.91 0,0 -10.25,18.62 2.76,36.56 z"
             id="path110"
             style="fill:url(#linear-gradient-6)" />
          <path
             class="cls-18"
             d="m 146.16,61.53 c 0,0 1.16,-14.92 3.32,-18.62 0,0 -3.32,-5.12 -0.77,-10.15 0,0 -18.23,17.05 -2.55,28.77 z"
             id="path111"
             style="fill:url(#linear-gradient-7)" />
          <path
             class="cls-4"
             d="m 147.94,58.5 c -1.23,31.43 -19.44,43.13 -19.44,43.13"
             id="path112"
             style="stroke:url(#radial-gradient-4)" />
        </g>
      </g>
    </g>
  </g>
</svg>
