<?xml version="1.0" encoding="UTF-8" standalone="no"?>
<svg
   id="Capa_1"
   viewBox="0 0 249.99999 249.99999"
   version="1.1"
   sodipodi:docname="Dha.svg"
   width="250"
   height="250"
   inkscape:version="1.3.2 (091e20e, 2023-11-25, custom)"
   xmlns:inkscape="http://www.inkscape.org/namespaces/inkscape"
   xmlns:sodipodi="http://sodipodi.sourceforge.net/DTD/sodipodi-0.dtd"
   xmlns="http://www.w3.org/2000/svg"
   xmlns:svg="http://www.w3.org/2000/svg">
  <sodipodi:namedview
     id="namedview19"
     pagecolor="#505050"
     bordercolor="#eeeeee"
     borderopacity="1"
     inkscape:showpageshadow="0"
     inkscape:pageopacity="0"
     inkscape:pagecheckerboard="0"
     inkscape:deskcolor="#505050"
     inkscape:zoom="2.4113318"
     inkscape:cx="111.34925"
     inkscape:cy="117.56988"
     inkscape:window-width="1920"
     inkscape:window-height="991"
     inkscape:window-x="-9"
     inkscape:window-y="-9"
     inkscape:window-maximized="1"
     inkscape:current-layer="Capa_1" />
  <defs
     id="defs2">
    <style
       id="style1">
      .cls-1 {
        letter-spacing: 0em;
      }

      .cls-2 {
        font-size: 13.49px;
      }

      .cls-3 {
        letter-spacing: -.07em;
      }

      .cls-4 {
        letter-spacing: 0em;
      }

      .cls-5, .cls-6, .cls-7 {
        fill: #fff;
      }

      .cls-8 {
        filter: url(#drop-shadow-1);
      }

      .cls-9 {
        font-size: 18.61px;
      }

      .cls-10 {
        letter-spacing: 0em;
      }

      .cls-11 {
        letter-spacing: -.04em;
      }

      .cls-12 {
        letter-spacing: -.04em;
      }

      .cls-13 {
        letter-spacing: -.07em;
      }

      .cls-6 {
        font-family: TimesNewRomanPS-BoldMT, 'Times New Roman';
        font-weight: 700;
      }

      .cls-14 {
        letter-spacing: -.03em;
      }

      .cls-15 {
        letter-spacing: -.01em;
      }

      .cls-7 {
        opacity: .7;
      }

      .cls-16 {
        letter-spacing: -.06em;
      }

      .cls-17 {
        clip-path: url(#clippath);
      }
    </style>
    <filter
       id="drop-shadow-1"
       x="22.98"
       y="-8.1099997"
       width="185.14"
       height="188.48"
       filterUnits="userSpaceOnUse">
      <feOffset
         dx="1.01"
         dy="1.01"
         id="feOffset1" />
      <feGaussianBlur
         result="blur"
         stdDeviation=".51"
         id="feGaussianBlur1" />
      <feFlood
         flood-color="#1d1d1b"
         flood-opacity=".2"
         id="feFlood1" />
      <feComposite
         in2="blur"
         operator="in"
         id="feComposite1" />
      <feComposite
         in="SourceGraphic"
         id="feComposite2" />
    </filter>
    <clipPath
       id="clippath">
      <path
         class="cls-5"
         d="m 181.05,154.07 c 0,6.89 1.33,9.28 16.44,11.4 1.59,0.27 2.65,2.12 2.65,4.51 0,1.06 -0.27,3.71 -0.53,5.04 -11.4,-0.53 -25.19,-1.33 -35,-1.33 -9.81,0 -24.13,0.8 -35.53,1.33 -0.53,-1.33 -0.53,-3.98 -0.53,-5.04 0,-2.39 0.8,-4.24 2.65,-4.51 14.85,-2.12 16.44,-4.51 16.44,-11.4 V 91.75 h -71.6 v 62.32 c 0,6.89 1.33,9.28 16.44,11.4 1.59,0.27 2.65,2.12 2.65,4.51 0,1.06 -0.27,3.71 -0.53,5.04 -11.4,-0.53 -25.72,-1.33 -35.53,-1.33 -9.81,0 -23.6,0.8 -35,1.33 -0.53,-1.33 -0.53,-3.98 -0.53,-5.04 0,-2.39 0.8,-4.24 2.65,-4.51 14.85,-2.12 16.44,-4.51 16.44,-11.4 V 21.22 c 0,-6.9 -1.59,-9.28 -16.44,-11.4 -1.86,-0.53 -2.65,-2.39 -2.65,-4.51 0,-1.06 0,-3.71 0.53,-5.3 11.4,0.8 25.19,1.33 35,1.33 9.81,0 41.37,-0.53 52.77,-1.33 0.54,1.46 0.4,4.18 0.4,5.24 0,2.12 -1.9,4.04 -3.49,4.57 -15.12,2.12 -32.71,4.51 -32.71,11.4 V 77.7 h 71.6 V 21.22 c 0,-6.9 -16.99,-9.28 -31.84,-11.4 -1.86,-0.53 -4.04,-2.39 -4.04,-4.51 0,-1.06 -0.45,-3.71 0.08,-5.3 11.4,0.8 42.69,1.33 52.77,1.33 10.08,0 23.6,-0.53 35,-1.33 0.27,1.59 0.53,4.24 0.53,5.3 0,2.12 -1.06,3.98 -2.65,4.51 -15.12,2.12 -16.44,4.51 -16.44,11.4 v 132.86 z"
         id="path2" />
    </clipPath>
  </defs>
  <g
     id="g19"
     transform="matrix(1.1114211,0,0,1.1195391,0.37117209,-0.00119541)">
    <path
       class="cls-5"
       d="m 181.05,154.07 c 0,6.89 1.33,9.28 16.44,11.4 1.59,0.27 2.65,2.12 2.65,4.51 0,1.06 -0.27,3.71 -0.53,5.04 -11.4,-0.53 -25.19,-1.33 -35,-1.33 -9.81,0 -24.13,0.8 -35.53,1.33 -0.53,-1.33 -0.53,-3.98 -0.53,-5.04 0,-2.39 0.8,-4.24 2.65,-4.51 14.85,-2.12 16.44,-4.51 16.44,-11.4 V 91.75 h -71.6 v 62.32 c 0,6.89 1.33,9.28 16.44,11.4 1.59,0.27 2.65,2.12 2.65,4.51 0,1.06 -0.27,3.71 -0.53,5.04 -11.4,-0.53 -25.72,-1.33 -35.53,-1.33 -9.81,0 -23.6,0.8 -35,1.33 -0.53,-1.33 -0.53,-3.98 -0.53,-5.04 0,-2.39 0.8,-4.24 2.65,-4.51 14.85,-2.12 16.44,-4.51 16.44,-11.4 V 21.22 c 0,-6.9 -1.59,-9.28 -16.44,-11.4 -1.86,-0.53 -2.65,-2.39 -2.65,-4.51 0,-1.06 0,-3.71 0.53,-5.3 11.4,0.8 25.19,1.33 35,1.33 9.81,0 41.37,-0.53 52.77,-1.33 0.54,1.46 0.4,4.18 0.4,5.24 0,2.12 -1.9,4.04 -3.49,4.57 -15.12,2.12 -32.71,4.51 -32.71,11.4 V 77.7 h 71.6 V 21.22 c 0,-6.9 -16.99,-9.28 -31.84,-11.4 -1.86,-0.53 -4.04,-2.39 -4.04,-4.51 0,-1.06 -0.45,-3.71 0.08,-5.3 11.4,0.8 42.69,1.33 52.77,1.33 10.08,0 23.6,-0.53 35,-1.33 0.27,1.59 0.53,4.24 0.53,5.3 0,2.12 -1.06,3.98 -2.65,4.51 -15.12,2.12 -16.44,4.51 -16.44,11.4 v 132.86 z"
       id="path3" />
    <text
       class="cls-6"
       id="text19"
       x="48.5"
       y="206.00999"><tspan
         class="cls-2"
         id="tspan12"><tspan
           class="cls-4"
           x="48.5"
           y="206.00999"
           id="tspan4">DE</tspan><tspan
           class="cls-13"
           x="67.379997"
           y="206.00999"
           id="tspan5">P</tspan><tspan
           class="cls-4"
           x="74.690002"
           y="206.00999"
           id="tspan6">A</tspan><tspan
           class="cls-14"
           x="84.5"
           y="206.00999"
           id="tspan7">R</tspan><tspan
           class="cls-3"
           x="93.839996"
           y="206.00999"
           id="tspan8">T</tspan><tspan
           class="cls-10"
           x="101.9"
           y="206.00999"
           id="tspan9">AMEN</tspan><tspan
           class="cls-15"
           x="143.39999"
           y="206.00999"
           id="tspan10">T</tspan><tspan
           class="cls-4"
           x="152.22"
           y="206.00999"
           id="tspan11">O Ð</tspan></tspan><tspan
         class="cls-9"
         id="tspan19"><tspan
           x="0"
           y="221.75"
           id="tspan13">HUMANIDADES</tspan><tspan
           class="cls-12"
           x="142.70999"
           y="221.75"
           xml:space="preserve"
           id="tspan14"> Y</tspan><tspan
           class="cls-16"
           x="159.42999"
           y="221.75"
           id="tspan15" /><tspan
           class="cls-1"
           x="163.05"
           y="221.75"
           id="tspan16">A</tspan><tspan
           class="cls-11"
           x="176.48999"
           y="221.75"
           id="tspan17">R</tspan><tspan
           x="189.28"
           y="221.75"
           id="tspan18">TES</tspan></tspan></text>
  </g>
</svg>
