<?xml version="1.0" encoding="UTF-8"?>
<svg id="Capa_1" xmlns="http://www.w3.org/2000/svg" xmlns:xlink="http://www.w3.org/1999/xlink" viewBox="0 0 244.96 120.16">
  <defs>
    <style>
      .cls-1 {
        fill: #fff;
      }

      .cls-2 {
        clip-path: url(#clippath);
      }
    </style>
    <clipPath id="clippath">
      <path class="cls-1" d="M69.69,96.01c.86-.18,1.53-.79,1.82-1.55-.33.74-1.03,1.36-1.82,1.55ZM71.71,44.5v48.98c0,.34-.06.68-.2.97-.33.74-1.03,1.36-1.82,1.55-.19.02-.36.05-.55.05H2.57c-1.49,0-2.57-1.22-2.57-2.57V3.92C0,2.56,1.08,1.34,2.57,1.34h12.45c1.36,0,2.57,1.22,2.57,2.58v75.9h37.75v-35.32c0-1.49,1.23-2.57,2.58-2.57h11.23c1.36,0,2.57,1.08,2.57,2.57ZM54.13,10.69c0-5.14,4.06-9.34,9.2-9.34s9.47,4.2,9.47,9.34-4.2,9.34-9.47,9.34-9.2-4.2-9.2-9.34ZM81.15,3.92c0-1.36,1.09-2.57,2.43-2.57h32.07c26.11,0,47.49,21.24,47.49,47.22s-21.37,47.48-47.49,47.48h-32.07c-1.35,0-2.43-1.22-2.43-2.57V3.92ZM114.02,79.55c17.59,0,30.44-13.26,30.44-30.98s-12.85-30.85-30.44-30.85h-15.42v61.83h15.42ZM154.99,92.53L197.06,1.49c.42-.82,1.09-1.49,2.3-1.49h1.36c1.35,0,1.89.67,2.3,1.49l41.67,91.04c.82,1.77-.27,3.52-2.3,3.52h-11.77c-2.02,0-2.97-.81-3.92-2.7l-6.63-14.61h-40.46l-6.63,14.61c-.54,1.36-1.76,2.7-3.92,2.7h-11.77c-2.03,0-3.11-1.76-2.3-3.52ZM213.44,63.72l-13.52-29.77h-.41l-13.26,29.77h27.19Z"/>
    </clipPath>
  </defs>
  <g>
    <path class="cls-1" d="M2.21,116.74c0,1.68.05,2.41.27,2.61.19.18.5.26,1.43.26.63,0,1.16-.01,1.45-.34.16-.19.27-.47.31-.69.01-.09.04-.15.11-.15.06,0,.07.05.07.17,0,.13-.08.81-.18,1.15-.08.26-.12.31-.75.31-.86,0-1.48-.02-1.98-.03-.5-.02-.87-.03-1.22-.03-.05,0-.25.01-.49.01-.24.01-.5.02-.68.02-.13,0-.19-.02-.19-.09,0-.03.02-.07.1-.07.11,0,.25-.02.36-.05.24-.05.3-.3.35-.63.06-.48.06-1.38.06-2.48v-2.02c0-1.78,0-2.1-.03-2.47-.02-.38-.12-.57-.51-.65-.1-.02-.3-.03-.41-.03-.05,0-.1-.02-.1-.07,0-.07.06-.09.19-.09.54,0,1.29.03,1.35.03s.93-.03,1.29-.03c.13,0,.19.02.19.09,0,.05-.05.07-.1.07-.08,0-.25.01-.4.03-.35.06-.44.25-.47.65-.03.37-.03.69-.03,2.47v2.04Z"/>
    <path class="cls-1" d="M8.86,117.21c0,.93,0,1.7.05,2.1.04.28.07.47.38.51.16.02.38.05.48.05.06,0,.08.05.08.08,0,.05-.05.08-.17.08-.58,0-1.27-.03-1.32-.03-.06,0-.72.03-1.04.03-.11,0-.17-.02-.17-.08,0-.03.02-.08.08-.08.1,0,.23-.02.32-.05.2-.05.24-.23.27-.51.05-.4.06-1.17.06-2.1v-1.72c0-1.51,0-1.78-.02-2.09-.03-.33-.11-.48-.34-.53-.12-.02-.25-.03-.32-.03-.05,0-.08-.05-.08-.08,0-.06.05-.08.17-.08.34,0,1,.02,1.06.02.05,0,.73-.02,1.05-.02.12,0,.17.02.17.08,0,.03-.05.08-.08.08-.07,0-.14,0-.26.02-.29.06-.35.19-.37.54-.01.31-.01.58-.01,2.09v1.72Z"/>
    <path class="cls-1" d="M12.36,119.11c-1.03-.84-1.28-1.95-1.28-2.87,0-.65.25-1.78,1.18-2.65.64-.58,1.59-1.04,3.2-1.04.42,0,1.02.03,1.53.11.4.07.73.14,1.08.15.11,0,.13.05.13.1,0,.08-.03.19-.05.55-.01.32-.01.86-.03.99-.01.15-.06.2-.12.2-.07,0-.08-.07-.08-.2,0-.38-.17-.77-.44-.97-.37-.3-1.14-.54-2.07-.54-1.35,0-2,.34-2.37.67-.78.69-.95,1.55-.95,2.54,0,1.86,1.54,3.52,3.79,3.52.79,0,1.32-.06,1.73-.46.23-.22.37-.63.41-.81.03-.1.04-.14.11-.14.05,0,.1.07.1.14s-.14.91-.25,1.25c-.06.18-.08.21-.26.28-.43.16-1.22.22-1.9.22-1.58,0-2.64-.36-3.47-1.04Z"/>
    <path class="cls-1" d="M20.63,115.49c0-1.51,0-1.78-.02-2.09-.03-.33-.08-.49-.43-.54-.08-.01-.26-.02-.36-.02-.03,0-.08-.05-.08-.08,0-.06.05-.08.17-.08.48,0,1.16.02,1.22.02.07,0,2.27.01,2.51,0,.2-.01.4-.05.48-.06.05-.01.09-.05.14-.05.04,0,.05.05.05.09,0,.07-.06.19-.08.46-.01.09-.04.53-.06.64-.01.05-.05.1-.09.1-.06,0-.08-.05-.08-.13,0-.07-.01-.23-.06-.34-.07-.16-.18-.23-.75-.3-.18-.02-1.4-.03-1.52-.03-.05,0-.06.03-.06.1v2.64c0,.07,0,.1.06.1.13,0,1.52,0,1.76-.02.25-.02.41-.03.51-.14.07-.07.12-.13.16-.13s.06.02.06.08c0,.06-.06.21-.08.54-.02.19-.05.56-.05.63,0,.08-.02.18-.09.18-.05,0-.07-.03-.07-.09,0-.09,0-.19-.05-.32-.04-.14-.13-.25-.54-.29-.29-.03-1.41-.05-1.59-.05-.06,0-.07.03-.07.07v.81c0,.33-.01,1.46,0,1.65.03.65.21.78,1.26.78.27,0,.78,0,1.05-.11.28-.11.42-.28.48-.67.02-.11.05-.15.11-.15s.07.08.07.15-.08.73-.14.94c-.07.25-.18.25-.58.25-.79,0-1.4-.02-1.83-.03-.44-.02-.72-.02-.87-.02-.03,0-.23,0-.45.01-.2.01-.44.02-.61.02-.11,0-.17-.02-.17-.08,0-.03.02-.08.08-.08.1,0,.23-.03.32-.05.2-.03.23-.23.27-.51.06-.4.06-1.17.06-2.1v-1.72Z"/>
    <path class="cls-1" d="M27.55,118.7c.02.8.12,1.04.41,1.11.19.05.43.06.53.06.05,0,.08.03.08.08,0,.06-.07.08-.19.08-.6,0-1.02-.03-1.11-.03s-.54.03-1.02.03c-.11,0-.17-.01-.17-.08,0-.05.04-.08.08-.08.08,0,.27-.01.43-.06.26-.07.3-.33.3-1.21v-5.56c0-.39.06-.49.14-.49.12,0,.3.19.41.3.17.16,1.7,1.71,3.32,3.31,1.04,1.03,2.16,2.19,2.49,2.51l-.11-4.87c-.01-.63-.07-.85-.4-.9-.19-.03-.43-.05-.51-.05-.07,0-.08-.06-.08-.1,0-.06.08-.07.2-.07.48,0,.98.02,1.1.02s.47-.02.9-.02c.11,0,.19.01.19.07,0,.03-.05.1-.12.1-.05,0-.13,0-.25.02-.35.07-.37.26-.37.84l-.03,5.69c0,.64-.01.69-.08.69-.11,0-.21-.08-.8-.59-.11-.09-1.63-1.52-2.74-2.63-1.22-1.23-2.4-2.41-2.72-2.76l.12,4.59Z"/>
    <path class="cls-1" d="M36.88,119.11c-1.03-.84-1.28-1.95-1.28-2.87,0-.65.25-1.78,1.18-2.65.64-.58,1.59-1.04,3.2-1.04.42,0,1.02.03,1.53.11.4.07.73.14,1.08.15.11,0,.13.05.13.1,0,.08-.03.19-.05.55-.01.32-.01.86-.03.99-.01.15-.06.2-.12.2-.07,0-.08-.07-.08-.2,0-.38-.17-.77-.44-.97-.37-.3-1.14-.54-2.07-.54-1.35,0-2,.34-2.37.67-.78.69-.95,1.55-.95,2.54,0,1.86,1.54,3.52,3.79,3.52.79,0,1.32-.06,1.73-.46.23-.22.37-.63.41-.81.03-.1.04-.14.11-.14.05,0,.1.07.1.14s-.14.91-.25,1.25c-.06.18-.08.21-.26.28-.43.16-1.22.22-1.9.22-1.58,0-2.64-.36-3.47-1.04Z"/>
    <path class="cls-1" d="M46.12,117.21c0,.93,0,1.7.05,2.1.04.28.07.47.38.51.16.02.38.05.48.05.06,0,.08.05.08.08,0,.05-.05.08-.17.08-.58,0-1.27-.03-1.32-.03-.06,0-.72.03-1.04.03-.11,0-.17-.02-.17-.08,0-.03.02-.08.08-.08.1,0,.23-.02.32-.05.2-.05.24-.23.27-.51.05-.4.06-1.17.06-2.1v-1.72c0-1.51,0-1.78-.02-2.09-.03-.33-.11-.48-.34-.53-.12-.02-.25-.03-.32-.03-.05,0-.08-.05-.08-.08,0-.06.05-.08.17-.08.34,0,1,.02,1.06.02.05,0,.73-.02,1.05-.02.12,0,.17.02.17.08,0,.03-.05.08-.08.08-.07,0-.14,0-.26.02-.29.06-.35.19-.37.54-.01.31-.01.58-.01,2.09v1.72Z"/>
    <path class="cls-1" d="M51.3,112.88c.13-.32.18-.38.25-.38.11,0,.14.14.25.36.19.41,1.87,4.42,2.52,5.9.38.86.67.99.9,1.06.16.05.31.06.42.06.06,0,.13.02.13.08s-.12.08-.24.08c-.16,0-.93,0-1.66-.02-.2-.01-.37-.01-.37-.07,0-.05.02-.05.07-.07.06-.02.17-.1.1-.27l-.94-2.23s-.04-.06-.1-.06h-2.43s-.08.02-.11.08l-.6,1.55c-.1.24-.16.48-.16.65,0,.2.18.27.36.27h.1c.08,0,.11.03.11.08,0,.06-.06.08-.16.08-.25,0-.82-.03-.94-.03-.11,0-.64.03-1.06.03-.13,0-.2-.02-.2-.08,0-.05.05-.08.1-.08.07,0,.23-.01.31-.02.48-.06.68-.4.88-.89l2.48-6.08ZM52.47,116.92s.05-.02.03-.07l-1.04-2.67c-.06-.15-.12-.15-.18,0l-.98,2.67s0,.07.04.07h2.13Z"/>
    <path class="cls-1" d="M58.58,117.21c0,.93,0,1.7.05,2.1.04.28.08.47.41.51.14.02.38.05.48.05.07,0,.08.05.08.08,0,.05-.05.08-.17.08-.57,0-1.24-.03-1.3-.03-.05,0-.78.03-1.09.03-.12,0-.17-.02-.17-.08,0-.03.02-.07.08-.07.1,0,.22-.02.31-.05.21-.05.27-.24.31-.53.05-.4.05-1.17.05-2.1v-4.08l-1.52.02c-.66.01-.91.08-1.06.31-.12.17-.13.24-.17.3-.03.08-.06.1-.11.1-.03,0-.07-.02-.07-.08,0-.1.2-.97.23-1.05.01-.06.07-.18.11-.18.07,0,.18.08.47.11.3.03.71.05.82.05h3.97c.35,0,.58-.02.75-.05.16-.02.25-.05.3-.05.05,0,.05.06.05.11,0,.3-.03.99-.03,1.11,0,.08-.05.12-.1.12s-.07-.03-.08-.17v-.11c-.05-.29-.27-.51-1.28-.54l-1.32-.02v4.08Z"/>
    <path class="cls-1" d="M62.93,115.49c0-1.51,0-1.78-.03-2.09-.02-.31-.08-.49-.43-.54-.08-.01-.26-.02-.36-.02-.04,0-.08-.05-.08-.08,0-.06.05-.08.17-.08.48,0,1.11.02,1.21.02s.75-.02,1.06-.02c.12,0,.18.02.18.08,0,.03-.05.08-.1.08-.07,0-.13,0-.26.02-.28.05-.34.21-.36.54-.02.31-.02.58-.02,2.09v1.36c0,1.41.32,1.99.78,2.38.51.45.97.53,1.57.53.65,0,1.27-.28,1.63-.69.49-.56.6-1.36.6-2.35v-1.23c0-1.51-.01-1.78-.03-2.09-.01-.31-.07-.49-.42-.54-.08-.01-.26-.02-.36-.02-.05,0-.08-.05-.08-.08,0-.06.05-.08.17-.08.47,0,1.08.02,1.14.02.07,0,.57-.02.88-.02.12,0,.17.02.17.08,0,.03-.03.08-.08.08-.07,0-.13,0-.26.02-.29.06-.35.21-.37.54-.02.31-.01.58-.01,2.09v1.04c0,1.05-.14,2.23-.98,2.91-.77.63-1.58.71-2.2.71-.35,0-1.45-.02-2.19-.69-.51-.46-.92-1.13-.92-2.55v-1.43Z"/>
    <path class="cls-1" d="M72.12,115.49c0-1.51,0-1.78-.02-2.09-.03-.33-.08-.49-.43-.54-.08-.01-.26-.02-.36-.02-.03,0-.08-.05-.08-.08,0-.06.05-.08.17-.08.48,0,1.18.02,1.24.02.11,0,.99-.02,1.32-.02.67,0,1.41.06,1.96.42.26.18.73.65.73,1.33,0,.72-.31,1.42-1.29,2.21.86,1.03,1.59,1.91,2.2,2.52.56.55.91.64,1.17.67.2.03.31.03.37.03s.1.05.1.08c0,.06-.06.08-.25.08h-.66c-.6,0-.86-.06-1.12-.19-.45-.23-.84-.7-1.43-1.43-.44-.53-.91-1.15-1.13-1.42-.05-.05-.07-.06-.14-.06l-1.34-.02s-.07.02-.07.08v.23c0,.93,0,1.69.05,2.09.04.28.1.47.42.51.14.02.37.05.47.05.07,0,.08.05.08.08,0,.05-.05.08-.17.08-.57,0-1.24-.03-1.29-.03-.01,0-.72.03-1.04.03-.11,0-.17-.02-.17-.08,0-.03.02-.08.08-.08.1,0,.23-.02.32-.05.2-.05.23-.23.27-.51.06-.4.06-1.17.06-2.1v-1.72ZM73.03,116.32c0,.06.03.09.07.12.16.08.69.15,1.16.15.25,0,.54-.01.79-.17.36-.23.63-.75.63-1.49,0-1.21-.69-1.91-1.82-1.91-.31,0-.65.03-.75.06-.05.02-.08.06-.08.11v3.12Z"/>
    <path class="cls-1" d="M81.71,112.88c.13-.32.18-.38.25-.38.11,0,.14.14.25.36.19.41,1.87,4.42,2.52,5.9.38.86.67.99.9,1.06.16.05.31.06.42.06.06,0,.13.02.13.08s-.12.08-.24.08c-.16,0-.93,0-1.66-.02-.2-.01-.37-.01-.37-.07,0-.05.02-.05.07-.07.06-.02.17-.1.1-.27l-.94-2.23s-.04-.06-.1-.06h-2.43s-.08.02-.11.08l-.6,1.55c-.1.24-.16.48-.16.65,0,.2.18.27.36.27h.1c.08,0,.11.03.11.08,0,.06-.06.08-.16.08-.25,0-.82-.03-.94-.03-.11,0-.64.03-1.06.03-.13,0-.2-.02-.2-.08,0-.05.05-.08.1-.08.07,0,.23-.01.31-.02.48-.06.68-.4.88-.89l2.48-6.08ZM82.88,116.92s.05-.02.03-.07l-1.04-2.67c-.06-.15-.12-.15-.18,0l-.98,2.67s0,.07.04.07h2.13Z"/>
    <path class="cls-1" d="M91.23,115.49c0-1.51,0-1.78-.02-2.09-.03-.33-.08-.49-.43-.54-.08-.01-.26-.02-.36-.02-.03,0-.08-.05-.08-.08,0-.06.05-.08.17-.08.48,0,1.16.02,1.22.02.07,0,2.27.01,2.51,0,.2-.01.4-.05.48-.06.05-.01.09-.05.14-.05.04,0,.05.05.05.09,0,.07-.06.19-.08.46-.01.09-.04.53-.06.64-.01.05-.05.1-.09.1-.06,0-.08-.05-.08-.13,0-.07-.01-.23-.06-.34-.07-.16-.18-.23-.75-.3-.18-.02-1.4-.03-1.52-.03-.05,0-.06.03-.06.1v2.64c0,.07,0,.1.06.1.13,0,1.52,0,1.76-.02.25-.02.41-.03.51-.14.07-.07.12-.13.16-.13s.06.02.06.08c0,.06-.06.21-.08.54-.02.19-.05.56-.05.63,0,.08-.02.18-.09.18-.05,0-.07-.03-.07-.09,0-.09,0-.19-.05-.32-.04-.14-.13-.25-.54-.29-.29-.03-1.41-.05-1.59-.05-.06,0-.07.03-.07.07v.81c0,.33-.01,1.46,0,1.65.03.65.21.78,1.26.78.27,0,.78,0,1.05-.11.28-.11.42-.28.48-.67.02-.11.05-.15.11-.15s.07.08.07.15-.08.73-.14.94c-.07.25-.18.25-.58.25-.79,0-1.4-.02-1.83-.03-.44-.02-.72-.02-.87-.02-.03,0-.23,0-.45.01-.2.01-.44.02-.61.02-.11,0-.17-.02-.17-.08,0-.03.02-.08.08-.08.1,0,.23-.03.32-.05.2-.03.23-.23.27-.51.06-.4.06-1.17.06-2.1v-1.72Z"/>
    <path class="cls-1" d="M98.15,118.7c.02.8.12,1.04.41,1.11.19.05.43.06.53.06.05,0,.08.03.08.08,0,.06-.07.08-.19.08-.6,0-1.02-.03-1.11-.03s-.54.03-1.02.03c-.11,0-.17-.01-.17-.08,0-.05.04-.08.08-.08.08,0,.27-.01.43-.06.26-.07.3-.33.3-1.21v-5.56c0-.39.06-.49.14-.49.12,0,.3.19.41.3.17.16,1.7,1.71,3.32,3.31,1.04,1.03,2.16,2.19,2.49,2.51l-.11-4.87c-.01-.63-.07-.85-.4-.9-.19-.03-.43-.05-.51-.05-.07,0-.08-.06-.08-.1,0-.06.08-.07.2-.07.48,0,.98.02,1.1.02s.47-.02.9-.02c.11,0,.19.01.19.07,0,.03-.05.1-.12.1-.05,0-.13,0-.25.02-.35.07-.37.26-.37.84l-.03,5.69c0,.64-.01.69-.08.69-.11,0-.21-.08-.8-.59-.11-.09-1.63-1.52-2.74-2.63-1.22-1.23-2.4-2.41-2.72-2.76l.12,4.59Z"/>
    <path class="cls-1" d="M111.61,114.7c0-1.78,0-2.1-.03-2.47-.02-.38-.12-.57-.51-.65-.1-.02-.3-.03-.41-.03-.05,0-.1-.02-.1-.07,0-.07.06-.09.19-.09.54,0,1.29.03,1.35.03.14,0,.9-.03,1.61-.03,1.18,0,3.37-.11,4.79,1.3.6.59,1.16,1.54,1.16,2.9,0,1.44-.62,2.55-1.29,3.22-.51.51-1.59,1.32-3.62,1.32-.51,0-1.15-.04-1.66-.07-.53-.03-.93-.07-.99-.07-.03,0-.23,0-.48.01-.24,0-.51.02-.69.02-.13,0-.19-.02-.19-.09,0-.03.02-.07.1-.07.11,0,.25-.02.36-.05.24-.05.3-.3.35-.63.06-.48.06-1.38.06-2.48v-2.02ZM112.61,115.94c0,1.21.01,2.26.03,2.48.01.29.04.75.13.87.16.21.62.46,2.03.46,1.11,0,2.14-.39,2.85-1.06.62-.59.96-1.68.96-2.73,0-1.45-.66-2.39-1.15-2.88-1.12-1.13-2.48-1.29-3.91-1.29-.24,0-.68.03-.78.08-.11.05-.14.1-.14.23-.01.39-.01,1.55-.01,2.43v1.42Z"/>
    <path class="cls-1" d="M123.02,117.21c0,.93,0,1.7.05,2.1.04.28.07.47.38.51.16.02.38.05.48.05.06,0,.08.05.08.08,0,.05-.05.08-.17.08-.58,0-1.27-.03-1.32-.03-.06,0-.72.03-1.04.03-.11,0-.17-.02-.17-.08,0-.03.02-.08.08-.08.1,0,.23-.02.32-.05.2-.05.24-.23.27-.51.05-.4.06-1.17.06-2.1v-1.72c0-1.51,0-1.78-.02-2.09-.03-.33-.11-.48-.34-.53-.12-.02-.25-.03-.32-.03-.05,0-.08-.05-.08-.08,0-.06.05-.08.17-.08.34,0,1,.02,1.06.02.05,0,.73-.02,1.05-.02.12,0,.17.02.17.08,0,.03-.05.08-.08.08-.07,0-.14,0-.26.02-.29.06-.35.19-.37.54-.01.31-.01.58-.01,2.09v1.72Z"/>
    <path class="cls-1" d="M125.72,119.89c-.14-.07-.16-.1-.16-.37,0-.48.05-.86.06-1.03,0-.1.03-.16.08-.16s.1.03.1.11,0,.22.03.36c.17.71.96.96,1.66.96,1.04,0,1.58-.56,1.58-1.29,0-.69-.4-1.03-1.33-1.69l-.48-.34c-1.14-.81-1.5-1.41-1.5-2.08,0-1.15.94-1.83,2.33-1.83.42,0,.84.06,1.09.11.2.05.29.05.37.05s.11.01.11.07c0,.05-.05.37-.05,1.03,0,.15-.01.21-.08.21s-.08-.05-.1-.12c-.01-.12-.1-.38-.16-.48-.07-.12-.42-.48-1.36-.48-.76,0-1.4.36-1.4,1.05,0,.62.32.97,1.36,1.64l.3.2c1.28.83,1.72,1.51,1.72,2.34,0,.58-.23,1.19-.98,1.66-.44.27-1.1.34-1.67.34-.49,0-1.1-.07-1.53-.27Z"/>
    <path class="cls-1" d="M132.52,115.49c0-1.51,0-1.78-.02-2.09-.03-.33-.08-.49-.43-.54-.08-.01-.26-.02-.36-.02-.03,0-.08-.05-.08-.08,0-.06.05-.08.17-.08.48,0,1.16.02,1.22.02.07,0,2.27.01,2.51,0,.2-.01.4-.05.48-.06.05-.01.09-.05.14-.05.04,0,.05.05.05.09,0,.07-.06.19-.08.46-.01.09-.04.53-.06.64-.01.05-.05.1-.09.1-.06,0-.08-.05-.08-.13,0-.07-.01-.23-.06-.34-.07-.16-.18-.23-.75-.3-.18-.02-1.4-.03-1.52-.03-.05,0-.06.03-.06.1v2.64c0,.07,0,.1.06.1.13,0,1.52,0,1.76-.02.25-.02.41-.03.51-.14.07-.07.12-.13.16-.13s.06.02.06.08c0,.06-.06.21-.08.54-.02.19-.05.56-.05.63,0,.08-.02.18-.09.18-.05,0-.07-.03-.07-.09,0-.09,0-.19-.05-.32-.03-.14-.13-.25-.54-.29-.29-.03-1.41-.05-1.59-.05-.06,0-.07.03-.07.07v.81c0,.33-.01,1.46,0,1.65.03.65.21.78,1.26.78.27,0,.78,0,1.05-.11.28-.11.42-.28.48-.67.02-.11.05-.15.11-.15s.07.08.07.15-.08.73-.14.94c-.07.25-.18.25-.58.25-.79,0-1.4-.02-1.83-.03-.44-.02-.72-.02-.87-.02-.03,0-.23,0-.45.01-.2.01-.44.02-.61.02-.11,0-.17-.02-.17-.08,0-.03.02-.08.08-.08.1,0,.23-.03.32-.05.2-.03.23-.23.27-.51.06-.4.06-1.17.06-2.1v-1.72Z"/>
    <path class="cls-1" d="M139.44,118.7c.02.8.12,1.04.41,1.11.19.05.43.06.53.06.05,0,.08.03.08.08,0,.06-.07.08-.19.08-.6,0-1.02-.03-1.11-.03s-.54.03-1.02.03c-.11,0-.17-.01-.17-.08,0-.05.04-.08.08-.08.08,0,.27-.01.43-.06.26-.07.3-.33.3-1.21v-5.56c0-.39.06-.49.14-.49.12,0,.3.19.41.3.17.16,1.7,1.71,3.32,3.31,1.04,1.03,2.16,2.19,2.49,2.51l-.11-4.87c-.01-.63-.07-.85-.4-.9-.19-.03-.43-.05-.51-.05-.07,0-.08-.06-.08-.1,0-.06.08-.07.2-.07.48,0,.98.02,1.1.02s.47-.02.9-.02c.11,0,.19.01.19.07,0,.03-.05.1-.12.1-.05,0-.13,0-.25.02-.35.07-.37.26-.37.84l-.03,5.69c0,.64-.01.69-.08.69-.11,0-.21-.08-.8-.59-.11-.09-1.63-1.52-2.74-2.63-1.22-1.23-2.4-2.41-2.72-2.76l.12,4.59ZM142.03,111.53c-.22-.09-.44-.27-.81-.27-.42,0-.65.32-.73.41-.06.07-.12.1-.17.1s-.07-.03-.07-.07c0-.06.03-.1.08-.17.17-.25.65-.81,1.03-.81.29,0,.64.19,1.01.36.17.08.5.19.69.19.44,0,.69-.28.73-.33.05-.07.11-.13.14-.13.05,0,.08.03.08.07,0,.05-.01.08-.05.15-.1.18-.62.78-.99.78-.4,0-.78-.21-.94-.29Z"/>
    <path class="cls-1" d="M151.67,112.54c2.37,0,4.16,1.38,4.16,3.64s-1.69,3.97-4.22,3.97c-2.88,0-4.11-2.07-4.11-3.82,0-1.56,1.27-3.79,4.17-3.79ZM151.9,119.76c.95,0,2.85-.48,2.85-3.29,0-2.33-1.48-3.55-3.14-3.55-1.76,0-3.03,1.05-3.03,3.16,0,2.26,1.42,3.68,3.32,3.68Z"/>
    <path class="cls-1" d="M162.02,115.49c0-1.51,0-1.78-.02-2.09-.03-.33-.08-.49-.43-.54-.08-.01-.26-.02-.36-.02-.03,0-.08-.05-.08-.08,0-.06.05-.08.17-.08.48,0,1.16.02,1.22.02.12,0,.79-.02,1.41-.02,1.05,0,2.98-.09,4.22,1.11.53.5,1.03,1.31,1.03,2.47,0,1.22-.55,2.16-1.14,2.73-.45.45-1.4,1.12-3.19,1.12-.45,0-1.02-.03-1.47-.06-.45-.03-.81-.06-.86-.06-.03,0-.21.01-.43.01-.21.01-.47.02-.63.02-.11,0-.17-.02-.17-.08,0-.03.02-.08.08-.08.1,0,.23-.02.32-.05.2-.05.23-.23.27-.51.06-.4.06-1.17.06-2.1v-1.72ZM162.98,116.54c0,1.03,0,1.93.01,2.12.01.24.04.59.12.69.13.18.5.39,1.74.39.97,0,1.83-.31,2.46-.88.55-.49.82-1.42.82-2.31,0-1.23-.56-2.02-.99-2.43-.99-.96-2.15-1.08-3.41-1.08-.2,0-.54.03-.63.07-.1.03-.13.08-.13.2v3.24Z"/>
    <path class="cls-1" d="M171.48,115.49c0-1.51,0-1.78-.02-2.09-.03-.33-.08-.49-.43-.54-.08-.01-.26-.02-.36-.02-.03,0-.08-.05-.08-.08,0-.06.05-.08.17-.08.48,0,1.16.02,1.22.02.07,0,2.27.01,2.51,0,.2-.01.4-.05.48-.06.05-.01.09-.05.14-.05.04,0,.05.05.05.09,0,.07-.06.19-.08.46-.01.09-.04.53-.06.64-.01.05-.05.1-.09.1-.06,0-.08-.05-.08-.13,0-.07-.01-.23-.06-.34-.07-.16-.18-.23-.75-.3-.18-.02-1.4-.03-1.52-.03-.05,0-.06.03-.06.1v2.64c0,.07,0,.1.06.1.13,0,1.52,0,1.76-.02.25-.02.41-.03.51-.14.07-.07.12-.13.16-.13s.06.02.06.08c0,.06-.06.21-.08.54-.02.19-.05.56-.05.63,0,.08-.02.18-.09.18-.05,0-.07-.03-.07-.09,0-.09,0-.19-.05-.32-.03-.14-.13-.25-.54-.29-.29-.03-1.41-.05-1.59-.05-.06,0-.07.03-.07.07v.81c0,.33-.01,1.46,0,1.65.03.65.21.78,1.26.78.27,0,.78,0,1.05-.11.28-.11.42-.28.48-.67.02-.11.05-.15.11-.15s.07.08.07.15-.08.73-.14.94c-.07.25-.18.25-.58.25-.79,0-1.4-.02-1.83-.03-.44-.02-.72-.02-.87-.02-.03,0-.23,0-.45.01-.2.01-.44.02-.61.02-.11,0-.17-.02-.17-.08,0-.03.02-.08.08-.08.1,0,.23-.03.32-.05.2-.03.23-.23.27-.51.06-.4.06-1.17.06-2.1v-1.72Z"/>
    <path class="cls-1" d="M183.72,111.67c.14-.38.19-.45.27-.45s.12.06.26.41c.18.43,2.06,5.16,2.78,6.89.43,1.02.78,1.2,1.03,1.27.18.06.36.07.48.07.07,0,.12.01.12.07,0,.07-.11.09-.24.09-.18,0-1.05,0-1.88-.02-.23-.01-.36-.01-.36-.08,0-.05.03-.07.08-.08.07-.02.14-.12.07-.31l-1.11-2.81c-.02-.05-.05-.07-.11-.07h-2.57c-.06,0-.09.03-.12.1l-.72,2.02c-.11.28-.17.56-.17.76,0,.23.25.33.45.33h.12c.08,0,.12.02.12.07,0,.07-.07.09-.18.09-.29,0-.8-.03-.93-.03s-.79.03-1.35.03c-.16,0-.23-.02-.23-.09,0-.05.05-.07.11-.07.08,0,.25-.01.35-.02.55-.07.79-.5,1-1.07l2.71-7.1ZM184.97,116.25c.06,0,.06-.04.05-.08l-1.13-3.08c-.06-.17-.12-.17-.18,0l-1.05,3.08c-.02.06,0,.08.04.08h2.28Z"/>
    <path class="cls-1" d="M189.99,115.49c0-1.51,0-1.78-.02-2.09-.03-.33-.08-.49-.43-.54-.08-.01-.26-.02-.36-.02-.03,0-.08-.05-.08-.08,0-.06.05-.08.17-.08.48,0,1.18.02,1.24.02.11,0,.99-.02,1.32-.02.67,0,1.41.06,1.96.42.26.18.73.65.73,1.33,0,.72-.31,1.42-1.29,2.21.86,1.03,1.59,1.91,2.2,2.52.56.55.91.64,1.17.67.2.03.31.03.37.03s.1.05.1.08c0,.06-.06.08-.25.08h-.66c-.6,0-.86-.06-1.12-.19-.45-.23-.84-.7-1.43-1.43-.44-.53-.91-1.15-1.14-1.42-.05-.05-.07-.06-.14-.06l-1.34-.02s-.07.02-.07.08v.23c0,.93,0,1.69.05,2.09.04.28.1.47.42.51.14.02.37.05.47.05.07,0,.08.05.08.08,0,.05-.05.08-.17.08-.57,0-1.24-.03-1.29-.03-.01,0-.72.03-1.04.03-.11,0-.17-.02-.17-.08,0-.03.02-.08.08-.08.1,0,.23-.02.32-.05.2-.05.23-.23.27-.51.06-.4.06-1.17.06-2.1v-1.72ZM190.9,116.32c0,.06.03.09.07.12.16.08.69.15,1.16.15.25,0,.54-.01.79-.17.36-.23.63-.75.63-1.49,0-1.21-.69-1.91-1.82-1.91-.31,0-.65.03-.75.06-.05.02-.08.06-.08.11v3.12Z"/>
    <path class="cls-1" d="M199.67,117.21c0,.93,0,1.7.05,2.1.04.28.08.47.41.51.14.02.38.05.48.05.07,0,.08.05.08.08,0,.05-.05.08-.17.08-.57,0-1.24-.03-1.3-.03-.05,0-.78.03-1.09.03-.12,0-.17-.02-.17-.08,0-.03.02-.07.08-.07.1,0,.22-.02.31-.05.21-.05.27-.24.31-.53.05-.4.05-1.17.05-2.1v-4.08l-1.52.02c-.66.01-.91.08-1.06.31-.12.17-.13.24-.17.3-.03.08-.06.1-.11.1-.03,0-.07-.02-.07-.08,0-.1.2-.97.23-1.05.01-.06.07-.18.11-.18.07,0,.18.08.47.11.3.03.71.05.82.05h3.97c.35,0,.58-.02.75-.05.16-.02.25-.05.3-.05.05,0,.05.06.05.11,0,.3-.03.99-.03,1.11,0,.08-.05.12-.1.12s-.07-.03-.08-.17v-.11c-.05-.29-.27-.51-1.28-.54l-1.32-.02v4.08Z"/>
    <path class="cls-1" d="M204.56,115.49c0-1.51,0-1.78-.02-2.09-.03-.33-.08-.49-.43-.54-.08-.01-.26-.02-.36-.02-.03,0-.08-.05-.08-.08,0-.06.05-.08.17-.08.48,0,1.16.02,1.22.02.07,0,2.27.01,2.51,0,.2-.01.4-.05.48-.06.05-.01.09-.05.14-.05.04,0,.05.05.05.09,0,.07-.06.19-.08.46-.01.09-.04.53-.06.64-.01.05-.05.1-.09.1-.06,0-.08-.05-.08-.13,0-.07-.01-.23-.06-.34-.07-.16-.18-.23-.75-.3-.18-.02-1.4-.03-1.52-.03-.05,0-.06.03-.06.1v2.64c0,.07,0,.1.06.1.13,0,1.52,0,1.76-.02.25-.02.41-.03.51-.14.07-.07.12-.13.16-.13s.06.02.06.08c0,.06-.06.21-.08.54-.02.19-.05.56-.05.63,0,.08-.02.18-.09.18-.05,0-.07-.03-.07-.09,0-.09,0-.19-.05-.32-.04-.14-.13-.25-.54-.29-.29-.03-1.41-.05-1.59-.05-.06,0-.07.03-.07.07v.81c0,.33-.01,1.46,0,1.65.03.65.21.78,1.26.78.27,0,.78,0,1.05-.11.28-.11.42-.28.48-.67.02-.11.05-.15.11-.15s.07.08.07.15-.08.73-.14.94c-.07.25-.18.25-.58.25-.79,0-1.4-.02-1.83-.03-.44-.02-.72-.02-.87-.02-.03,0-.23,0-.45.01-.2.01-.44.02-.61.02-.11,0-.17-.02-.17-.08,0-.03.02-.08.08-.08.1,0,.23-.03.32-.05.2-.03.23-.23.27-.51.06-.4.06-1.17.06-2.1v-1.72Z"/>
    <path class="cls-1" d="M210.15,119.89c-.14-.07-.16-.1-.16-.37,0-.48.05-.86.06-1.03,0-.1.03-.16.08-.16s.1.03.1.11,0,.22.03.36c.17.71.96.96,1.66.96,1.04,0,1.58-.56,1.58-1.29,0-.69-.4-1.03-1.33-1.69l-.48-.34c-1.14-.81-1.5-1.41-1.5-2.08,0-1.15.94-1.83,2.33-1.83.42,0,.84.06,1.09.11.2.05.29.05.37.05s.11.01.11.07c0,.05-.05.37-.05,1.03,0,.15-.01.21-.08.21s-.08-.05-.1-.12c-.01-.12-.1-.38-.16-.48-.07-.12-.42-.48-1.36-.48-.77,0-1.4.36-1.4,1.05,0,.62.32.97,1.36,1.64l.3.2c1.28.83,1.72,1.51,1.72,2.34,0,.58-.23,1.19-.98,1.66-.44.27-1.1.34-1.67.34-.49,0-1.1-.07-1.53-.27Z"/>
    <path class="cls-1" d="M218.79,112.88c.13-.32.18-.38.25-.38.11,0,.14.14.25.36.19.41,1.87,4.42,2.52,5.9.38.86.67.99.9,1.06.16.05.31.06.42.06.06,0,.13.02.13.08s-.12.08-.24.08c-.16,0-.93,0-1.66-.02-.2-.01-.37-.01-.37-.07,0-.05.02-.05.07-.07.06-.02.17-.1.1-.27l-.94-2.23s-.04-.06-.1-.06h-2.43s-.08.02-.11.08l-.6,1.55c-.1.24-.16.48-.16.65,0,.2.18.27.36.27h.1c.08,0,.11.03.11.08,0,.06-.06.08-.16.08-.25,0-.82-.03-.94-.03-.11,0-.64.03-1.06.03-.13,0-.2-.02-.2-.08,0-.05.05-.08.1-.08.07,0,.23-.01.31-.02.48-.06.68-.4.88-.89l2.48-6.08ZM219.96,116.92s.05-.02.03-.07l-1.04-2.67c-.06-.15-.12-.15-.18,0l-.98,2.67s0,.07.04.07h2.13Z"/>
    <path class="cls-1" d="M224.99,118.7c.02.8.12,1.04.41,1.11.19.05.43.06.53.06.05,0,.08.03.08.08,0,.06-.07.08-.19.08-.6,0-1.02-.03-1.11-.03s-.54.03-1.02.03c-.11,0-.17-.01-.17-.08,0-.05.04-.08.08-.08.08,0,.27-.01.43-.06.26-.07.3-.33.3-1.21v-5.56c0-.39.06-.49.14-.49.12,0,.3.19.41.3.17.16,1.7,1.71,3.32,3.31,1.04,1.03,2.16,2.19,2.49,2.51l-.11-4.87c-.01-.63-.07-.85-.4-.9-.19-.03-.43-.05-.51-.05-.07,0-.08-.06-.08-.1,0-.06.08-.07.2-.07.48,0,.98.02,1.1.02s.47-.02.9-.02c.11,0,.19.01.19.07,0,.03-.05.1-.12.1-.05,0-.13,0-.25.02-.35.07-.37.26-.37.84l-.03,5.69c0,.64-.01.69-.08.69-.11,0-.21-.08-.8-.59-.11-.09-1.63-1.52-2.74-2.63-1.22-1.23-2.4-2.41-2.72-2.76l.12,4.59Z"/>
    <path class="cls-1" d="M235.12,117.21c0,.93,0,1.7.05,2.1.04.28.07.47.38.51.16.02.38.05.48.05.06,0,.08.05.08.08,0,.05-.05.08-.17.08-.58,0-1.27-.03-1.32-.03-.06,0-.72.03-1.04.03-.11,0-.17-.02-.17-.08,0-.03.02-.08.08-.08.1,0,.23-.02.32-.05.2-.05.24-.23.27-.51.05-.4.06-1.17.06-2.1v-1.72c0-1.51,0-1.78-.02-2.09-.03-.33-.11-.48-.34-.53-.12-.02-.25-.03-.32-.03-.05,0-.08-.05-.08-.08,0-.06.05-.08.17-.08.34,0,1,.02,1.06.02.05,0,.73-.02,1.05-.02.12,0,.17.02.17.08,0,.03-.05.08-.08.08-.07,0-.14,0-.26.02-.29.06-.35.19-.37.54-.01.31-.01.58-.01,2.09v1.72ZM236.46,111.15c.06.1,0,.14-.05.14-.03,0-.16-.02-.36,0-.58.06-1.42.32-1.82.48-.08.03-.16.06-.18.06-.02,0-.06-.02-.06-.07,0-.03.03-.06.08-.09.43-.28,1.54-.93,1.63-.97.2-.11.27-.15.33-.15.04,0,.06.02.12.1.08.11.17.28.3.5Z"/>
    <path class="cls-1" d="M240.3,112.88c.13-.32.18-.38.25-.38.11,0,.14.14.25.36.19.41,1.87,4.42,2.52,5.9.38.86.67.99.9,1.06.16.05.31.06.42.06.06,0,.13.02.13.08s-.12.08-.24.08c-.16,0-.93,0-1.66-.02-.2-.01-.37-.01-.37-.07,0-.05.02-.05.07-.07.06-.02.17-.1.1-.27l-.94-2.23s-.04-.06-.1-.06h-2.43s-.08.02-.11.08l-.6,1.55c-.1.24-.16.48-.16.65,0,.2.18.27.36.27h.1c.08,0,.11.03.11.08,0,.06-.06.08-.16.08-.25,0-.82-.03-.94-.03-.11,0-.64.03-1.06.03-.13,0-.2-.02-.2-.08,0-.05.05-.08.1-.08.07,0,.23-.01.31-.02.48-.06.68-.4.88-.89l2.48-6.08ZM241.47,116.92s.05-.02.03-.07l-1.04-2.67c-.06-.15-.12-.15-.18,0l-.98,2.67s0,.07.04.07h2.13Z"/>
  </g>
  <g>
    <path class="cls-1" d="M69.69,96.01c.86-.18,1.53-.79,1.82-1.55-.33.74-1.03,1.36-1.82,1.55ZM71.71,44.5v48.98c0,.34-.06.68-.2.97-.33.74-1.03,1.36-1.82,1.55-.19.02-.36.05-.55.05H2.57c-1.49,0-2.57-1.22-2.57-2.57V3.92C0,2.56,1.08,1.34,2.57,1.34h12.45c1.36,0,2.57,1.22,2.57,2.58v75.9h37.75v-35.32c0-1.49,1.23-2.57,2.58-2.57h11.23c1.36,0,2.57,1.08,2.57,2.57ZM54.13,10.69c0-5.14,4.06-9.34,9.2-9.34s9.47,4.2,9.47,9.34-4.2,9.34-9.47,9.34-9.2-4.2-9.2-9.34ZM81.15,3.92c0-1.36,1.09-2.57,2.43-2.57h32.07c26.11,0,47.49,21.24,47.49,47.22s-21.37,47.48-47.49,47.48h-32.07c-1.35,0-2.43-1.22-2.43-2.57V3.92ZM114.02,79.55c17.59,0,30.44-13.26,30.44-30.98s-12.85-30.85-30.44-30.85h-15.42v61.83h15.42ZM154.99,92.53L197.06,1.49c.42-.82,1.09-1.49,2.3-1.49h1.36c1.35,0,1.89.67,2.3,1.49l41.67,91.04c.82,1.77-.27,3.52-2.3,3.52h-11.77c-2.02,0-2.97-.81-3.92-2.7l-6.63-14.61h-40.46l-6.63,14.61c-.54,1.36-1.76,2.7-3.92,2.7h-11.77c-2.03,0-3.11-1.76-2.3-3.52ZM213.44,63.72l-13.52-29.77h-.41l-13.26,29.77h27.19Z"/>
    <g class="cls-2">
      <rect class="cls-1" x="-3.9" y="-3.57" width="250.62" height="105.57"/>
      <path class="cls-1" d="M211.26,50.96c41.48,51.47,31.1,120.85-17.47,160.71-48.58,39.84-120.26,32.78-160.1-15.79C-6.17,147.31.9,75.63,49.47,35.79,98.04-4.07,171.83,2.05,211.26,50.96Z"/>
      <path class="cls-1" d="M228.36,89.07c19.36,58.47-12.35,121.57-70.83,140.94-58.48,19.35-121.59-12.36-140.94-70.83C-2.77,100.7,28.95,37.59,87.43,18.24c58.48-19.36,121.58,12.36,140.94,70.83Z"/>
      <rect class="cls-1" x="-8.54" y="101.75" width="274.89" height="145.99"/>
    </g>
  </g>
</svg>