<?xml version="1.0" encoding="UTF-8" standalone="no"?>
<svg
   id="Capa_1"
   viewBox="0 0 250 99.999995"
   version="1.1"
   sodipodi:docname="UdG.svg"
   width="250"
   height="100"
   inkscape:version="1.3.2 (091e20e, 2023-11-25, custom)"
   xmlns:inkscape="http://www.inkscape.org/namespaces/inkscape"
   xmlns:sodipodi="http://sodipodi.sourceforge.net/DTD/sodipodi-0.dtd"
   xmlns="http://www.w3.org/2000/svg"
   xmlns:svg="http://www.w3.org/2000/svg">
  <sodipodi:namedview
     id="namedview25"
     pagecolor="#505050"
     bordercolor="#eeeeee"
     borderopacity="1"
     inkscape:showpageshadow="0"
     inkscape:pageopacity="0"
     inkscape:pagecheckerboard="0"
     inkscape:deskcolor="#505050"
     inkscape:zoom="4.0663809"
     inkscape:cx="90.375204"
     inkscape:cy="56.192473"
     inkscape:window-width="1920"
     inkscape:window-height="991"
     inkscape:window-x="-9"
     inkscape:window-y="-9"
     inkscape:window-maximized="1"
     inkscape:current-layer="Capa_1" />
  <defs
     id="defs1">
    <style
       id="style1">
      .cls-1 {
        fill: #fff;
      }
    </style>
  </defs>
  <path
     class="cls-1"
     d="m 83.324573,22.316026 v -0.572532 h 6.117312 v 0.572532 h -0.656182 c -0.67735,0 -1.195945,0.343519 -1.566371,1.017835 -0.179921,0.318073 -0.264589,1.043281 -0.264589,2.201068 v 8.409859 c 0,2.086561 -0.169338,3.702374 -0.508013,4.847438 -0.338674,1.145064 -1.026607,2.137453 -2.021464,2.95172 -1.005441,0.814268 -2.381307,1.234125 -4.106432,1.234125 -1.883878,0 -3.312662,-0.394411 -4.286352,-1.183233 -0.97369,-0.788822 -1.672207,-1.844825 -2.074383,-3.16801 -0.26459,-0.903329 -0.41276,-2.608202 -0.41276,-5.11462 v -8.117232 c 0,-1.272293 -0.14817,-2.112007 -0.433927,-2.506418 -0.285757,-0.394411 -0.762018,-0.597978 -1.4182,-0.597978 h -0.656183 v -0.572532 h 7.461428 v 0.572532 h -0.656182 c -0.7091,0 -1.227696,0.267182 -1.53462,0.814268 -0.211672,0.368965 -0.317508,1.132341 -0.317508,2.290128 v 9.046006 c 0,0.801545 0.0635,1.730319 0.179921,2.7736 0.127003,1.043281 0.349259,1.857548 0.666766,2.43008 0.317508,0.585255 0.783186,1.056004 1.397034,1.437692 0.603264,0.381688 1.354699,0.572532 2.233136,0.572532 1.132444,0 2.137885,-0.292628 3.026906,-0.890605 0.889021,-0.585255 1.502869,-1.348631 1.83096,-2.277406 0.328091,-0.928774 0.486845,-2.480972 0.486845,-4.694762 v -8.40986 c 0,-1.297739 -0.127003,-2.099284 -0.359842,-2.43008 -0.338674,-0.445303 -0.825519,-0.674316 -1.481702,-0.674316 h -0.656182 z"
     id="path1"
     style="stroke-width:1.16041" />
  <path
     class="cls-1"
     d="m 89.441885,25.891171 h 3.74659 l 8.445705,12.455752 v -9.567646 c 0,-1.017835 -0.0953,-1.653982 -0.28576,-1.90844 -0.25401,-0.34352 -0.6456,-0.508918 -1.19595,-0.508918 h -0.476257 v -0.458025 h 4.804947 v 0.458025 h -0.48684 c -0.5821,0 -0.99486,0.21629 -1.23828,0.636147 -0.14817,0.267182 -0.22226,0.852437 -0.22226,1.793934 v 13.995227 h -0.37042 L 93.061472,29.415423 v 10.229239 c 0,1.017835 0.09525,1.653982 0.275173,1.90844 0.254006,0.34352 0.656182,0.508918 1.195945,0.508918 h 0.486845 v 0.445302 H 90.214487 V 42.06202 h 0.476261 c 0.592681,0 1.005441,-0.21629 1.259447,-0.636147 0.14817,-0.254459 0.222255,-0.852436 0.222255,-1.781211 V 28.104961 c -0.402176,-0.559809 -0.7091,-0.941497 -0.910188,-1.119618 -0.211672,-0.178121 -0.508012,-0.343519 -0.910188,-0.496194 -0.201088,-0.07634 -0.497429,-0.101784 -0.899605,-0.101784 v -0.458026 z"
     id="path2"
     style="stroke-width:1.16041" />
  <path
     class="cls-1"
     d="M 111.21232,42.049297 V 42.4946 h -5.91622 v -0.445303 h 0.48684 c 0.57152,0 0.98428,-0.203567 1.23828,-0.597978 0.15876,-0.254459 0.24342,-0.890605 0.24342,-1.882994 V 28.842891 c 0,-0.839713 -0.0423,-1.399522 -0.13758,-1.666704 -0.0741,-0.203567 -0.21167,-0.381688 -0.41276,-0.52164 -0.29634,-0.190844 -0.61385,-0.292628 -0.94194,-0.292628 h -0.48685 v -0.458025 h 5.91623 v 0.458025 h -0.49743 c -0.56093,0 -0.97369,0.203567 -1.2277,0.597978 -0.16933,0.267182 -0.254,0.890606 -0.254,1.882994 v 10.725434 c 0,0.839713 0.0423,1.399522 0.127,1.666704 0.0741,0.203567 0.21167,0.381688 0.42334,0.52164 0.29634,0.190844 0.60327,0.292628 0.93136,0.292628 h 0.49743 z"
     id="path3"
     style="stroke-width:1.16041" />
  <path
     class="cls-1"
     d="m 126.52677,25.891171 v 0.458025 c -0.48684,0.101784 -0.85727,0.292628 -1.11128,0.559809 -0.35984,0.407134 -0.67735,1.017835 -0.95252,1.844826 l -4.81553,14.122457 h -0.37043 l -5.17537,-14.313301 c -0.26459,-0.73793 -0.45509,-1.183233 -0.56093,-1.348631 -0.16934,-0.254459 -0.37042,-0.445303 -0.62443,-0.597978 -0.24342,-0.152675 -0.5821,-0.229013 -1.00544,-0.279905 v -0.458025 h 5.64105 v 0.458025 c -0.63502,0.07634 -1.05836,0.203567 -1.24886,0.394411 -0.19051,0.190844 -0.28576,0.43258 -0.28576,0.725208 0,0.407133 0.15875,1.04328 0.46568,1.90844 l 3.51375,9.733044 3.25974,-9.605815 c 0.31751,-0.95422 0.47626,-1.60309 0.47626,-1.972055 0,-0.241736 -0.0952,-0.458025 -0.29634,-0.687038 -0.20108,-0.21629 -0.52918,-0.368965 -0.99485,-0.458026 -0.0317,0 -0.0953,-0.02545 -0.16934,-0.03817 v -0.458025 h 4.2546 z"
     id="path4"
     style="stroke-width:1.16041" />
  <path
     class="cls-1"
     d="m 131.14121,26.807222 v 6.565034 h 3.03749 c 0.79377,0 1.31237,-0.139952 1.57696,-0.43258 0.34926,-0.381688 0.55034,-1.030558 0.59268,-1.984778 h 0.38101 v 5.776212 h -0.38101 c -0.0953,-0.801544 -0.19051,-1.323185 -0.28576,-1.552197 -0.11642,-0.279905 -0.32809,-0.508918 -0.60326,-0.674316 -0.27518,-0.165398 -0.7091,-0.241736 -1.28062,-0.241736 h -3.03749 v 5.470862 c 0,0.73793 0.0317,1.183233 0.0847,1.335908 0.0529,0.152675 0.14817,0.279904 0.28576,0.381688 0.13759,0.08906 0.39159,0.139952 0.7726,0.139952 h 2.33897 c 0.78319,0 1.34412,-0.06361 1.70396,-0.190844 0.35984,-0.127229 0.68793,-0.381688 1.01603,-0.763376 0.42334,-0.508917 0.84668,-1.272293 1.29119,-2.290128 h 0.40218 l -1.18536,4.160399 H 127.20412 V 42.06202 h 0.48685 c 0.32809,0 0.63501,-0.101784 0.92077,-0.279905 0.22225,-0.127229 0.35984,-0.330796 0.44451,-0.585255 0.0741,-0.267181 0.11642,-0.801545 0.11642,-1.603089 V 28.804723 c 0,-1.056004 -0.0847,-1.704874 -0.26459,-1.946609 -0.24342,-0.330797 -0.6456,-0.483472 -1.21711,-0.483472 h -0.48685 v -0.458025 h 10.64709 l 0.15875,3.638759 h -0.40217 c -0.13759,-0.877883 -0.29635,-1.475861 -0.47627,-1.793934 -0.17992,-0.318073 -0.42334,-0.572532 -0.7726,-0.750653 -0.27517,-0.127229 -0.75143,-0.178121 -1.43937,-0.178121 h -3.78892 z"
     id="path5"
     style="stroke-width:1.16041" />
  <path
     class="cls-1"
     d="m 143.80977,33.970234 c 0.127,0 0.24342,0 0.33867,0 0.0952,0 0.17992,0 0.23284,0 1.31236,0 2.30722,-0.343519 2.97399,-1.030558 0.66676,-0.687038 1.00544,-1.552198 1.00544,-2.620924 0,-1.068727 -0.27517,-1.882995 -0.81494,-2.531864 -0.53976,-0.64887 -1.25944,-0.966943 -2.14847,-0.966943 -0.39159,0 -0.92077,0.07634 -1.59812,0.229013 v 6.908553 z m 9.8004,8.524366 h -3.68309 l -4.67795,-7.76099 c -0.34925,0 -0.62443,0.02545 -0.84668,0.02545 -0.0847,0 -0.17992,0 -0.28576,0 -0.10584,0 -0.20109,0 -0.31751,-0.01272 v 4.821992 c 0,1.04328 0.0953,1.69215 0.28576,1.946609 0.26459,0.356242 0.6456,0.534363 1.16419,0.534363 h 0.53977 V 42.4946 h -5.91623 v -0.445303 h 0.5186 c 0.5821,0 1.00544,-0.229013 1.24886,-0.687039 0.13759,-0.254458 0.21167,-0.852436 0.21167,-1.806656 V 28.830168 c 0,-1.04328 -0.0952,-1.69215 -0.28575,-1.946608 -0.26459,-0.356243 -0.65619,-0.534364 -1.18537,-0.534364 h -0.51859 v -0.458025 h 5.0272 c 1.47112,0 2.55065,0.127229 3.23858,0.394411 0.69852,0.254458 1.2912,0.725207 1.77804,1.412245 0.48685,0.699762 0.73027,1.514029 0.73027,2.46825 0,1.017834 -0.27517,1.90844 -0.8361,2.659093 -0.55035,0.750653 -1.40762,1.285016 -2.57182,1.590366 l 2.84699,4.758378 c 0.6456,1.094172 1.21711,1.819379 1.68279,2.175621 0.46568,0.356243 1.07953,0.585255 1.83096,0.687039 v 0.445303 z"
     id="path6"
     style="stroke-width:1.16041" />
  <path
     class="cls-1"
     d="m 162.98722,25.522206 v 5.738043 h -0.37042 c -0.127,-1.106895 -0.34926,-1.984778 -0.65618,-2.633648 -0.31751,-0.661592 -0.77261,-1.170509 -1.3547,-1.552197 -0.5821,-0.381688 -1.18536,-0.572532 -1.8098,-0.572532 -0.7091,0 -1.29119,0.254458 -1.75687,0.776098 -0.46568,0.521641 -0.68793,1.106896 -0.68793,1.768488 0,0.508918 0.14817,0.966943 0.43392,1.3868 0.42335,0.610701 1.4182,1.424969 3.00574,2.442803 1.2912,0.826991 2.16964,1.475861 2.6459,1.921163 0.47626,0.445303 0.8361,0.966943 1.09011,1.564921 0.254,0.610701 0.38101,1.234125 0.38101,1.895718 0,1.25957 -0.40218,2.341019 -1.21712,3.244348 -0.81493,0.916051 -1.85212,1.361354 -3.13274,1.361354 -0.40217,0 -0.78318,-0.03817 -1.13244,-0.114507 -0.21167,-0.03817 -0.6456,-0.190844 -1.30178,-0.445302 -0.65618,-0.254459 -1.07953,-0.394411 -1.25945,-0.394411 -0.17992,0 -0.30692,0.06361 -0.40218,0.178121 -0.0952,0.127229 -0.16933,0.381688 -0.22225,0.763376 h -0.37043 V 37.16369 h 0.37043 c 0.17992,1.195956 0.41276,2.086561 0.71968,2.671816 0.29634,0.585255 0.75144,1.08145 1.36529,1.475861 0.61384,0.381688 1.28061,0.585255 2.02146,0.585255 0.84669,0 1.52404,-0.267182 2.01088,-0.801545 0.48685,-0.534363 0.74085,-1.17051 0.74085,-1.90844 0,-0.407134 -0.0952,-0.814268 -0.27517,-1.234125 -0.1905,-0.419857 -0.47626,-0.801545 -0.86785,-1.157787 -0.26459,-0.241736 -0.98428,-0.763376 -2.16964,-1.564921 -1.18536,-0.788822 -2.02146,-1.424968 -2.51889,-1.895717 -0.49743,-0.470748 -0.87844,-0.992389 -1.13245,-1.564921 -0.254,-0.572532 -0.38101,-1.208679 -0.38101,-1.882994 0,-1.195956 0.38101,-2.213791 1.14303,-3.07895 0.76202,-0.86516 1.72513,-1.285016 2.8999,-1.285016 0.73027,0 1.51346,0.216289 2.32839,0.648869 0.38101,0.203567 0.6456,0.305351 0.80436,0.305351 0.17992,0 0.32809,-0.06361 0.43392,-0.190844 0.11642,-0.12723 0.20109,-0.381688 0.27518,-0.763376 h 0.37042 z"
     id="path7"
     style="stroke-width:1.16041" />
  <path
     class="cls-1"
     d="M 171.46468,42.049297 V 42.4946 h -5.91623 v -0.445303 h 0.48685 c 0.57151,0 0.98427,-0.203567 1.23828,-0.597978 0.15875,-0.254459 0.24342,-0.890605 0.24342,-1.882994 V 28.842891 c 0,-0.839713 -0.0423,-1.399522 -0.127,-1.666704 -0.0741,-0.203567 -0.21168,-0.381688 -0.41276,-0.52164 -0.29634,-0.190844 -0.61385,-0.292628 -0.94194,-0.292628 h -0.48685 v -0.458025 h 5.91623 v 0.458025 h -0.49743 c -0.56093,0 -0.97369,0.203567 -1.2277,0.597978 -0.16934,0.267182 -0.254,0.890606 -0.254,1.882994 v 10.725434 c 0,0.839713 0.0423,1.399522 0.127,1.666704 0.0741,0.203567 0.21167,0.381688 0.42334,0.52164 0.29634,0.190844 0.60327,0.292628 0.93136,0.292628 z"
     id="path8"
     style="stroke-width:1.16041" />
  <path
     class="cls-1"
     d="m 176.26962,41.298644 c 0.85728,0.229013 1.58754,0.343519 2.16964,0.343519 1.57695,0 2.87874,-0.661593 3.91593,-1.997501 1.03719,-1.323185 1.55578,-3.129841 1.55578,-5.407247 0,-2.277405 -0.51859,-4.096784 -1.55578,-5.419969 -1.03719,-1.323186 -2.37073,-1.984778 -4.0006,-1.984778 -0.61385,0 -1.30178,0.114506 -2.08497,0.356242 z m -3.93709,1.195956 v -0.445303 h 0.5186 c 0.58209,0 0.99485,-0.229013 1.23828,-0.674316 0.14817,-0.267181 0.22225,-0.877882 0.22225,-1.806656 V 28.842891 c 0,-1.030557 -0.0952,-1.679427 -0.28576,-1.946609 -0.26459,-0.356242 -0.65618,-0.534363 -1.18536,-0.534363 h -0.51859 v -0.458025 h 5.61988 c 2.0638,0 3.63017,0.279904 4.7097,0.839713 1.07952,0.559809 1.93679,1.501306 2.59298,2.811769 0.65618,1.310462 0.98427,2.837214 0.98427,4.55481 0,2.315574 -0.5821,4.236737 -1.75688,5.788935 -1.31236,1.730319 -3.31266,2.595479 -5.99031,2.595479 h -6.17023 z"
     id="path9"
     style="stroke-width:1.16041" />
  <path
     class="cls-1"
     d="m 196.29377,36.031349 -2.33897,-6.704986 -2.40248,6.704986 z m 0.28576,0.903328 h -5.34471 l -0.93136,2.620925 c -0.23284,0.648869 -0.34926,1.119618 -0.34926,1.450414 0,0.254459 0.10584,0.470749 0.29634,0.661593 0.20109,0.190844 0.63502,0.318073 1.30178,0.381688 V 42.4946 h -4.34985 v -0.445303 c 0.5821,-0.127229 0.95252,-0.279905 1.12186,-0.483472 0.34926,-0.394411 0.73027,-1.183232 1.15361,-2.391911 l 4.85787,-13.664431 h 0.35984 l 4.80495,13.804383 c 0.38101,1.106895 0.74085,1.832103 1.05835,2.162899 0.31751,0.330796 0.76202,0.52164 1.32295,0.559809 v 0.445303 h -5.45054 v -0.445303 c 0.55034,-0.03817 0.92077,-0.152675 1.11127,-0.330796 0.19051,-0.178121 0.29634,-0.407134 0.29634,-0.687039 0,-0.356242 -0.13758,-0.928774 -0.41276,-1.704873 l -0.8361,-2.391912 z"
     id="path10"
     style="stroke-width:1.16041" />
  <path
     class="cls-1"
     d="m 206.39051,41.298644 c 0.85727,0.229013 1.58754,0.343519 2.16964,0.343519 1.57695,0 2.87873,-0.661593 3.91592,-1.997501 1.03719,-1.323185 1.55579,-3.129841 1.55579,-5.407247 0,-2.277405 -0.5186,-4.096784 -1.55579,-5.419969 -1.03719,-1.323186 -2.37072,-1.984778 -4.00059,-1.984778 -0.61385,0 -1.30178,0.114506 -2.08497,0.356242 z m -3.93709,1.195956 v -0.445303 h 0.51859 c 0.5821,0 0.99486,-0.229013 1.23828,-0.674316 0.14817,-0.267181 0.22226,-0.877882 0.22226,-1.806656 V 28.842891 c 0,-1.030557 -0.0953,-1.679427 -0.28576,-1.946609 -0.26459,-0.356242 -0.65618,-0.534363 -1.18536,-0.534363 h -0.5186 v -0.458025 h 5.61989 c 2.0638,0 3.63017,0.279904 4.70969,0.839713 1.07953,0.559809 1.9368,1.501306 2.59298,2.811769 0.65618,1.310462 0.98428,2.837214 0.98428,4.55481 0,2.315574 -0.5821,4.236737 -1.75688,5.788935 -1.31236,1.730319 -3.31266,2.595479 -5.99031,2.595479 h -6.17023 z"
     id="path11"
     style="stroke-width:1.16041" />
  <path
     class="cls-1"
     d="m 226.66866,41.298644 c 0.85727,0.229013 1.58754,0.343519 2.16964,0.343519 1.57695,0 2.87873,-0.661593 3.91592,-1.997501 1.03719,-1.323185 1.55579,-3.129841 1.55579,-5.407247 0,-2.277405 -0.5186,-4.096784 -1.55579,-5.419969 -1.03719,-1.323186 -2.37072,-1.984778 -4.00059,-1.984778 -0.61385,0 -1.30178,0.114506 -2.08497,0.356242 z m -3.93709,1.195956 v -0.445303 h 0.51859 c 0.5821,0 0.99486,-0.229013 1.23828,-0.674316 0.14817,-0.267181 0.22226,-0.877882 0.22226,-1.806656 V 28.842891 c 0,-1.030557 -0.0952,-1.679427 -0.28576,-1.946609 -0.26459,-0.356242 -0.65618,-0.534363 -1.18536,-0.534363 h -0.5186 v -0.458025 h 5.61989 c 2.0638,0 3.63017,0.279904 4.70969,0.839713 1.07953,0.559809 1.9368,1.501306 2.59298,2.811769 0.65618,1.310462 0.98428,2.837214 0.98428,4.55481 0,2.315574 -0.5821,4.236737 -1.75688,5.788935 -1.31236,1.730319 -3.31266,2.595479 -5.99031,2.595479 h -6.17023 z"
     id="path12"
     style="stroke-width:1.16041" />
  <path
     class="cls-1"
     d="m 241.79261,26.807222 v 6.565034 h 3.03748 c 0.79377,0 1.31237,-0.139952 1.57696,-0.43258 0.34926,-0.381688 0.55035,-1.030558 0.59268,-1.984778 h 0.37043 v 5.776212 h -0.37043 c -0.0952,-0.801544 -0.1905,-1.323185 -0.28576,-1.552197 -0.11642,-0.279905 -0.32809,-0.508918 -0.60326,-0.674316 -0.27517,-0.165398 -0.7091,-0.241736 -1.28062,-0.241736 h -3.03748 v 5.470862 c 0,0.73793 0.0318,1.183233 0.0847,1.335908 0.0529,0.152675 0.14817,0.279904 0.28576,0.381688 0.13759,0.08906 0.39159,0.139952 0.7726,0.139952 h 2.33898 c 0.78318,0 1.34411,-0.06361 1.70395,-0.190844 0.35984,-0.127229 0.68794,-0.381688 1.01603,-0.763376 0.42334,-0.508917 0.84668,-1.272293 1.29119,-2.290128 h 0.40218 l -1.18536,4.160399 H 237.85551 V 42.06202 h 0.48685 c 0.32809,0 0.63501,-0.101784 0.92077,-0.279905 0.22225,-0.127229 0.35984,-0.330796 0.44451,-0.585255 0.0741,-0.267181 0.11642,-0.801545 0.11642,-1.603089 V 28.804723 c 0,-1.056004 -0.0847,-1.704874 -0.26459,-1.946609 -0.24342,-0.330797 -0.6456,-0.483472 -1.21711,-0.483472 h -0.48685 v -0.458025 h 10.64709 l 0.15875,3.638759 h -0.40217 c -0.13759,-0.877883 -0.29634,-1.475861 -0.47626,-1.793934 -0.16934,-0.330796 -0.42335,-0.572532 -0.77261,-0.750653 -0.27517,-0.127229 -0.75143,-0.178121 -1.43936,-0.178121 h -3.78893 z"
     id="path13"
     style="stroke-width:1.16041" />
  <path
     class="cls-1"
     d="m 88.150688,50.395542 0.497428,7.404747 H 88.150688 C 87.642676,55.955464 86.97591,54.568664 86.171557,53.627167 85.007363,52.278536 83.515077,51.60422 81.6947,51.60422 c -2.487142,0 -4.381604,1.183233 -5.672802,3.549699 -1.090109,1.997501 -1.629872,4.376689 -1.629872,7.137566 0,2.239236 0.359842,4.287629 1.079526,6.132454 0.719684,1.844825 1.661623,3.206179 2.836401,4.058616 1.164194,0.86516 2.370723,1.297739 3.598419,1.297739 0.719684,0 1.418201,-0.114506 2.084966,-0.330796 0.67735,-0.21629 1.322949,-0.547086 1.94738,-0.966943 v -6.794047 c 0,-1.17051 -0.07408,-1.946609 -0.222255,-2.315574 -0.14817,-0.356242 -0.381009,-0.636146 -0.698517,-0.82699 -0.306924,-0.190844 -0.85727,-0.292628 -1.651039,-0.292628 v -0.661593 h 7.567264 v 0.661593 h -0.359842 c -0.751435,0 -1.259447,0.30535 -1.545204,0.903328 -0.190504,0.419857 -0.285756,1.272294 -0.285756,2.519141 v 7.188458 c -1.111277,0.712484 -2.201386,1.246848 -3.270328,1.577644 -1.079526,0.343519 -2.275471,0.496194 -3.587836,0.496194 -3.767757,0 -6.635909,-1.450414 -8.604456,-4.363966 -1.471118,-2.188345 -2.201385,-4.694763 -2.201385,-7.557423 0,-2.061115 0.412759,-4.045893 1.238279,-5.94161 0.97369,-2.251959 2.328389,-3.982278 4.032346,-5.190957 1.428785,-1.005112 3.122158,-1.501306 5.069538,-1.501306 0.7091,0 1.354699,0.06361 1.936796,0.203567 0.582098,0.139952 1.397034,0.445302 2.465976,0.916051 0.539763,0.241736 0.899605,0.356242 1.079526,0.356242 0.179921,0 0.338674,-0.101783 0.465677,-0.30535 0.127003,-0.203567 0.201089,-0.597978 0.232839,-1.183233 h 0.539763 z"
     id="path14"
     style="stroke-width:1.16041" />
  <path
     class="cls-1"
     d="m 102.60787,56.146308 v -0.521641 h 5.53521 v 0.521641 h -0.59268 c -0.61385,0 -1.09011,0.30535 -1.4182,0.928774 -0.15875,0.292627 -0.24342,0.95422 -0.24342,1.997501 v 7.621037 c 0,1.882994 -0.14817,3.346132 -0.46568,4.389412 -0.30692,1.043281 -0.92077,1.933886 -1.83096,2.671816 -0.91019,0.737931 -2.14847,1.119619 -3.714839,1.119619 -1.703957,0 -3.005738,-0.356243 -3.884176,-1.068727 -0.889021,-0.712484 -1.513453,-1.666704 -1.883878,-2.86266 -0.243423,-0.826991 -0.370426,-2.366466 -0.370426,-4.631148 v -7.341133 c 0,-1.157787 -0.127003,-1.90844 -0.402176,-2.264682 -0.26459,-0.356242 -0.687933,-0.534363 -1.280614,-0.534363 H 91.46335 v -0.521641 h 6.752328 v 0.521641 h -0.603264 c -0.645599,0 -1.111277,0.241735 -1.38645,0.73793 -0.190505,0.330796 -0.285757,1.030557 -0.285757,2.073838 v 8.19357 c 0,0.725207 0.05292,1.56492 0.169337,2.506418 0.11642,0.941497 0.317508,1.679427 0.603265,2.201067 0.285757,0.52164 0.7091,0.95422 1.259447,1.297739 0.550346,0.34352 1.227696,0.521641 2.021465,0.521641 1.026609,0 1.936799,-0.267182 2.741149,-0.801545 0.80435,-0.534363 1.36528,-1.221402 1.65104,-2.061115 0.29634,-0.839714 0.44451,-2.25196 0.44451,-4.24946 v -7.608315 c 0,-1.17051 -0.10584,-1.90844 -0.31751,-2.201068 -0.30692,-0.407133 -0.75143,-0.6107 -1.33353,-0.6107 h -0.59268 z"
     id="path15"
     style="stroke-width:1.16041" />
  <path
     class="cls-1"
     d="m 118.87484,67.100754 -2.65648,-7.595592 -2.71998,7.595592 h 5.36587 z m 0.31751,1.030558 h -6.05382 l -1.05835,2.964443 c -0.26459,0.725207 -0.3916,1.272294 -0.3916,1.641259 0,0.279904 0.11642,0.534363 0.33868,0.750653 0.23284,0.21629 0.71968,0.356242 1.47112,0.419857 v 0.508917 h -4.92137 v -0.508917 c 0.65618,-0.139953 1.06894,-0.318074 1.27003,-0.547087 0.39159,-0.445302 0.82552,-1.348631 1.30178,-2.697262 l 5.50346,-15.458364 h 0.40218 l 5.43996,15.623763 c 0.43393,1.25957 0.83611,2.073838 1.19595,2.442803 0.35984,0.368965 0.85727,0.585255 1.49229,0.636147 v 0.508917 h -6.17024 v -0.508917 c 0.62444,-0.03817 1.0372,-0.165399 1.25945,-0.381688 0.22226,-0.203567 0.32809,-0.470749 0.32809,-0.776099 0,-0.407134 -0.15875,-1.043281 -0.46568,-1.921163 z"
     id="path16"
     style="stroke-width:1.16041" />
  <path
     class="cls-1"
     d="m 130.30511,73.055087 c 0.97369,0.254459 1.78863,0.381688 2.45539,0.381688 1.77805,0 3.25975,-0.750653 4.43453,-2.264682 1.17477,-1.501306 1.76745,-3.549699 1.76745,-6.119731 0,-2.570033 -0.59268,-4.643871 -1.76745,-6.132455 -1.17478,-1.501306 -2.67765,-2.251959 -4.52978,-2.251959 -0.68793,0 -1.4817,0.127229 -2.36014,0.407134 z m -4.45569,1.361354 v -0.508917 h 0.5821 c 0.65618,0 1.13244,-0.254459 1.40762,-0.763376 0.16933,-0.305351 0.254,-0.992389 0.254,-2.048393 V 58.958076 c 0,-1.17051 -0.10583,-1.90844 -0.31751,-2.201067 -0.29634,-0.407134 -0.75143,-0.610701 -1.33353,-0.610701 H 125.86 v -0.521641 h 6.36074 c 2.32839,0 4.10643,0.318074 5.33413,0.95422 1.21711,0.636147 2.1908,1.704874 2.94223,3.180734 0.74086,1.488583 1.11128,3.206179 1.11128,5.152788 0,2.620925 -0.66677,4.796546 -1.97913,6.552311 -1.4817,1.959332 -3.74659,2.938998 -6.77349,2.938998 h -6.98517 z"
     id="path17"
     style="stroke-width:1.16041" />
  <path
     class="cls-1"
     d="m 152.95398,67.100754 -2.64589,-7.595592 -2.71998,7.595592 z m 0.3281,1.030558 h -6.05382 l -1.05835,2.964443 c -0.26459,0.725207 -0.3916,1.272294 -0.3916,1.641259 0,0.279904 0.11642,0.534363 0.33868,0.750653 0.23284,0.21629 0.71968,0.356242 1.47112,0.419857 v 0.508917 h -4.92137 v -0.508917 c 0.65618,-0.139953 1.07953,-0.318074 1.27003,-0.547087 0.39159,-0.445302 0.82552,-1.348631 1.30178,-2.697262 l 5.50347,-15.458364 h 0.40217 l 5.43996,15.623763 c 0.43393,1.25957 0.83611,2.073838 1.19595,2.442803 0.35984,0.368965 0.85727,0.585255 1.49229,0.636147 v 0.508917 h -6.17023 v -0.508917 c 0.62443,-0.03817 1.03719,-0.165399 1.25944,-0.381688 0.22226,-0.203567 0.32809,-0.470749 0.32809,-0.776099 0,-0.407134 -0.15875,-1.043281 -0.46567,-1.921163 z"
     id="path18"
     style="stroke-width:1.16041" />
  <path
     class="cls-1"
     d="m 173.05221,69.225484 0.38101,0.101783 -1.33353,5.101897 h -12.09704 v -0.508917 h 0.59268 c 0.65619,0 1.13245,-0.254459 1.4182,-0.776099 0.15876,-0.292628 0.24343,-0.979666 0.24343,-2.048393 V 58.970799 c 0,-1.17051 -0.10584,-1.90844 -0.31751,-2.201067 -0.29634,-0.407134 -0.74085,-0.610701 -1.33353,-0.610701 h -0.59268 V 55.63739 h 7.08042 v 0.521641 c -0.82552,0 -1.40762,0.07634 -1.7463,0.279904 -0.33867,0.190844 -0.56093,0.445303 -0.68793,0.73793 -0.127,0.292628 -0.17992,1.005112 -0.17992,2.12473 v 11.806883 c 0,0.763376 0.0635,1.285016 0.17992,1.577644 0.0953,0.190844 0.23284,0.330796 0.42334,0.43258 0.19051,0.08906 0.79377,0.139952 1.79921,0.139952 h 1.14303 c 1.19595,0 2.04263,-0.101783 2.52948,-0.318073 0.48684,-0.21629 0.92077,-0.585255 1.32295,-1.132342 0.40217,-0.534363 0.79377,-1.399522 1.19594,-2.557309"
     id="path19"
     style="stroke-width:1.16041" />
  <path
     class="cls-1"
     d="m 184.41899,67.100754 -2.65648,-7.595592 -2.71999,7.595592 h 5.36588 z m 0.32809,1.030558 h -6.05381 l -1.05836,2.964443 c -0.26459,0.725207 -0.3916,1.272294 -0.3916,1.641259 0,0.279904 0.11642,0.534363 0.33868,0.750653 0.23284,0.21629 0.71968,0.356242 1.47112,0.419857 v 0.508917 h -4.92137 v -0.508917 c 0.65618,-0.139953 1.06894,-0.318074 1.27003,-0.547087 0.39159,-0.445302 0.82552,-1.348631 1.30178,-2.697262 l 5.50347,-15.458364 h 0.40217 l 5.43997,15.623763 c 0.43392,1.25957 0.8361,2.073838 1.19594,2.442803 0.35984,0.368965 0.85727,0.585255 1.49229,0.636147 v 0.508917 h -6.17023 v -0.508917 c 0.62443,-0.03817 1.03719,-0.165399 1.25944,-0.381688 0.22226,-0.203567 0.32809,-0.470749 0.32809,-0.776099 0,-0.407134 -0.15875,-1.043281 -0.46567,-1.921163 z"
     id="path20"
     style="stroke-width:1.16041" />
  <path
     class="cls-1"
     d="m 193.34095,56.146308 v -0.521641 h 6.69941 v 0.521641 h -0.56093 c -0.63502,0 -1.10069,0.229013 -1.39703,0.674315 -0.17993,0.292628 -0.27518,1.005112 -0.27518,2.137453 v 9.185959 c 0,1.412245 -0.127,2.557309 -0.38101,3.435192 -0.254,0.877882 -0.69851,1.641258 -1.33353,2.290128 -0.62443,0.648869 -1.39703,0.979666 -2.28605,0.979666 -0.71969,0 -1.2912,-0.21629 -1.70396,-0.64887 -0.41276,-0.43258 -0.62443,-0.928774 -0.62443,-1.47586 0,-0.458026 0.0952,-0.788822 0.28575,-1.030558 0.25401,-0.292627 0.55035,-0.43258 0.88903,-0.43258 0.24342,0 0.46567,0.08906 0.65618,0.292628 0.20109,0.190844 0.44451,0.712484 0.74085,1.552198 0.17992,0.496194 0.40218,0.750653 0.67735,0.750653 0.21167,0 0.40218,-0.152675 0.5821,-0.458026 0.17992,-0.30535 0.27517,-0.852436 0.27517,-1.615812 V 58.958076 c 0,-0.95422 -0.0529,-1.577644 -0.14817,-1.882994 -0.0741,-0.229013 -0.24342,-0.43258 -0.48685,-0.597978 -0.32809,-0.21629 -0.67735,-0.330796 -1.04777,-0.330796 z"
     id="path21"
     style="stroke-width:1.16041" />
  <path
     class="cls-1"
     d="m 210.64511,67.100754 -2.65648,-7.595592 -2.71998,7.595592 h 5.36588 z m 0.32809,1.030558 h -6.05381 l -1.05836,2.964443 c -0.26459,0.725207 -0.39159,1.272294 -0.39159,1.641259 0,0.279904 0.11642,0.534363 0.33868,0.750653 0.23283,0.21629 0.71968,0.356242 1.47111,0.419857 v 0.508917 h -4.92136 v -0.508917 c 0.65618,-0.139953 1.07952,-0.318074 1.27003,-0.547087 0.39159,-0.445302 0.82552,-1.348631 1.30178,-2.697262 l 5.50346,-15.458364 h 0.40218 l 5.43996,15.623763 c 0.43393,1.25957 0.83611,2.073838 1.19595,2.442803 0.35984,0.368965 0.85727,0.585255 1.49228,0.636147 v 0.508917 h -6.17023 v -0.508917 c 0.62443,-0.03817 1.03719,-0.165399 1.25945,-0.381688 0.22225,-0.203567 0.32809,-0.470749 0.32809,-0.776099 0,-0.407134 -0.15875,-1.043281 -0.46568,-1.921163 z"
     id="path22"
     style="stroke-width:1.16041" />
  <path
     class="cls-1"
     d="m 222.0648,64.759734 c 0.14817,0 0.27517,0 0.38101,0 0.10584,0 0.20109,0 0.26459,0 1.49229,0 2.61415,-0.381688 3.37616,-1.157787 0.76202,-0.776099 1.13245,-1.768488 1.13245,-2.964444 0,-1.195955 -0.30693,-2.12473 -0.92077,-2.86266 -0.61385,-0.73793 -1.4182,-1.106895 -2.42365,-1.106895 -0.44451,0 -1.04777,0.08906 -1.80979,0.267182 v 7.811881 z m 11.10218,9.656707 h -4.16993 l -5.29179,-8.778824 c -0.3916,0.01272 -0.7091,0.02544 -0.95253,0.02544 -0.0953,0 -0.20108,0 -0.3175,0 -0.11642,0 -0.23284,0 -0.35984,-0.01272 v 5.458139 c 0,1.183233 0.10583,1.921163 0.3175,2.201068 0.29634,0.407134 0.73027,0.610701 1.31237,0.610701 h 0.61385 v 0.508917 h -6.69941 v -0.508917 h 0.58209 c 0.65618,0 1.13245,-0.254459 1.4182,-0.776099 0.15876,-0.292628 0.24343,-0.966943 0.24343,-2.03567 V 58.970799 c 0,-1.183233 -0.10584,-1.921163 -0.3281,-2.201067 -0.29634,-0.407134 -0.75143,-0.610701 -1.33353,-0.610701 H 217.6197 V 55.63739 h 5.69396 c 1.66163,0 2.87874,0.152676 3.67251,0.445303 0.78318,0.292628 1.46053,0.826991 2.01088,1.60309 0.55035,0.788822 0.82552,1.717596 0.82552,2.799045 0,1.157787 -0.30692,2.150176 -0.94194,3.002613 -0.62443,0.852436 -1.58754,1.450414 -2.91049,1.793933 l 3.228,5.394524 c 0.74085,1.234125 1.37586,2.061116 1.90504,2.46825 0.52918,0.407133 1.2277,0.661592 2.07439,0.776099 v 0.508917 z"
     id="path23"
     style="stroke-width:1.16041" />
  <path
     class="cls-1"
     d="m 243.43306,67.100754 -2.65648,-7.595592 -2.71998,7.595592 h 5.36588 z m 0.32809,1.030558 h -6.05381 l -1.05836,2.964443 c -0.26459,0.725207 -0.39159,1.272294 -0.39159,1.641259 0,0.279904 0.11642,0.534363 0.33868,0.750653 0.23283,0.21629 0.71968,0.356242 1.47111,0.419857 v 0.508917 h -4.92136 v -0.508917 c 0.65618,-0.139953 1.07952,-0.318074 1.27003,-0.547087 0.39159,-0.445302 0.82552,-1.348631 1.30178,-2.697262 l 5.50346,-15.458364 h 0.40218 l 5.43996,15.623763 c 0.43393,1.25957 0.8361,2.073838 1.19595,2.442803 0.35984,0.368965 0.85727,0.585255 1.49228,0.636147 v 0.508917 h -6.17023 v -0.508917 c 0.62443,-0.03817 1.03719,-0.165399 1.25945,-0.381688 0.22225,-0.203567 0.32809,-0.470749 0.32809,-0.776099 0,-0.407134 -0.15875,-1.043281 -0.46568,-1.921163 z"
     id="path24"
     style="stroke-width:1.16041" />
  <path
     class="cls-1"
     d="M 37.144611,10.19107 V 9.3640794 H 35.95927 V 10.19107 h -0.762845 v 1.310462 h 0.762845 v 0.839714 h 1.185341 v -0.839714 h 0.751107 V 10.19107 Z m 0.575066,1.106895 h -0.762844 v 0.839714 H 36.13531 V 11.297965 H 35.372466 V 10.394637 H 36.13531 V 9.5549234 h 0.821523 v 0.8397136 h 0.762844 z M 29.328398,10.19107 V 9.3640794 H 28.143057 V 10.19107 H 27.39195 v 1.310462 h 0.751107 v 0.839714 h 1.185341 v -0.839714 h 0.751108 V 10.19107 Z m 0.575067,1.106895 h -0.762843 v 0.839714 h -0.821524 v -0.839714 h -0.751107 v -0.903328 h 0.751107 V 9.5549234 h 0.821524 v 0.8397136 h 0.762843 z M 37.144611,1.8702713 V 1.0305577 H 35.95927 v 0.8397136 h -0.762845 v 1.2977393 h 0.762845 v 0.8397136 h 1.185341 V 3.1680106 h 0.751107 V 1.8702713 Z m 0.575066,1.1068953 H 36.956833 V 3.8168802 H 36.13531 V 2.9771666 H 35.372466 V 2.0611153 H 36.13531 V 1.2341246 h 0.821523 v 0.8269907 h 0.762844 z M 29.328398,1.8702713 V 1.0305577 H 28.143057 V 1.8702713 H 27.39195 v 1.2977393 h 0.751107 v 0.8397136 h 1.185341 V 3.1680106 h 0.751108 V 1.8702713 Z m 0.575067,1.1068953 H 29.140622 V 3.8168802 H 28.319098 V 2.9771666 H 27.567991 V 2.0611153 h 0.751107 V 1.2341246 h 0.821524 v 0.8269907 h 0.762843 z m -1.244021,27.9395634 0.50465,-1.29774 0.50465,1.29774 -0.50465,1.285016 z m 1.478743,0 0.633746,-1.628536 0.633747,1.628536 -0.633747,1.628535 z m 6.466565,0 -0.50465,-1.29774 -0.504651,1.29774 0.504651,1.285016 z m -1.490479,0 -0.633746,-1.628536 -0.633748,1.628536 0.633748,1.628535 z m -1.807352,0 -0.727635,-1.882995 -0.739372,1.882995 0.739372,1.882994 z m 15.550272,48.461655 v -1.361354 h 0.09389 c 0.02348,0.267182 0.03521,0.330797 0.164304,0.330797 0.105622,0 0.410763,-0.12723 0.539859,-0.190844 v -0.941498 c -0.293401,-0.114506 -0.457705,-0.178121 -0.528122,-0.178121 -0.152569,0 -0.164305,0.190844 -0.176041,0.34352 h -0.09389 v -0.852437 h 0.09389 c 0.03521,0.229013 0.176041,0.279905 0.481178,0.407134 l 2.218114,0.928774 v 0.114506 l -2.135962,0.941498 c -0.434233,0.190844 -0.575066,0.267181 -0.575066,0.458025 h -0.09389 z m 0.962356,-1.285016 0.985829,-0.419857 -0.985829,-0.394411 z m 1.689992,-2.226514 c -0.01173,-0.241735 -0.02348,-0.381688 -0.363818,-0.381688 h -1.772145 c -0.739371,0 -0.891939,-0.483471 -0.891939,-0.916051 0,-0.636147 0.44597,-0.712484 0.516387,-0.712484 0.222984,0 0.305137,0.178121 0.305137,0.30535 0,0.08906 -0.08215,0.305351 -0.293402,0.305351 -0.152568,0 -0.152568,-0.114507 -0.269929,-0.114507 -0.07041,0 -0.11736,0.06362 -0.11736,0.190844 0,0.279905 0.234721,0.279905 0.352081,0.279905 h 2.253322 c 0.281666,0 0.281666,-0.178121 0.281666,-0.419857 h 0.105622 v 1.47586 H 51.509541 Z M 48.857193,73.042364 V 71.68101 h 0.09389 c 0.02348,0.267182 0.03521,0.343519 0.164304,0.343519 0.105622,0 0.410763,-0.127229 0.539859,-0.190844 v -0.95422 c -0.293401,-0.114506 -0.457705,-0.178121 -0.528122,-0.178121 -0.152569,0 -0.164305,0.190844 -0.176041,0.343519 h -0.09389 v -0.852436 h 0.09389 c 0.03521,0.229013 0.176041,0.292627 0.481178,0.419857 l 2.218114,0.941497 v 0.114506 l -2.135962,0.941497 c -0.434233,0.190844 -0.575066,0.254459 -0.575066,0.458026 h -0.09389 z m 0.962356,-1.285016 0.985829,-0.43258 -0.985829,-0.394411 v 0.814268 z m -0.856732,-4.911053 c 0.03521,0.241736 0.04694,0.368965 0.293401,0.368965 h 1.959921 c 0.26993,0 0.281665,-0.178121 0.281665,-0.368965 h 0.105622 v 1.29774 c 0,0.241735 -0.01173,1.094172 -0.645484,1.094172 -0.457705,0 -0.551594,-0.470749 -0.610274,-0.661593 v 0 c -0.05868,0.356242 -0.258193,0.801545 -0.7159,0.801545 -0.340345,0 -0.739371,-0.30535 -0.762843,-1.183233 v -1.361354 h 0.09389 z m 0.281665,1.043281 c -0.187777,0 -0.246456,0.07634 -0.246456,0.254459 0,0.458025 0.363817,0.508917 0.610274,0.508917 0.586802,0 0.645483,-0.368965 0.645483,-0.636147 v -0.127229 z m 1.138398,0 c 0,0.572532 0.164304,0.661592 0.586802,0.661592 0.281665,0 0.516387,-0.08906 0.516387,-0.432579 0,-0.21629 -0.105622,-0.229013 -0.199513,-0.229013 z m -1.525687,-1.921163 v -1.361354 h 0.09389 c 0.02348,0.254459 0.03521,0.330796 0.164304,0.330796 0.105622,0 0.410763,-0.139952 0.539859,-0.190844 v -0.941497 c -0.293401,-0.114506 -0.457705,-0.190844 -0.528122,-0.190844 -0.152569,0 -0.164305,0.203567 -0.176041,0.343519 h -0.09389 V 63.09303 h 0.09389 c 0.03521,0.229013 0.176041,0.292627 0.481178,0.419857 l 2.218114,0.928774 v 0.114506 l -2.135962,0.941497 c -0.434233,0.190844 -0.575066,0.254459 -0.575066,0.458026 h -0.09389 z m 0.962356,-1.272294 0.985829,-0.419856 -0.985829,-0.394411 z m -0.962356,-2.315574 v -0.865159 l 1.267493,-0.877883 v -0.114506 h -0.798051 c -0.328609,0 -0.340346,0.08906 -0.375554,0.368965 h -0.09389 v -1.412246 h 0.09389 c 0.03521,0.279905 0.04695,0.368966 0.375554,0.368966 h 1.795616 c 0.340346,0 0.352081,-0.12723 0.363818,-0.368966 h 0.105622 v 1.348631 c 0,0.292628 -0.03521,1.195956 -0.7159,1.195956 -0.492913,0 -0.622011,-0.43258 -0.692426,-0.674315 l -1.150134,0.852436 c -0.08215,0.06361 -0.08215,0.12723 -0.08215,0.178121 z m 1.408326,-1.857548 c 0,0.559809 0.09389,0.776099 0.622011,0.776099 0.410761,0 0.586802,-0.178121 0.586802,-0.508917 0,-0.229013 -0.04694,-0.241736 -0.176041,-0.254459 h -1.032772 z m -1.408326,-2.493695 v -1.514029 h 0.09389 c 0.03521,0.30535 0.03521,0.407134 0.375554,0.407134 h 2.135962 c -0.02347,-0.292628 -0.03521,-0.725208 -0.680691,-0.814268 V 55.98091 h 0.809787 v 2.531863 h -0.809787 c 0,0 0,-0.114506 0,-0.114506 0.645483,-0.08906 0.668955,-0.52164 0.680691,-0.801545 h -2.135962 c -0.352082,0 -0.352082,0.08906 -0.375554,0.419857 h -0.09389 z m 0,21.349083 v -1.361354 h 0.09389 c 0.02348,0.267182 0.03521,0.330797 0.164304,0.330797 0.105622,0 0.410763,-0.12723 0.539859,-0.190844 v -0.941498 c -0.293401,-0.114506 -0.457705,-0.178121 -0.528122,-0.178121 -0.152569,0 -0.164305,0.190844 -0.176041,0.34352 h -0.09389 v -0.852437 h 0.09389 c 0.03521,0.229013 0.176041,0.279905 0.481178,0.407134 l 2.218114,0.928774 v 0.114506 l -2.135962,0.941498 c -0.434233,0.190844 -0.575066,0.267181 -0.575066,0.458025 h -0.09389 z m 0.962356,-1.285016 0.985829,-0.419857 -0.985829,-0.394411 z m 1.689992,-2.226514 c -0.01173,-0.241735 -0.02348,-0.381688 -0.363818,-0.381688 h -1.772145 c -0.739371,0 -0.891939,-0.483471 -0.891939,-0.916051 0,-0.636147 0.44597,-0.712484 0.516387,-0.712484 0.222984,0 0.305137,0.178121 0.305137,0.30535 0,0.08906 -0.08215,0.305351 -0.293402,0.305351 -0.152568,0 -0.152568,-0.114507 -0.269929,-0.114507 -0.07041,0 -0.11736,0.06362 -0.11736,0.190844 0,0.279905 0.234721,0.279905 0.352081,0.279905 h 2.253322 c 0.281666,0 0.281666,-0.178121 0.281666,-0.419857 h 0.105622 v 1.47586 H 51.509541 Z M 48.857193,73.042364 V 71.68101 h 0.09389 c 0.02348,0.267182 0.03521,0.343519 0.164304,0.343519 0.105622,0 0.410763,-0.127229 0.539859,-0.190844 v -0.95422 c -0.293401,-0.114506 -0.457705,-0.178121 -0.528122,-0.178121 -0.152569,0 -0.164305,0.190844 -0.176041,0.343519 h -0.09389 v -0.852436 h 0.09389 c 0.03521,0.229013 0.176041,0.292627 0.481178,0.419857 l 2.218114,0.941497 v 0.114506 l -2.135962,0.941497 c -0.434233,0.190844 -0.575066,0.254459 -0.575066,0.458026 h -0.09389 z m 0.962356,-1.285016 0.985829,-0.43258 -0.985829,-0.394411 v 0.814268 z m -0.856732,-4.911053 c 0.03521,0.241736 0.04694,0.368965 0.293401,0.368965 h 1.959921 c 0.26993,0 0.281665,-0.178121 0.281665,-0.368965 h 0.105622 v 1.29774 c 0,0.241735 -0.01173,1.094172 -0.645484,1.094172 -0.457705,0 -0.551594,-0.470749 -0.610274,-0.661593 v 0 c -0.05868,0.356242 -0.258193,0.801545 -0.7159,0.801545 -0.340345,0 -0.739371,-0.30535 -0.762843,-1.183233 v -1.361354 h 0.09389 z m 0.281665,1.043281 c -0.187777,0 -0.246456,0.07634 -0.246456,0.254459 0,0.458025 0.363817,0.508917 0.610274,0.508917 0.586802,0 0.645483,-0.368965 0.645483,-0.636147 v -0.127229 z m 1.138398,0 c 0,0.572532 0.164304,0.661592 0.586802,0.661592 0.281665,0 0.516387,-0.08906 0.516387,-0.432579 0,-0.21629 -0.105622,-0.229013 -0.199513,-0.229013 z m -1.525687,-1.921163 v -1.361354 h 0.09389 c 0.02348,0.254459 0.03521,0.330796 0.164304,0.330796 0.105622,0 0.410763,-0.139952 0.539859,-0.190844 v -0.941497 c -0.293401,-0.114506 -0.457705,-0.190844 -0.528122,-0.190844 -0.152569,0 -0.164305,0.203567 -0.176041,0.343519 h -0.09389 V 63.09303 h 0.09389 c 0.03521,0.229013 0.176041,0.292627 0.481178,0.419857 l 2.218114,0.928774 v 0.114506 l -2.135962,0.941497 c -0.434233,0.190844 -0.575066,0.254459 -0.575066,0.458026 h -0.09389 z m 0.962356,-1.272294 0.985829,-0.419856 -0.985829,-0.394411 z m -0.962356,-2.315574 v -0.865159 l 1.267493,-0.877883 v -0.114506 h -0.798051 c -0.328609,0 -0.340346,0.08906 -0.375554,0.368965 h -0.09389 v -1.412246 h 0.09389 c 0.03521,0.279905 0.04695,0.368966 0.375554,0.368966 h 1.795616 c 0.340346,0 0.352081,-0.12723 0.363818,-0.368966 h 0.105622 v 1.348631 c 0,0.292628 -0.03521,1.195956 -0.7159,1.195956 -0.492913,0 -0.622011,-0.43258 -0.692426,-0.674315 l -1.150134,0.852436 c -0.08215,0.06361 -0.08215,0.12723 -0.08215,0.178121 z m 1.408326,-1.857548 c 0,0.559809 0.09389,0.776099 0.622011,0.776099 0.410761,0 0.586802,-0.178121 0.586802,-0.508917 0,-0.229013 -0.04694,-0.241736 -0.176041,-0.254459 h -1.032772 z m -1.408326,-2.493695 v -1.514029 h 0.09389 c 0.03521,0.30535 0.03521,0.407134 0.375554,0.407134 h 2.135962 c -0.02347,-0.292628 -0.03521,-0.725208 -0.680691,-0.814268 V 55.98091 h 0.809787 v 2.531863 h -0.809787 c 0,0 0,-0.114506 0,-0.114506 0.645483,-0.08906 0.668955,-0.52164 0.680691,-0.801545 h -2.135962 c -0.352082,0 -0.352082,0.08906 -0.375554,0.419857 h -0.09389 z M 13.484726,55.76462 c 0,0.07634 0.02347,0.203567 0.164305,0.292627 l 1.255757,0.814268 h 0.751108 c 0.340346,0 0.340346,-0.101783 0.375553,-0.394411 h 0.09389 v 1.463137 h -0.09389 c -0.03521,-0.292627 -0.03521,-0.394411 -0.375553,-0.394411 h -0.598539 l -1.349647,0.776099 c 0,0 -0.211248,0.12723 -0.222984,0.330797 H 13.379104 V 57.24048 h 0.105622 c 0,0.292628 0.02347,0.343519 0.140832,0.343519 0.05868,0 0.164306,-0.06361 0.234722,-0.101783 l 0.938884,-0.496195 -0.751108,-0.470748 c 0,0 -0.258192,-0.165398 -0.375553,-0.165398 -0.152569,0 -0.164305,0.152675 -0.176041,0.356242 H 13.39084 v -0.928774 h 0.105622 z m 2.640612,5.165511 v 1.361354 h -0.09389 c -0.02348,-0.267182 -0.02348,-0.330796 -0.152568,-0.330796 -0.105622,0 -0.410762,0.127229 -0.539859,0.190844 v 0.95422 c 0.293402,0.127229 0.457707,0.190844 0.516387,0.190844 0.152568,0 0.164305,-0.203567 0.17604,-0.34352 h 0.09389 v 0.852437 h -0.09389 c -0.03521,-0.21629 -0.17604,-0.279905 -0.481178,-0.407134 L 13.332158,62.469606 V 62.3551 l 2.135961,-0.941498 c 0.434234,-0.190844 0.575067,-0.267181 0.56333,-0.458025 h 0.09389 z m -0.962356,1.285016 -0.985829,0.419857 0.985829,0.394411 v -0.826991 z m -0.974093,2.709985 c -0.281666,0.07634 -0.751107,0.330796 -0.751107,0.826991 0,0.21629 0.11736,0.445303 0.387289,0.445303 0.21125,0 0.305138,-0.07634 0.481178,-0.43258 l 0.305139,-0.623424 c 0.05868,-0.139952 0.305137,-0.458026 0.73937,-0.458026 0.363819,0 0.844997,0.267182 0.844997,1.043281 0,0.407134 -0.140833,0.585255 -0.140833,0.712484 0,0.08906 0.08216,0.114507 0.140833,0.12723 v 0.114506 H 15.19819 v -0.114506 c 0.399026,-0.08906 0.868468,-0.330797 0.868468,-0.86516 0,-0.534363 -0.399026,-0.52164 -0.457707,-0.52164 -0.258193,0 -0.363817,0.190844 -0.492913,0.470748 l -0.129098,0.279905 c -0.340345,0.725207 -0.680691,0.725207 -0.868467,0.725207 -0.258193,0 -0.798052,-0.127229 -0.798052,-0.928774 0,-0.343519 0.140833,-0.534363 0.140833,-0.661593 0,-0.101783 -0.07042,-0.127229 -0.140833,-0.139952 v -0.127229 h 0.868468 v 0.114506 z m 1.830825,5.585368 c -0.03521,-0.254458 -0.05868,-0.368965 -0.32861,-0.368965 h -1.924713 c -0.281665,0.241736 -0.293401,0.305351 -0.293401,0.356242 h -0.105622 v -0.890605 l 1.725201,-1.463137 v 0 c 0,0 -1.22055,0 -1.22055,0 -0.246457,0 -0.375554,0.05089 -0.410762,0.39441 h -0.105622 v -0.903328 h 0.105622 c 0.03521,0.305351 0.129097,0.330796 0.32861,0.330796 h 2.394155 v 0.114507 l -2.206378,1.870271 v 0 c 0,0 1.619575,0 1.619575,0 0.293401,0 0.363818,-0.08906 0.410762,-0.394411 h 0.09389 v 0.95422 h -0.09389 z m -2.640613,3.473361 v -2.43008 h 0.809788 v 0.101783 c -0.575066,0.101784 -0.680691,0.394411 -0.680691,0.966943 0,0.229013 0.02347,0.305351 0.187777,0.305351 h 0.938885 c 0,-0.407134 -0.09389,-0.610701 -0.598539,-0.674316 v -0.114506 h 1.373117 v 0.114506 c -0.50465,0.05089 -0.633746,0.267182 -0.633746,0.674316 h 0.974092 c 0.176041,0 0.222986,-0.07634 0.222986,-0.356242 0,-0.407134 -0.105622,-0.839714 -0.7159,-1.106896 v -0.114506 l 0.844996,0.178121 v 2.455526 h -0.09389 c -0.02347,-0.241736 -0.03521,-0.368965 -0.281665,-0.368965 h -1.971657 c -0.26993,0 -0.281665,0.178121 -0.293401,0.368965 h -0.105622 z m 2.746237,0.814268 v 1.47586 h -0.09389 c -0.02348,-0.229012 -0.03521,-0.394411 -0.281665,-0.394411 h -1.971656 c -0.269929,0 -0.281665,0.203567 -0.293401,0.394411 h -0.105622 v -1.47586 h 0.105622 c 0,0.190844 0,0.394411 0.293401,0.394411 h 1.971657 c 0.258193,0 0.258193,-0.165398 0.281665,-0.394411 z m -0.105622,4.758377 c -0.03521,-0.21629 -0.03521,-0.21629 -0.05868,-0.254458 -0.03521,-0.05089 -0.08216,-0.114507 -0.316873,-0.114507 h -1.795617 c -0.328609,0 -0.340345,0.139952 -0.363817,0.356242 h -0.105622 v -1.374077 c 0,-0.330796 0.07041,-1.106895 0.739371,-1.106895 0.140833,0 0.434234,0.05089 0.610274,0.381688 0.140833,0.279905 0.15257,0.483472 0.15257,1.043281 h 0.751108 c 0.328609,0 0.340345,-0.08906 0.375552,-0.368965 h 0.09389 v 1.412245 h -0.09389 z m -1.267494,-1.04328 c 0,-0.521641 -0.105622,-0.699762 -0.610275,-0.699762 -0.469442,0 -0.610274,0.152676 -0.610274,0.496195 0,0.152675 0.04694,0.190844 0.140832,0.203567 h 1.091453 z M 36.980305,59.543331 c -0.938883,0 -1.197076,-0.725207 -1.197076,-0.725207 0,0 0.657219,0.229013 1.173604,0.229013 0.516387,0 1.150134,-0.229013 1.150134,-0.229013 0,0 -0.187777,0.725207 -1.138397,0.725207 z m 0,4.058616 c -0.938883,0 -1.197076,-0.725207 -1.197076,-0.725207 0,0 0.657219,0.229013 1.173604,0.229013 0.516387,0 1.150134,-0.229013 1.150134,-0.229013 0,0 -0.187777,0.725207 -1.138397,0.725207 z m -1.079716,2.226514 c -0.938884,0 -1.197077,-0.725208 -1.197077,-0.725208 0,0 0.657219,0.229013 1.173604,0.229013 0.516387,0 1.150134,-0.229013 1.150134,-0.229013 0,0 -0.187777,0.725208 -1.126661,0.725208 z m -6.231845,0 c -0.938884,0 -1.197077,-0.725208 -1.197077,-0.725208 0,0 0.657218,0.229013 1.185341,0.229013 0.528122,0 1.150133,-0.229013 1.150133,-0.229013 0,0 -0.187776,0.725208 -1.126661,0.725208 z M 27.168965,62.87674 c 0,0 0.657218,0.229013 1.173605,0.229013 0.516387,0 1.161869,-0.229013 1.161869,-0.229013 0,0 -0.187776,0.725207 -1.138397,0.725207 -0.95062,0 -1.197077,-0.725207 -1.197077,-0.725207 z m -0.211249,-4.058616 c 0,0 0.657219,0.229013 1.173606,0.229013 0.516385,0 1.150132,-0.229013 1.150132,-0.229013 0,0 -0.187776,0.725207 -1.12666,0.725207 -0.938885,0 -1.197078,-0.725207 -1.197078,-0.725207 z m 3.344775,1.819379 c 0.516387,0 1.150133,-0.229012 1.150133,-0.229012 0,0 -0.187776,0.725207 -1.126661,0.725207 -0.938884,0 -1.208813,-0.725207 -1.208813,-0.725207 0,0 0.657219,0.229012 1.185341,0.229012 z m 2.253323,-1.577643 c 0.516386,0 1.150133,-0.229013 1.150133,-0.229013 0,0 -0.187777,0.725207 -1.126661,0.725207 -0.938884,0 -1.197078,-0.725207 -1.197078,-0.725207 0,0 0.657219,0.229013 1.173606,0.229013 z m 2.394154,1.577643 c 0.516387,0 1.150134,-0.229012 1.150134,-0.229012 0,0 -0.187777,0.725207 -1.126662,0.725207 -0.938884,0 -1.197076,-0.725207 -1.197076,-0.725207 0,0 0.645482,0.229012 1.173604,0.229012 z m 3.955051,-1.806656 c 0,0 0.539859,-2.188345 -0.668956,-3.536976 -1.220549,-1.348631 -2.570195,-1.04328 -2.570195,-1.04328 0,0 -0.950621,-1.933886 -3.110054,-1.933886 -2.159434,0 -2.88707,1.882994 -2.88707,1.882994 0,0 -2.253322,-0.101784 -3.156998,1.793934 -0.903676,1.895717 -0.316874,2.786322 -0.316874,2.786322 0,0 -1.161869,1.043281 -0.985828,3.040781 0,0 0.399026,1.590367 1.584367,2.480972 0,0 0.129096,1.895718 2.077282,2.480973 1.302702,0.407133 2.887069,-0.292628 2.887069,-0.292628 V 81.87208 c 0,0 -0.856732,1.882995 -2.124225,1.882995 0,0 0.176039,0.890605 2.124225,0.890605 0,0 0.269929,1.704873 0.89194,1.704873 0,0 0.903676,-0.356242 0.903676,-1.704873 0,0 1.713464,-0.08906 2.077282,-0.839714 0,0 -1.983394,-0.597978 -1.983394,-1.933886 V 66.490053 c 0,0 0.985829,0.597978 1.208814,0.534363 0.222986,-0.05089 2.934014,0.101784 3.426928,-2.684539 0,0 1.760407,-1.246847 1.760407,-3.193456 0,-1.285017 -1.138396,-2.328297 -1.138396,-2.328297 z m -18.507758,12.557536 0.03521,1.526752 0.668956,1.463137 0.704163,-1.870271 -0.234721,-1.08145 0.575067,-0.292627 0.610274,0.636147 -1.314437,5.636259 0.199513,1.564921 -0.07042,0.86516 0.375554,0.52164 0.164305,0.674316 -0.434235,0.52164 v 2.162899 h 2.171171 l -1.150134,-1.005112 v -0.903328 l 1.150134,-0.636147 0.340345,-3.015335 3.485608,-0.788822 1.114925,-2.455527 0.880204,-0.750653 0.844997,-0.368965 0.199513,-1.272293 0.974091,-1.005112 v -1.348631 c 0,0 -1.854295,2.201068 -2.534987,2.684539 -0.680691,0.496195 -1.185342,-0.03817 -1.185342,-0.03817 0,0 -0.03521,-0.597978 0,-0.712484 0.03521,-0.114506 0.77458,-0.267182 0.77458,-0.267182 l 0.176041,-0.559809 -0.105622,-0.419857 c 0,0 -0.234721,-0.178121 -0.434234,-0.101783 -0.09389,0.559809 -0.539859,0.30535 -0.539859,-0.152675 0,-0.483472 0.610274,-0.368965 0.7159,-0.407134 0.105622,-0.03817 -0.07042,-0.788822 -0.07042,-0.788822 l -0.445975,-0.368964 -0.809787,0.114506 c -0.77458,-0.52164 -2.570197,0.636147 -2.570197,0.636147 0,0 0.105622,0.597978 -0.105622,0.928774 -0.199513,0.330796 -0.305137,1.679427 -0.340345,1.857549 -0.03521,0.190844 0.434234,1.386799 0.434234,1.386799 0.03521,0.190844 0.03521,1.157787 0.03521,1.157787 -1.349646,0.445303 -1.901241,1.526752 -1.995128,1.641259 -0.105622,0.101783 -0.199513,0.101783 -0.199513,0.101783 l 1.185341,-5.216403 -1.384854,-1.793933 -1.889506,1.526752 z m 6.466566,-1.348631 0.02347,-0.445303 0.680691,0.114506 -0.704164,0.34352 z m -0.786315,2.277405 0.469442,-0.712484 v 1.412245 l -0.469442,-0.712484 z m -0.77458,1.526752 0.469443,-0.712484 v 1.412245 l -0.469443,-0.712484 z m 0,-3.053504 0.469443,-0.712485 v 1.412246 l -0.469443,-0.712484 z m -0.575066,1.526752 0.481178,-0.712484 v 1.412245 l -0.481178,-0.712484 z m 0.07042,6.348744 1.584367,1.043281 0.140832,1.603089 -1.220549,0.559809 v 0.890606 l 1.244022,1.005111 h -2.288531 l 0.539859,-5.114619 z m 6.924272,-5.598091 -1.208814,1.412246 -0.915412,0.407134 -0.844996,1.793933 0.880204,-0.267181 0.985829,-0.712485 1.079717,-1.310462 0.03521,-1.348631 z m 11.301819,-3.206179 -1.384854,1.793933 1.185341,5.216403 c 0,0 -0.105622,0 -0.199513,-0.101783 -0.09389,-0.114507 -0.645482,-1.195956 -1.995128,-1.641259 0,0 0,-0.966943 0.03521,-1.157787 0,0 0.481179,-1.195956 0.445971,-1.3868 -0.03521,-0.178121 -0.140833,-1.526752 -0.340346,-1.857548 -0.199513,-0.330796 -0.105622,-0.928774 -0.105622,-0.928774 0,0 -1.795615,-1.157787 -2.570195,-0.636147 l -0.809787,-0.114506 -0.445971,0.368965 c 0,0 -0.164305,0.750653 -0.07041,0.788822 0.105622,0.02545 0.704163,-0.07634 0.704163,0.407134 0,0.458025 -0.434234,0.712484 -0.539858,0.152675 -0.187777,-0.06361 -0.44597,0.101783 -0.44597,0.101783 l -0.105622,0.419857 0.164305,0.559809 c 0,0 0.739371,0.152676 0.774578,0.267182 0.03521,0.114506 0,0.712484 0,0.712484 0,0 -0.50465,0.521641 -1.185341,0.03817 -0.668954,-0.483471 -2.534987,-2.684539 -2.534987,-2.684539 v 1.348631 l 0.985828,1.005112 0.199513,1.272293 0.844996,0.368965 0.880204,0.750653 1.114926,2.455527 3.485608,0.788821 0.340345,3.015336 1.150133,0.636147 v 0.903328 l -1.150133,1.005112 h 2.17117 v -2.1629 l -0.44597,-0.52164 0.176041,-0.674316 0.363818,-0.52164 -0.07042,-0.86516 0.211249,-1.564921 -1.314438,-5.636259 0.610275,-0.636147 0.575066,0.292627 -0.23472,1.08145 0.704163,1.870271 0.680691,-1.463137 0.03521,-1.526752 -1.889505,-1.526752 z m -5.281223,-0.152676 0.680691,-0.114506 0.02348,0.445303 -0.704163,-0.34352 z m 1.0093,3.320686 v -1.412246 l 0.481178,0.712485 -0.481178,0.712484 z m 0.786315,1.526752 v -1.412245 l 0.469443,0.712484 -0.469443,0.712484 z m 0,-3.053504 v -1.412246 l 0.469443,0.712485 -0.469443,0.712484 z m 0.575067,1.526752 v -1.412246 l 0.469442,0.712485 -0.469442,0.712484 z m 0.410762,5.63626 -1.584368,1.043281 -0.140832,1.603089 1.220549,0.559809 v 0.890606 l -1.255757,1.005111 h 2.312003 l -0.539859,-5.114619 z m -6.936008,-5.598091 1.208813,1.412246 0.915413,0.407134 0.844995,1.793933 -0.880204,-0.267181 -0.985828,-0.712485 -1.079717,-1.310462 -0.03521,-1.348631 z m 16.98207,15.17846 -1.173606,-1.297739 -1.056244,1.157787 -1.044508,-1.157787 -1.185343,1.297739 1.056245,1.157787 -1.056245,1.17051 1.185343,1.297739 1.044508,-1.157787 1.056244,1.157787 1.173606,-1.297739 -1.056245,-1.17051 z m -31.96901,0 -1.173606,-1.297739 -1.056245,1.157787 -1.056244,-1.157787 -1.185342,1.297739 1.056244,1.157787 -1.056244,1.17051 1.185342,1.297739 1.056244,-1.157787 1.056245,1.157787 1.173606,-1.297739 -1.056246,-1.17051 z m 33.236504,-42.596383 -1.173605,-1.310462 -1.056245,1.157787 -1.056245,-1.157787 -1.173605,1.310462 1.056244,1.157787 -1.056244,1.157787 1.173605,1.310462 1.056245,-1.17051 1.056245,1.17051 1.173605,-1.310462 -1.056244,-1.157787 z m -33.952404,0 -1.185341,-1.310462 -1.056245,1.157787 -1.056246,-1.157787 -1.173604,1.310462 1.056245,1.157787 -1.056245,1.157787 1.173604,1.310462 1.056246,-1.17051 1.056245,1.17051 1.185341,-1.310462 -1.056245,-1.157787 z m 44.37402,-21.196408 -1.185341,-0.394411 0.03521,-0.152675 c 0.246458,0.05089 0.305139,0.06361 0.363818,-0.152675 0.04695,-0.165398 0.04695,-0.674316 0.05868,-0.890606 l -0.821525,-0.267181 c -0.222984,0.419857 -0.352081,0.661592 -0.387289,0.763376 -0.05868,0.241736 0.105622,0.318073 0.222985,0.368965 l -0.03521,0.152675 -0.739372,-0.241736 0.04695,-0.165398 c 0.211248,0.02545 0.316873,-0.178121 0.551594,-0.610701 l 1.713464,-3.193456 0.09389,0.03817 -0.05868,3.575144 c 0,0.73793 0,0.966943 0.17604,1.017835 l -0.04694,0.152675 z m -0.727636,-1.857548 0.03521,-1.653982 -0.751106,1.424969 z m -1.889504,1.017835 -0.762844,-0.229013 -0.293401,-2.302851 -0.105622,-0.03817 -0.293402,1.297739 c -0.11736,0.52164 -0.04694,0.572532 0.187778,0.712484 l -0.04695,0.165399 -1.255757,-0.381688 0.03521,-0.165399 c 0.258194,0.02545 0.340346,0.02545 0.469443,-0.508917 l 0.668955,-2.926275 c 0.129097,-0.572532 0.01173,-0.623424 -0.187777,-0.712484 l 0.03521,-0.165398 1.197076,0.368965 c 0.258194,0.07634 1.021037,0.381688 0.762845,1.488583 -0.187778,0.801545 -0.610276,0.890606 -0.83326,0.941497 l 0.305137,2.112007 c 0.02347,0.139953 0.08215,0.152675 0.129097,0.165398 l -0.03521,0.165399 z m -1.091453,-2.786323 c 0.481179,0.139952 0.704163,0.05089 0.903676,-0.801545 0.152568,-0.674315 0.07042,-1.005112 -0.222985,-1.094172 -0.199512,-0.06362 -0.222986,0 -0.293401,0.203567 l -0.38729,1.679427 z m -1.537423,2.048392 -1.197078,-0.330796 0.03521,-0.178121 c 0.23472,0.03817 0.305137,0.05089 0.352081,-0.165398 0.03521,-0.178121 0.02347,-0.687039 0.01173,-0.928774 l -0.833261,-0.229013 c -0.199513,0.445303 -0.316872,0.699761 -0.340345,0.814268 -0.05868,0.254458 0.117361,0.318073 0.246458,0.368965 l -0.02348,0.165398 -0.762843,-0.21629 0.03521,-0.165398 c 0.21125,0 0.305138,-0.21629 0.528124,-0.661593 l 1.57263,-3.3843 0.09389,0.02545 0.105622,3.689651 c 0.02347,0.750653 0.03521,0.992388 0.222985,1.030557 l -0.03521,0.165398 z m -0.809788,-1.870271 -0.04694,-1.704873 -0.680691,1.514029 0.727635,0.203567 z M 55.35897,17.761216 c -0.234721,0 -0.363817,0 -0.410761,0.534363 l -0.222985,2.684539 c -0.09389,1.119618 -0.575067,1.310462 -0.997565,1.272294 -0.598539,-0.05089 -0.622011,-0.737931 -0.622011,-0.839714 0.03521,-0.343519 0.211249,-0.458026 0.328609,-0.458026 0.09389,0 0.281666,0.139953 0.246457,0.483472 -0.02347,0.241736 -0.129096,0.21629 -0.140833,0.394411 0,0.101783 0.05868,0.203567 0.164306,0.203567 0.269929,0.02545 0.293401,-0.318074 0.316873,-0.508918 l 0.293401,-3.422469 c 0.03521,-0.419857 -0.140832,-0.445303 -0.375554,-0.470748 v -0.152676 c 0,0 1.443535,0.114507 1.443535,0.114507 v 0.152675 z m -2.394154,4.096785 -1.208815,-0.229013 0.02348,-0.165398 c 0.234721,0.01272 0.305138,0.02545 0.340345,-0.203567 0.02348,-0.178121 -0.02347,-0.699762 -0.04694,-0.928774 L 51.227875,20.16585 c -0.176041,0.470749 -0.281665,0.725208 -0.293401,0.826991 -0.03521,0.254459 0.140832,0.305351 0.26993,0.343519 l -0.02348,0.165398 -0.762844,-0.139952 0.02347,-0.178121 c 0.211248,0 0.293401,-0.229013 0.481178,-0.699761 l 1.361382,-3.498807 0.105622,0.02545 0.328609,3.676928 c 0.05868,0.750653 0.08215,0.979666 0.281666,1.005111 l -0.02348,0.165399 z m -0.903678,-1.793934 -0.140832,-1.69215 -0.586802,1.552198 z m -1.760407,1.297739 -2.182906,-0.318073 0.02348,-0.165398 c 0.211248,-0.02545 0.328609,-0.02545 0.375554,-0.445303 l 0.352081,-3.320686 c 0.05867,-0.445302 -0.105636,-0.483471 -0.26994,-0.534363 v -0.165398 c 0,0 1.337909,0.203567 1.337909,0.203567 l -0.02347,0.165398 C 49.64351,16.7561 49.526149,16.7561 49.455732,17.354082 l -0.352081,3.231625 c -0.03521,0.330796 0.03521,0.394411 0.293401,0.43258 0.575067,0.08906 0.844997,-0.458026 1.10319,-1.195956 l 0.105622,0.02545 -0.32861,1.526752 z m -2.312003,-0.279904 -1.255758,-0.21629 0.02347,-0.165398 c 0.246457,0 0.316873,0 0.352081,-0.21629 0.02348,-0.178121 -0.03521,-0.712485 -0.05868,-0.928774 l -0.868468,-0.152676 c -0.176041,0.470749 -0.26993,0.737931 -0.281665,0.839714 -0.03521,0.254459 0.152568,0.30535 0.281665,0.356242 l -0.02347,0.165398 -0.77458,-0.127229 0.02347,-0.165398 c 0.21125,-0.02545 0.293402,-0.241736 0.481178,-0.73793 l 1.337911,-3.575145 h 0.105622 c 0,0 0.399026,3.740543 0.399026,3.740543 0.08215,0.750653 0.105622,0.992389 0.293401,1.017834 l -0.02348,0.165399 z m -0.844996,-1.793934 -0.176041,-1.717596 -0.575067,1.577644 0.751108,0.127229 z m -4.048938,0.916051 c 0.234721,0.02545 0.328609,-0.165398 0.352081,-0.419857 l 0.26993,-3.358854 c 0.03521,-0.419857 -0.129097,-0.445303 -0.281665,-0.483472 l 0.02347,-0.178121 1.161869,0.12723 c 1.056245,0.114506 1.314439,1.335908 1.232286,2.391911 -0.105622,1.246848 -0.598538,2.264682 -1.560895,2.213791 l -1.197078,-0.12723 z m 0.974092,-0.356242 c -0.02347,0.267182 0,0.394411 0.187777,0.419857 0.434234,0.05089 0.798052,-0.356242 0.927148,-1.984778 0.05868,-0.623424 0.08216,-2.086561 -0.575067,-2.150176 -0.246456,-0.02545 -0.258193,0.139953 -0.258193,0.292628 l -0.269929,3.422469 z m -1.23229,0.496194 -1.232286,-0.101783 V 20.07679 c 0.246457,0 0.316873,0 0.32861,-0.229013 0.01173,-0.190844 -0.07042,-0.687038 -0.105622,-0.903328 l -0.856732,-0.07634 c -0.140833,0.470749 -0.222985,0.750653 -0.234722,0.852437 -0.01173,0.254458 0.164305,0.292627 0.293402,0.318073 v 0.165398 c 0,0 -0.786316,-0.07634 -0.786316,-0.07634 v -0.165399 c 0.222986,-0.03817 0.293401,-0.254458 0.44597,-0.750653 l 1.103189,-3.613313 h 0.105622 c 0,0 0.598539,3.626036 0.598539,3.626036 0.117361,0.725208 0.176041,0.966943 0.352081,0.966943 v 0.165398 z m -1.044509,-1.69215 -0.26993,-1.666704 -0.469441,1.60309 z M 40.77105,15.661932 c -0.211249,0.03817 -0.305137,0.101783 -0.305137,0.559809 l -0.08216,2.150176 c -0.02347,0.394411 -0.09389,1.005111 -0.258192,1.297739 -0.199513,0.356242 -0.539858,0.470749 -0.762844,0.458026 -0.164305,0 -0.528122,-0.06361 -0.762844,-0.470749 -0.152568,-0.254459 -0.246456,-0.508917 -0.222985,-1.234125 l 0.08216,-2.251959 c 0.02348,-0.559809 -0.08216,-0.585255 -0.2934,-0.636147 v -0.165398 c 0,0 1.290965,0.06362 1.290965,0.06362 v 0.165398 c -0.258193,0 -0.375554,0 -0.399026,0.610701 l -0.08216,2.251959 c -0.01173,0.381688 -0.04694,1.310462 0.50465,1.335908 0.668956,0.02545 0.7159,-1.005111 0.727637,-1.437691 l 0.07041,-2.061116 c 0.02348,-0.407133 -0.01173,-0.636146 -0.352081,-0.687038 v -0.165398 c 0,0 0.844996,0.05089 0.844996,0.05089 v 0.178121 z m -2.640612,2.544587 c -0.234721,0.03817 -0.328609,0.05089 -0.340345,0.597977 l -0.03521,0.852437 c -0.187776,0.21629 -0.715899,0.381688 -1.044508,0.368965 -0.962357,-0.05089 -1.337911,-1.25957 -1.290966,-2.43008 0.05868,-1.323185 0.622011,-2.379189 1.45527,-2.328297 0.340346,0.01272 0.622011,0.356242 0.7159,0.368965 0.105622,0 0.152569,-0.139952 0.187776,-0.305351 h 0.105622 c 0,0 -0.07041,1.577644 -0.07041,1.577644 h -0.09389 c -0.11736,-0.597978 -0.399026,-1.399522 -0.83326,-1.412245 -0.551595,-0.03817 -0.751108,0.979666 -0.798051,2.12473 -0.02348,0.483471 -0.05868,2.150175 0.657219,2.188344 0.340345,0.01272 0.410761,-0.178121 0.422498,-0.470748 l 0.02347,-0.699762 c 0.02348,-0.432579 -0.09389,-0.445302 -0.363818,-0.483471 v -0.165398 c 0,0 1.314439,0.06361 1.314439,0.06361 v 0.165398 z m -5.844555,-2.888106 2.206378,0.03817 -0.02347,1.3868 h -0.09389 c -0.08216,-0.979666 -0.352081,-1.157787 -0.856731,-1.17051 -0.222986,0 -0.281665,0.02545 -0.281665,0.330797 v 1.590366 c 0.352081,0.01272 0.539858,-0.165398 0.610274,-1.017834 h 0.09389 l -0.02347,2.328296 h -0.105622 c -0.03521,-0.865159 -0.222985,-1.068726 -0.610275,-1.081449 v 1.666704 c -0.02348,0.305351 0.04694,0.394411 0.305137,0.394411 0.363818,0 0.762844,-0.165398 1.009301,-1.208678 h 0.105622 l -0.164306,1.437691 -2.22985,-0.03817 v -0.165398 c 0.21125,-0.03817 0.340346,-0.06361 0.340346,-0.483471 l 0.03521,-3.333409 c 0,-0.458026 -0.152569,-0.470749 -0.328609,-0.496194 v -0.178122 z m -2.67582,4.542087 c 0.234722,0 0.316874,-0.203567 0.316874,-0.458026 l -0.03521,-3.397023 c 0,-0.419857 -0.176041,-0.43258 -0.316874,-0.458026 v -0.165398 h 1.161869 c 1.067981,-0.02545 1.431799,1.17051 1.443535,2.226514 0,1.272293 -0.38729,2.34102 -1.349647,2.417357 H 29.6218 c 0,0 0,-0.152675 0,-0.152675 z m 0.92715,-0.483472 c 0,0.279905 0.03521,0.394411 0.222984,0.394411 0.422498,0 0.751107,-0.445302 0.739372,-2.099284 0,-0.623423 -0.105622,-2.086561 -0.762844,-2.073838 -0.246457,0 -0.234721,0.165398 -0.234721,0.318073 z m -4.271925,0.64887 c 0.246458,-0.01272 0.316874,-0.21629 0.293402,-0.470748 l -0.129096,-3.346132 c -0.01173,-0.419857 -0.187778,-0.419857 -0.32861,-0.43258 V 15.61104 c 0,0 1.161869,-0.06361 1.161869,-0.06361 1.056245,-0.05089 1.455271,1.094173 1.502215,2.150176 0.04694,1.246848 -0.316874,2.34102 -1.27923,2.442804 l -1.208813,0.06361 v -0.165398 z m 0.915413,-0.508917 c 0.01173,0.267181 0.04695,0.394411 0.234721,0.381688 0.434234,-0.02545 0.739372,-0.470749 0.680691,-2.099284 -0.02347,-0.623424 -0.176041,-2.061116 -0.821524,-2.022947 -0.246456,0 -0.234721,0.178121 -0.222984,0.330796 l 0.140832,3.409747 z m -0.997565,0.674315 -1.232285,0.101784 v -0.165398 c 0.222985,-0.05089 0.2934,-0.06361 0.281665,-0.279905 -0.01173,-0.178121 -0.164305,-0.674315 -0.234721,-0.877882 l -0.856733,0.07634 c -0.08216,0.483472 -0.117359,0.763376 -0.117359,0.86516 0.01173,0.254458 0.199513,0.267181 0.328609,0.267181 v 0.165398 c 0,0 -0.751108,0.06361 -0.751108,0.06361 v -0.165398 c 0.187777,-0.07634 0.222986,-0.30535 0.305138,-0.814268 l 0.610274,-3.727819 h 0.105622 c 0,0 1.067982,3.435192 1.067982,3.435192 0.222985,0.699761 0.293401,0.928774 0.481178,0.903328 v 0.165398 z m -1.267494,-1.47586 -0.492914,-1.590367 -0.246457,1.653982 z m -3.755536,1.806657 c 0.23472,0 0.305137,-0.21629 0.2934,-0.470749 L 21.277465,16.692489 C 21.25399,16.272633 21.089689,16.272633 20.93712,16.25991 v -0.178121 c 0,0 1.161869,-0.07634 1.161869,-0.07634 1.056245,-0.07634 1.467008,1.081449 1.525688,2.137453 0.05868,1.25957 -0.293402,2.34102 -1.255758,2.480972 l -1.197078,0.08906 v -0.165399 z m 0.915411,-0.521641 c 0.01173,0.267182 0.05868,0.394411 0.246458,0.381688 0.422498,-0.03817 0.73937,-0.496194 0.657218,-2.12473 -0.03521,-0.623423 -0.187776,-2.073838 -0.844996,-2.022946 -0.246456,0.01272 -0.234721,0.190844 -0.222984,0.343519 l 0.176041,3.422469 z m -0.997565,0.687039 -1.326174,0.114506 v -0.165398 c 0.187778,-0.06361 0.340346,-0.08906 0.305138,-0.52164 l -0.222985,-3.320686 c -0.03521,-0.458026 -0.211249,-0.458026 -0.38729,-0.458026 v -0.178121 c 0,0 1.326174,-0.114506 1.326174,-0.114506 v 0.178121 c -0.164304,0.02545 -0.352081,0.05089 -0.316873,0.52164 l 0.222986,3.320686 c 0.03521,0.445303 0.176039,0.445303 0.399024,0.458026 v 0.178121 z m -1.877767,-3.07895 c -0.117361,-0.445303 -0.445971,-1.157787 -0.891941,-1.094173 -0.199513,0.03817 -0.387289,0.254459 -0.328609,0.687039 0.04694,0.356242 0.140832,0.483471 0.481178,0.712484 l 0.610274,0.394411 c 0.140833,0.08906 0.481179,0.419857 0.563331,1.132341 0.07041,0.572532 -0.07042,1.399523 -0.774579,1.501306 -0.352082,0.05089 -0.551595,-0.139952 -0.668956,-0.127229 -0.08216,0.01272 -0.08216,0.127229 -0.08216,0.241736 h -0.11736 c 0,0 -0.199513,-1.590367 -0.199513,-1.590367 h 0.105622 c 0.152568,0.623424 0.469441,1.323185 0.938884,1.25957 0.457705,-0.06361 0.399025,-0.712484 0.38729,-0.801544 -0.04694,-0.43258 -0.246457,-0.559809 -0.516387,-0.725208 l -0.281656,-0.165398 c -0.7159,-0.432579 -0.77458,-0.992389 -0.821524,-1.285016 -0.04694,-0.407134 -0.04694,-1.297739 0.680691,-1.412246 0.293402,-0.05089 0.50465,0.139953 0.610274,0.12723 0.09389,-0.01272 0.09389,-0.114507 0.105622,-0.241736 l 0.105622,-0.02545 0.176041,1.412246 h -0.105622 z m -1.349647,3.536975 -0.774579,0.12723 -1.032773,-1.997501 h -0.105622 c 0,0 0.152568,1.348631 0.152568,1.348631 0.05868,0.547086 0.152569,0.547086 0.399026,0.572532 v 0.165398 c 0,0 -1.255757,0.203567 -1.255757,0.203567 l -0.02348,-0.165398 c 0.246458,-0.08906 0.328611,-0.127229 0.258194,-0.674316 L 15.116038,17.73577 C 15.045623,17.150515 14.92826,17.150515 14.705275,17.163238 L 14.6818,16.99784 15.90235,16.806996 c 0.26993,-0.03817 1.079717,-0.114507 1.197077,1.030557 0.09389,0.839714 -0.269929,1.106896 -0.457706,1.259571 l 0.974093,1.806657 c 0.07042,0.114506 0.129096,0.114506 0.164305,0.101783 l 0.02348,0.165398 z M 15.91409,19.071678 c 0.492913,-0.08906 0.668954,-0.267182 0.56333,-1.145064 -0.08216,-0.687038 -0.26993,-0.95422 -0.56333,-0.916051 -0.21125,0.03817 -0.21125,0.114506 -0.199513,0.330796 z m -3.767274,-1.514029 2.17117,-0.470749 0.222985,1.323185 h -0.09389 c -0.246457,-0.903328 -0.539859,-1.005111 -1.044509,-0.890605 -0.211248,0.03817 -0.269928,0.08906 -0.211248,0.368965 l 0.258193,1.526752 c 0.363818,-0.07634 0.528122,-0.292627 0.44597,-1.106895 l 0.09389,-0.02545 0.375553,2.226514 -0.09389,0.02544 C 14.095001,19.720548 13.86028,19.567872 13.496462,19.64421 l 0.258193,1.590367 c 0.05868,0.292627 0.140833,0.356242 0.375554,0.30535 0.363818,-0.07634 0.715899,-0.343519 0.786316,-1.374077 l 0.105622,-0.02544 0.08216,1.399522 -2.194642,0.470749 -0.02347,-0.152675 c 0.211249,-0.08906 0.316873,-0.139953 0.246458,-0.547087 l -0.539859,-3.180733 c -0.07041,-0.43258 -0.234721,-0.407134 -0.410762,-0.394411 l -0.03521,-0.165398 z m -0.04695,0.165398 c -0.199513,0.101784 -0.222985,0.229013 -0.234722,0.610701 l -0.105621,3.931386 -0.09389,0.02545 L 9.9404332,18.71544 C 9.7643969,18.359194 9.7057166,18.359194 9.5414118,18.359194 l -0.035208,-0.152675 1.2440212,-0.305351 0.03521,0.152675 c -0.222985,0.08906 -0.316874,0.114507 -0.26993,0.34352 0.02347,0.114506 0.152569,0.368965 0.222985,0.52164 l 0.891941,1.882994 0.04694,-2.201067 c 0,-0.152676 0.01173,-0.318074 0,-0.458026 -0.04694,-0.241736 -0.164304,-0.241736 -0.387289,-0.21629 l -0.03521,-0.152675 0.798052,-0.203567 0.03521,0.152675 z m -1.73693,4.847438 -1.2909663,0.368965 -0.035208,-0.165398 C 9.2362744,22.684992 9.365371,22.621377 9.2832186,22.214243 L 8.6025275,19.084401 C 8.508639,18.651821 8.3325983,18.68999 8.1565575,18.715436 l -0.035208,-0.165398 1.2909659,-0.368965 0.035209,0.165398 C 9.2714825,18.410085 9.0954417,18.4737 9.2010662,18.90628 l 0.6924272,3.129842 c 0.093889,0.407134 0.2464576,0.394411 0.4577066,0.356242 l 0.03521,0.165398 z m -3.9198424,0.814268 c 0.211249,-0.114507 0.3051375,-0.178121 0.211249,-0.597978 L 5.9384433,19.809608 C 5.6215698,19.440643 5.5628896,19.440643 5.5159453,19.453366 l -0.035208,-0.165398 0.7863155,-0.229013 1.9247129,2.302851 v 0 L 7.7340596,19.453366 C 7.6519072,19.084401 7.5462827,18.880834 7.2411453,18.931726 L 7.2059373,18.779051 8.003989,18.550038 8.039197,18.702713 C 7.7927398,18.842665 7.8044759,18.99534 7.8748922,19.287968 l 0.89194,3.702374 -0.093889,0.02545 -2.4645713,-2.926275 h -0.011737 c 0,0 0.6102748,2.519141 0.6102748,2.519141 0.1056242,0.445302 0.2112489,0.547086 0.4929143,0.52164 l 0.035208,0.152675 -0.8332598,0.241736 -0.046944,-0.152675 z m -1.091453,-3.855049 c -0.1877769,0.127229 -0.2464572,0.21629 -0.1290966,0.623423 l 0.5750666,1.972055 c 0.1056242,0.368965 0.211249,0.928774 0.1525687,1.259571 C 5.868027,23.791887 5.5863616,24.008176 5.3633766,24.097237 5.210808,24.148129 4.8587263,24.237189 4.5183807,23.957285 4.2836597,23.791887 4.131091,23.601043 3.9433141,22.926727 L 3.3330393,20.865612 C 3.1804706,20.343971 3.0865822,20.369417 2.8635972,20.407586 l -0.035208,-0.165398 1.2205497,-0.43258 0.046944,0.152675 c -0.234721,0.101784 -0.3403455,0.152676 -0.1877768,0.687039 l 0.5985387,2.061115 c 0.1056242,0.356242 0.3638177,1.208679 0.8802041,1.017835 0.6337469,-0.229013 0.3638176,-1.183233 0.2581932,-1.564921 L 5.0934474,20.280357 C 4.9760869,19.898669 4.8704624,19.707825 4.553589,19.784162 l -0.046944,-0.152675 0.7980517,-0.279904 0.035208,0.152675 z m 27.6149344,5.865272 c 2.887069,0.279905 3.520817,2.824492 3.520817,2.824492 -1.959921,-1.666705 -3.520817,-1.526752 -3.520817,-1.526752 z m -0.798051,0 v 1.29774 c 0,0 -1.572631,-0.139953 -3.520817,1.526752 0,0 0.633747,-2.531864 3.520817,-2.824492 z m -4.01373,4.389412 c 0,0 1.232285,-1.463137 4.40102,-1.463137 h 0.01173 c 3.180471,0 4.401021,1.463137 4.401021,1.463137 v 2.162899 c -1.455271,1.60309 -4.318869,1.399523 -4.412756,1.399523 -0.09389,0 -2.945751,0.21629 -4.412757,-1.399523 v -2.162899 z m 0.715899,4.24946 c -0.08216,-0.127229 0.09389,-0.241735 0.09389,-0.241735 0.891941,0.865159 3.297832,1.285016 3.297832,1.285016 v 0.699761 c 0,0 -0.410763,0.07634 -1.079718,-0.139952 L 30.830613,36.3367 c 0,0 0.258193,0.483471 1.736936,0.483471 h 0.01173 c 1.478742,0 1.736935,-0.483471 1.736935,-0.483471 l -0.352081,-0.699762 c -0.668956,0.203567 -1.091454,0.139952 -1.091454,0.139952 v -0.699761 c 0,0 2.394156,-0.419857 3.297832,-1.285016 0,0 0.164304,0.101783 0.09389,0.241735 -0.07041,0.139953 -1.232287,1.526753 -1.232287,1.704874 v 1.412245 c 0,0.178121 -0.927148,1.157787 -2.452834,1.17051 -1.525687,0 -2.452836,-0.992389 -2.452836,-1.17051 v -1.412245 c 0,-0.178121 -1.114925,-1.501307 -1.244022,-1.704874 z m 16.935125,47.163917 c 0,1.297739 0.01173,3.028058 -0.974092,4.236737 -0.704164,0.865159 -1.689992,1.285016 -3.485609,1.285016 h -4.717893 c -2.394155,0 -4.025466,2.022947 -4.025466,2.022947 0,0 -1.467007,-2.022947 -3.990258,-2.022947 h -4.976088 c -1.290965,0 -2.394154,-0.368965 -3.110054,-1.246847 -0.985828,-1.195956 -1.021036,-2.786323 -1.021036,-3.549699 V 51.273424 h 26.300496 v 29.911618 z m 1.173606,-39.021239 h 6.677814 v 45.369983 c 0,1.119618 -0.164304,3.702374 -1.619575,5.458139 -1.021037,1.234124 -2.499779,1.870271 -4.412756,1.870271 h -9.036761 c -2.135963,0 -4.94088,1.488583 -6.00886,2.875383 -1.067982,-1.374077 -3.849426,-2.875383 -6.032332,-2.875383 h -9.025025 c -1.912978,0 -3.39172,-0.623424 -4.412756,-1.870271 -1.455271,-1.755765 -1.619576,-4.338521 -1.619576,-5.458139 V 42.176526 h 6.677814 c 0.21125,0.903329 1.044509,2.98989 4.213244,4.224014 0,0 1.572631,0.267182 2.429363,0.34352 1.091453,0.101783 1.854296,0.73793 2.49978,1.323185 0.539858,0.496194 1.596102,1.603089 1.795615,1.78121 0.08216,0.07634 0.199513,0.190844 0.352082,0.305351 h -10.97321 v 32.163577 c 0,0.814268 0.258193,2.570033 1.408326,3.855049 0.786317,0.890605 2.229851,1.666704 3.262623,1.666704 h 5.727195 c 1.78388,0 3.696857,2.188345 3.696857,2.188345 0,0 1.877768,-2.188345 3.95505,-2.188345 h 5.41032 c 1.596104,0 2.898806,-0.928774 3.661649,-1.844825 1.032773,-1.285016 1.232286,-2.98989 1.232286,-3.995001 V 50.166529 H 35.701076 c 0.152568,-0.114507 0.258194,-0.229013 0.352081,-0.305351 0.187778,-0.178121 1.255758,-1.285016 1.795617,-1.78121 0.633746,-0.585255 1.408326,-1.221402 2.49978,-1.323186 0.856731,-0.07634 2.429363,-0.343519 2.429363,-0.343519 3.168734,-1.221401 4.001994,-3.307963 4.213242,-4.224014 z m 0.974092,-0.903328 -0.328609,-0.190844 0.539858,-0.190844 -1.185341,-1.08145 c 0,0 1.244022,0 1.150133,-0.03817 -0.105622,-0.03817 -1.420063,-1.564921 -1.420063,-1.564921 0,0 1.513952,0.190844 1.420063,0 -0.105622,-0.190844 -1.384854,-1.526752 -1.290966,-1.450415 0.105622,0.06361 1.255757,0.21629 1.22055,0.114507 -0.03521,-0.114507 -1.22055,-1.3868 -1.22055,-1.3868 0,0 1.290966,0.292627 1.22055,0.152675 -0.07041,-0.152675 -1.361382,-1.564921 -1.22055,-1.488583 0.140833,0.07634 1.185342,0.343519 1.185342,0.343519 -0.199513,-0.30535 -0.77458,-1.348631 -0.77458,-1.348631 l 11.055363,6.043394 -0.774579,0.139952 1.208813,1.272293 -1.27923,0.07634 1.255758,1.234125 -1.22055,0.03817 1.185342,1.310463 c 0,0 -1.290966,-0.114507 -1.22055,0 0.07042,0.114506 1.349646,1.412245 1.22055,1.374076 -0.140833,-0.03817 -1.326174,0 -1.22055,0.07634 0.105622,0.07634 1.326174,1.310462 1.150133,1.310462 -0.17604,0 -1.349646,-0.152675 -1.220549,-0.07634 0.140833,0.07634 0.915412,1.234124 0.915412,1.234124 L 54.45529,44.988296 v -3.702374 h -6.51351 z m -28.823748,0 c 0.657219,-1.030558 0.680691,-2.290128 0.680691,-2.290128 v -7.45564 c 0,-2.201067 -1.478743,-2.659093 -2.053809,-2.888106 -0.727636,-0.30535 -8.837249,-3.282517 -8.837249,-3.282517 10.656336,-2.748153 23.249123,-2.493695 23.636413,-2.493695 v 0 c 0.399025,0 12.968339,-0.254458 23.61294,2.493695 0,0 -8.109613,2.977167 -8.837249,3.282517 -0.586802,0.241736 -2.065545,0.699762 -2.065545,2.888106 v 7.45564 c 0,0 0.03521,1.25957 0.692427,2.290128 h -0.02348 L 35.88885,36.998292 c 0,0 -0.281666,-0.801545 0.129096,-1.145064 0,0 1.220549,-1.119618 1.701727,-2.964444 0,0 1.091454,-0.356242 1.091454,-1.641258 0,-1.285016 -0.891941,-1.60309 -0.891941,-1.60309 0,0 -0.985828,-5.356355 -5.35164,-5.394524 h -0.02347 c -4.354076,0.02545 -5.35164,5.394524 -5.35164,5.394524 0,0 -0.891941,0.318074 -0.891941,1.60309 0,1.285016 1.091453,1.641258 1.091453,1.641258 0.481179,1.844826 1.689992,2.964444 1.689992,2.964444 0.422498,0.343519 0.129097,1.145064 0.129097,1.145064 l -10.034326,4.274906 z m -8.449959,3.702374 -3.8376896,2.188344 c 0,0 0.7745796,-1.157787 0.9154122,-1.234124 0.1408327,-0.07634 -1.0562448,0.07634 -1.2205496,0.07634 -0.1643047,0 1.0562448,-1.234124 1.1501333,-1.310462 0.1056242,-0.07634 -1.079717,-0.114506 -1.2205496,-0.07634 -0.1290966,0.03817 1.1501333,-1.259571 1.2205496,-1.374077 0.070417,-0.114507 -1.2205496,0 -1.2205496,0 L 7.6636432,41.93479 6.4430936,41.896622 7.6988513,40.662497 6.4196214,40.586159 7.628435,39.313866 6.8538555,39.173914 17.909218,33.13052 c 0,0 -0.575066,1.043281 -0.774579,1.348631 0,0 1.044509,-0.267181 1.173605,-0.343519 0.140833,-0.07634 -1.150133,1.348631 -1.208813,1.488583 -0.07042,0.152675 1.208813,-0.152675 1.208813,-0.152675 0,0 -1.173605,1.272293 -1.208813,1.3868 -0.04694,0.114506 1.114924,-0.05089 1.208813,-0.114507 0.105622,-0.07634 -1.173605,1.259571 -1.27923,1.450415 -0.105622,0.190844 1.420063,0 1.420063,0 0,0 -1.326174,1.539475 -1.420063,1.564921 -0.105622,0.03817 1.150134,0.03817 1.150134,0.03817 l -1.185341,1.081449 0.539857,0.190844 -0.328609,0.190844 h -6.51351 v 3.715097 z M 30.6311,12.913778 C 0.8919401,13.244574 0,21.043733 0,21.043733 v 8.486197 c 0,2.837214 0.8919401,2.786322 1.8895046,3.333409 0.5163864,0.279904 8.3560704,3.040781 8.3560704,3.040781 v 0.368965 L 6.8655915,38.067019 C 4.8352542,39.262974 4.9760869,40.98057 4.9760869,40.98057 v 8.651596 c 0,1.310462 0.1643047,1.463137 1.0093006,2.188344 0.8097877,0.699762 2.3002665,1.984778 2.3002665,1.984778 l -7.47586628,5.381801 5.15212768,1.844825 v 6.145178 l 4.7061576,-3.371578 v 23.791887 c 0,1.272293 0.187777,4.03317 1.830824,6.017947 1.185342,1.437692 2.875334,2.162899 5.023032,2.162899 h 9.025025 c 2.816653,0 6.032332,3.040781 6.032332,3.040781 0,0 3.051374,-3.040781 6.00886,-3.040781 h 9.036761 c 2.147697,0 3.83769,-0.725207 5.023031,-2.162899 1.643048,-1.984777 1.842561,-4.745654 1.842561,-6.017947 V 63.818237 c 0,0 4.659212,3.358855 4.659212,3.358855 v -6.145178 l 5.163864,-1.844825 -7.487602,-5.381801 c 0,0 1.490479,-1.297739 2.300266,-1.984778 0.856732,-0.725207 1.021037,-0.890605 1.021037,-2.188344 V 40.98057 c 0,0 0.129097,-1.717596 -1.901241,-2.913551 L 54.866053,36.273085 V 35.90412 c 0,0 7.85142,-2.748154 8.367805,-3.040781 0.985829,-0.547087 1.877769,-0.496195 1.877769,-3.333409 v -8.486197 c 0,0 -0.880204,-7.799159 -30.619365,-8.129955 V 11.119844 H 33.776364 V 8.2699071 h 2.464571 v 0.6870384 h 2.441098 V 4.6438709 H 36.217462 V 5.2927405 H 33.764627 V 2.5827556 H 34.46879 V 0 H 30.6311 V 2.5827556 H 31.347 V 5.2927405 H 28.894165 V 4.6438709 h -2.452836 v 4.3130746 h 2.4411 V 8.2699071 H 31.347 v 2.8499369 h -0.7159 z m 32.814008,8.384414 c -0.199513,-0.02545 -0.77458,0.267181 -0.563331,0.381688 0.199513,0.114506 0.668955,0.852436 0.563331,0.82699 -0.09389,-0.03817 -0.739372,0.190844 -0.563331,0.292628 0.164305,0.101783 0.774579,0.928774 0.633746,0.890605 -0.129096,-0.03817 -0.809787,0.114507 -0.668954,0.267182 0.129096,0.152675 0.77458,0.966943 0.633747,0.966943 -0.129097,0 -1.009301,0 -0.739372,0.190844 0.258194,0.178121 0.880205,1.272293 0.739372,1.234124 -0.129097,-0.03817 -1.079717,-0.190844 -0.77458,0.114507 0.293402,0.292627 0.50465,1.195956 0.50465,1.195956 -7.616698,-6.297853 -30.267283,-5.903442 -30.6311,-5.890719 v 0 c -0.363818,0 -23.0613463,-0.407134 -30.6780453,5.890719 0,0 0.199513,-0.903329 0.5163864,-1.195956 0.3051375,-0.292628 -0.6454829,-0.152675 -0.7863156,-0.114507 -0.1290966,0.03817 0.4694422,-1.04328 0.7511075,-1.234124 0.2699291,-0.190844 -0.5985388,-0.190844 -0.7511075,-0.190844 -0.1525687,0 0.5046504,-0.814268 0.645483,-0.966943 C 2.4176271,23.80461 1.7369359,23.664657 1.5961033,23.690103 1.4670067,23.728273 2.0772815,22.901281 2.2415863,22.799498 2.4176271,22.684991 1.7721442,22.468701 1.6665196,22.50687 1.5608955,22.54504 2.0303374,21.794386 2.2415863,21.67988 2.4528353,21.565373 1.8777687,21.272746 1.6665196,21.298192 1.4670067,21.336362 1.9012407,20.674768 2.0772815,20.59843 2.2415863,20.52209 1.5961033,20.153127 1.5374231,20.07679 c 0,0 4.4597004,-6.081563 31.0418629,-6.081563 v 0 c 26.535218,0 31.006654,6.081563 31.006654,6.081563 -0.07042,0.07634 -0.704163,0.445303 -0.539858,0.52164 0.164304,0.07634 0.610274,0.750653 0.399026,0.699762 z M 38.153911,8.295353 H 36.851209 V 7.7737127 h -3.544288 v 3.7914343 h 0.645483 v 1.348631 c -0.457707,0 -0.915412,0 -1.384855,0 v 0 c -0.469441,0 -0.927147,0 -1.373117,0 v -1.348631 h 0.645482 V 7.7737127 H 28.307362 V 8.295353 H 27.00466 V 5.3690781 h 1.408327 V 5.967056 h 3.450399 V 2.0992841 H 31.206167 V 0.6743155 h 2.769709 v 1.4122457 h -0.657219 v 3.8677719 h 3.4504 V 5.3563552 h 1.408326 V 8.28263 Z m 4.964351,36.820171 c -1.0093,0.572532 -3.685121,0.877882 -3.685121,0.877882 0,0 -1.502215,0.178121 -2.945749,1.946609 -1.021037,1.259571 -2.4411,2.188345 -3.908106,2.162899 -1.443535,-0.01272 -2.934014,-0.941497 -3.919842,-2.162899 -1.443535,-1.78121 -2.94575,-1.946609 -2.94575,-1.946609 0,0 -2.687556,-0.30535 -3.673384,-0.877882 -1.150134,-0.661593 -2.089019,-1.424969 -2.757973,-2.786323 l 8.80204,-3.791434 -3.156998,3.765989 5.598097,-3.804158 -1.7252,6.310576 3.180471,-5.814381 0.610274,8.040894 h 0.02348 l 0.610275,-8.040894 3.168734,5.814381 -1.736936,-6.310576 5.598098,3.804158 -3.168734,-3.765989 8.80204,3.791434 c -0.680691,1.361354 -1.596103,2.12473 -2.757972,2.786323 z"
     id="path25"
     style="stroke-width:1.22196" />
</svg>
